<?xml version="1.0" encoding="UTF-8"?>
<!DOCTYPE svg PUBLIC "-//W3C//DTD SVG 1.1//EN" "http://www.w3.org/Graphics/SVG/1.1/DTD/svg11.dtd">
<!-- Creator: CorelDRAW -->
<svg xmlns="http://www.w3.org/2000/svg" xml:space="preserve" width="8.5in" height="11in" version="1.1" style="shape-rendering:geometricPrecision; text-rendering:geometricPrecision; image-rendering:optimizeQuality; fill-rule:evenodd; clip-rule:evenodd" 
viewBox="0 0 8500 11000"
 xmlns:xlink="http://www.w3.org/1999/xlink">
 <defs>
    <linearGradient id="gradientStroke" gradientTransform="rotate(45)">
      <stop offset="0%" stop-color="#665DCD" />
      <stop offset="45%" stop-color="#5FA4E6" />
      <stop offset="100%" stop-color="#D2AB67" />
    </linearGradient>
  </defs>
  <style type="text/css">
    <![CDATA[
      .str0 { stroke: url(#gradientStroke); stroke-width: 3; stroke-linejoin: bevel; stroke-miterlimit: 2.61313; }
      .fil0 { fill: none; }
    ]]>
  </style>
 <g id="Layer_x0020_1">
  <metadata id="CorelCorpID_0Corel-Layer"/>
  <g id="Mechanical_x0020_Sprocket_x0020_Gears--cliparts-arts-gears.dxf">
   <path class="fil0 str0" d="M5842.2 2557.47c357.12,45.63 640.2,330.81 682.55,688.86 0,0 -266.21,0 -266.21,0 -38.24,-212.55 -204.73,-381.15 -416.34,-422.3 0,0 0,-266.56 0,-266.56z"/>
   <path class="fil0 str0" d="M5416.94 3387.45c0,0 128.6,0 128.6,0 4.86,19.79 12.59,38.43 22.77,55.46 0,0 -90.98,91 -90.98,91 -31.15,-42.3 -52.44,-92.25 -60.39,-146.47z"/>
   <path class="fil0 str0" d="M5546.84 3603.57c0,0 90.95,-90.91 90.95,-90.91 16.86,10.09 35.24,17.79 54.77,22.77 0,0 0,128.77 0,128.77 -53.99,-8.12 -103.66,-29.48 -145.72,-60.63z"/>
   <path class="fil0 str0" d="M5935.97 3604.06c-41.87,30.89 -91.35,52.01 -145.02,60.13 0,0 0,-128.77 0,-128.77 19.25,-4.88 37.37,-12.42 53.99,-22.37 0,0 91.03,91.01 91.03,91.01z"/>
   <path class="fil0 str0" d="M6066.2 3390.34c-8.33,53.43 -29.62,102.6 -60.51,144.26 0,0 -90.96,-90.93 -90.96,-90.93 9.93,-16.39 17.55,-34.27 22.51,-53.33 0,0 128.96,0 128.96,0z"/>
   <path class="fil0 str0" d="M6066.65 3291.96c0,0 -128.56,0 -128.56,0 -4.67,-19.2 -11.97,-37.25 -21.65,-53.83 0,0 91.13,-91.17 91.13,-91.17 30.46,42 51.29,91.43 59.08,145z"/>
   <path class="fil0 str0" d="M5938.56 3076.83c0,0 -90.79,90.84 -90.79,90.84 -16.55,-10.26 -34.65,-18.15 -53.89,-23.26 0,0 0,-129.1 0,-129.1 53.66,8.61 103,30.23 144.69,61.52z"/>
   <path class="fil0 str0" d="M5549.05 3073.85c42.34,-30.8 92.25,-51.76 146.42,-59.36 0,0 0,128.35 0,128.35 -19.71,4.63 -38.28,12.16 -55.32,22.11 0,0 -91.1,-91.1 -91.1,-91.1z"/>
   <path class="fil0 str0" d="M5637.96 3339.5c0,-57.23 46.59,-103.75 103.8,-103.75 57.22,0 103.8,46.52 103.8,103.75 0,57.23 -46.57,103.75 -103.8,103.75 -57.2,0 -103.8,-46.52 -103.8,-103.75z"/>
   <path class="fil0 str0" d="M5417.27 3289.07c8.4,-54.24 30.07,-104.1 61.64,-146.17 0,0 90.84,90.84 90.84,90.84 -10.44,16.97 -18.45,35.54 -23.54,55.32 0,0 -128.94,0 -128.94,0z"/>
   <path class="fil0 str0" d="M5649.91 2556.39c0,0 0,266.14 0,266.14 -213.74,37.84 -383.2,205.37 -423.88,418.19 0,0 -266.54,0 -266.54,0 45.02,-358.31 331.16,-642.43 690.41,-684.33z"/>
   <path class="fil0 str0" d="M5836.54 4122.27c0,0 0,-266.3 0,-266.3 212.26,-38.85 380.26,-205.62 420.89,-417.28 0,0 266.54,0 266.54,0 -45.04,357.17 -329.68,640.53 -687.43,683.58z"/>
   <path class="fil0 str0" d="M4958.84 3432.99c0,0 266.23,0 266.23,0 38.54,213.39 206.33,382.33 419.18,422.49 0,0 0,266.46 0,266.46 -358.39,-44.46 -642.81,-330.08 -685.41,-688.96z"/>
   <path class="fil0 str0" d="M4702.07 3239.06c0,0 -121.59,0 -121.59,0 0,0 0,192.27 0,192.27 0,0 0.05,0 0.05,0 0,0 0,6.98 0,6.98 0,0 121.43,0 121.43,0 6.93,73.52 21.48,144.89 42.89,213.22 0,0 -112.91,46.78 -112.91,46.78 0,0 73.56,177.72 73.56,177.72 0,0 113.7,-47.13 113.7,-47.13 33.09,62.11 72.22,120.58 116.68,174.47 0,0 -86.26,86.29 -86.26,86.29 0,0 4.91,4.88 4.91,4.88 0,0 -2,2 -2,2 0,0 135.93,135.98 135.93,135.98 0,0 88.23,-88.19 88.23,-88.19 55.47,45.96 115.72,86.19 179.92,119.97 0,0 -47.93,115.77 -47.93,115.77 0,0 177.65,73.61 177.65,73.61 0,0 47.98,-115.84 47.98,-115.84 66.45,20.54 135.7,34.53 206.98,41.31 0,0 0,121.66 0,121.66 0,0 4.95,0 4.95,0 0,0 0,4.88 0,4.88 0,0 192.29,0 192.29,0 0,0 0,-126.19 0,-126.19 72.98,-6.72 143.82,-20.96 211.68,-42 0,0 48.35,116.76 48.35,116.76 0,0 177.67,-73.61 177.67,-73.61 0,0 -48.4,-116.85 -48.4,-116.85 63.38,-33.45 122.93,-73.12 177.78,-118.42 0,0 86.26,86.29 86.26,86.29 0,0 1.46,-1.48 1.46,-1.48 0,0 3.47,3.48 3.47,3.48 0,0 135.98,-135.98 135.98,-135.98 0,0 -89.39,-89.34 -89.39,-89.34 46.1,-55.14 86.59,-115.11 120.65,-178.96 0,0 116.24,48.12 116.24,48.12 0,0 73.59,-177.62 73.59,-177.62 0,0 -115.37,-47.86 -115.37,-47.86 21.36,-67.98 35.91,-138.96 42.93,-212.08 0,0 121.59,0 121.59,0 0,0 2.89,0 2.89,0 0,0 0,-192.27 0,-192.27 0,0 -123.72,0 -123.72,0 -6.41,-73.44 -20.44,-144.67 -41.31,-212.99 0,0 113.63,-47.11 113.63,-47.11 0,0 -73.61,-177.62 -73.61,-177.62 0,0 -113.05,46.87 -113.05,46.87 -33.85,-64.67 -74.15,-125.37 -120.2,-181.19 0,0 86.26,-86.19 86.26,-86.19 0,0 -135.96,-136.07 -135.96,-136.07 0,0 -85.77,85.8 -85.77,85.8 -55.58,-46.62 -116.07,-87.53 -180.57,-121.97 0,0 46.15,-111.31 46.15,-111.31 0,0 -177.69,-73.61 -177.69,-73.61 0,0 -45.75,110.46 -45.75,110.46 -67.98,-21.36 -138.96,-35.94 -212.13,-42.89 0,0 0,-121.64 0,-121.64 0,0 -192.29,0 -192.29,0 0,0 0,2.07 0,2.07 0,0 -2.04,0 -2.04,0 0,0 0,118.98 0,118.98 -73.99,6.62 -145.74,20.87 -214.52,42.23 0,0 -45.49,-109.78 -45.49,-109.78 0,0 -177.67,73.52 -177.67,73.52 0,0 45.54,109.97 45.54,109.97 -63.38,33.45 -122.95,73.21 -177.81,118.42 0,0 -86.26,-86.29 -86.26,-86.29 0,0 -136,135.96 -136,135.96 0,0 1.45,1.5 1.45,1.5 0,0 -3.45,3.48 -3.45,3.48 0,0 84.62,84.55 84.62,84.55 -46.46,55.89 -87.18,116.76 -121.31,181.52 0,0 -110.84,-45.87 -110.84,-45.87 0,0 -73.59,177.62 -73.59,177.62 0,0 110.91,45.96 110.91,45.96 -20.52,66.41 -34.53,135.72 -41.38,207.01z"/>
   <path class="fil0 str0" d="M1764.28 7351.52c0,0 95.04,-95.06 95.04,-95.06 39.91,27.42 85.61,46.78 134.88,56.06 0,0 0,134.57 0,134.57 -85.61,-11.67 -164.24,-45.54 -229.92,-95.56z"/>
   <path class="fil0 str0" d="M2356.06 7352.28c-65.48,49.59 -143.8,83.14 -229,94.81 0,0 0,-134.57 0,-134.57 48.87,-9.18 94.24,-28.31 133.94,-55.4 0,0 95.06,95.16 95.06,95.16z"/>
   <path class="fil0 str0" d="M2359.46 6574.06c0,0 -94.93,94.9 -94.93,94.9 -39.48,-27.58 -84.71,-47.37 -133.56,-57.16 0,0 0,-134.71 0,-134.71 85.19,12.25 163.3,46.61 228.49,96.97z"/>
   <path class="fil0 str0" d="M1767.09 6569.9c66.08,-49.67 145.13,-82.8 231.02,-93.83 0,0 0,134.32 0,134.32 -49.53,8.78 -95.56,27.67 -135.81,54.67 0,0 -95.21,-95.16 -95.21,-95.16z"/>
   <path class="fil0 str0" d="M1449.22 7768.46c-54.65,54.57 -143.49,54.57 -198.11,0 -54.65,-54.65 -54.65,-143.49 0,-198.16 27.3,-27.32 63.17,-40.98 99.04,-40.98 35.87,0 71.76,13.66 99.08,40.98 54.6,54.67 54.6,143.52 0,198.16z"/>
   <path class="fil0 str0" d="M2672.99 7770.78c-54.6,-54.65 -54.6,-143.52 0,-198.16 27.35,-27.32 63.19,-40.98 99.08,-40.98 35.89,0 71.71,13.66 99.06,40.98 54.59,54.64 54.59,143.51 0,198.16 -54.65,54.57 -143.49,54.57 -198.14,0z"/>
   <path class="fil0 str0" d="M3067.69 6821.16c77.25,0 140.09,62.83 140.09,140.02 0,77.25 -62.84,140.11 -140.09,140.11 -77.25,0 -140.09,-62.86 -140.09,-140.11 0,-77.18 62.84,-140.02 140.09,-140.02z"/>
   <path class="fil0 str0" d="M2060.65 6821.72c77.2,0 140.09,62.86 140.09,140.11 0,77.27 -62.89,140.04 -140.09,140.04 -77.25,0 -140.09,-62.77 -140.09,-140.04 0,-77.25 62.83,-140.11 140.09,-140.11z"/>
   <path class="fil0 str0" d="M916.74 6957.93c0,-77.25 62.83,-140.11 140.09,-140.11 77.25,0 140.06,62.86 140.06,140.11 0,77.27 -62.81,140.11 -140.06,140.11 -77.25,0 -140.09,-62.84 -140.09,-140.11z"/>
   <path class="fil0 str0" d="M1352.47 6107.43c35.87,0 71.76,13.66 99.06,40.98 54.6,54.64 54.6,143.52 0,198.16 -54.62,54.57 -143.49,54.57 -198.11,0 -54.62,-54.64 -54.62,-143.52 0,-198.16 27.28,-27.32 63.17,-40.98 99.06,-40.98z"/>
   <path class="fil0 str0" d="M1767.59 6758.2c-27.89,40 -47.79,85.89 -57.39,135.49 0,0 -134.59,0 -134.59,0 12.04,-85.96 46.38,-164.71 97.04,-230.46 0,0 94.94,94.97 94.94,94.97z"/>
   <path class="fil0 str0" d="M2204 5954.15c0,77.25 -62.84,140.11 -140.09,140.11 -77.27,0 -140.11,-62.86 -140.11,-140.11 0,-77.27 62.84,-140.11 140.11,-140.11 77.25,0 140.09,62.84 140.09,140.11z"/>
   <path class="fil0 str0" d="M2452.79 6668.54c49.15,65.65 82.16,144.01 93.35,229.05 0,0 -134.39,0 -134.39,0 -8.89,-48.7 -27.65,-94.08 -54.2,-133.82 0,0 95.23,-95.23 95.23,-95.23z"/>
   <path class="fil0 str0" d="M2873.43 6150.74c54.63,54.55 54.63,143.49 0,198.06 -54.65,54.65 -143.49,54.65 -198.14,0 -54.6,-54.57 -54.6,-143.51 0,-198.06 27.35,-27.32 63.21,-41.01 99.08,-41.01 35.87,0 71.76,13.69 99.06,41.01z"/>
   <path class="fil0 str0" d="M2355.09 7163.39c27.04,-39.34 46.38,-84.39 55.87,-132.91 0,0 134.62,0 134.62,0 -11.97,84.87 -45.7,162.78 -95.49,227.97 0,0 -95,-95.06 -95,-95.06z"/>
   <path class="fil0 str0" d="M1920.56 7965.04c0,-77.25 62.83,-140.11 140.09,-140.11 77.2,0 140.09,62.86 140.09,140.11 0,77.18 -62.89,140.04 -140.09,140.04 -77.25,0 -140.09,-62.86 -140.09,-140.04z"/>
   <path class="fil0 str0" d="M1670.46 7257.54c-50.19,-66 -83.89,-144.99 -95.28,-231.04 0,0 134.41,0 134.41,0 9.13,49.69 28.5,95.75 55.89,135.98 0,0 -95.02,95.06 -95.02,95.06z"/>
   <path class="fil0 str0" d="M671.02 6826.2c0,0 -177.81,0 -177.81,0 0,0 0,259.59 0,259.59 0,0 0.05,0 0.05,0 0,0 0,9.37 0,9.37 0,0 177.57,0 177.57,0 9.22,97.46 28.43,192.1 56.67,282.71 0,0 -164.89,68.31 -164.89,68.31 0,0 99.33,239.73 99.33,239.73 0,0 165.74,-68.63 165.74,-68.63 43.87,82.39 95.65,159.8 154.5,231.28 0,0 -125.77,125.77 -125.77,125.77 0,0 6.67,6.64 6.67,6.64 0,0 -2.72,2.72 -2.72,2.72 0,0 183.54,183.51 183.54,183.51 0,0 128.28,-128.28 128.28,-128.28 73.63,60.77 153.58,114.03 238.72,158.91 0,0 -69.76,168.51 -69.76,168.51 0,0 239.78,99.29 239.78,99.29 0,0 69.96,-168.84 69.96,-168.84 88,26.99 179.7,45.53 274.18,54.65 0,0 0,177.78 0,177.78 0,0 6.67,0 6.67,0 0,0 0,6.62 0,6.62 0,0 259.59,0 259.59,0 0,0 0,-183.98 0,-183.98 96.68,-8.94 190.55,-27.74 280.5,-55.42 0,0 70.42,170.02 70.42,170.02 0,0 239.82,-99.29 239.82,-99.29 0,0 -70.42,-169.99 -70.42,-169.99 84.01,-44.39 162.95,-96.96 235.74,-156.92 0,0 125.74,125.77 125.74,125.77 0,0 1.95,-1.97 1.95,-1.97 0,0 4.69,4.72 4.69,4.72 0,0 183.52,-183.58 183.52,-183.58 0,0 -129.88,-129.85 -129.88,-129.85 61.03,-73.21 114.67,-152.69 159.85,-237.41 0,0 169.14,70.04 169.14,70.04 0,0 99.34,-239.8 99.34,-239.8 0,0 -168.16,-69.64 -168.16,-69.64 28.12,-90.19 47.32,-184.17 56.67,-281.14 0,0 177.81,0 177.81,0 0,0 3.92,0 3.92,0 0,0 0,-259.59 0,-259.59 0,0 -180.69,0 -180.69,0 -8.57,-97.3 -27.06,-191.7 -54.57,-282.22 0,0 165.88,-68.73 165.88,-68.73 0,0 -99.33,-239.82 -99.33,-239.82 0,0 -164.9,68.33 -164.9,68.33 -44.83,-85.7 -98.29,-166.19 -159.27,-240.31 0,0 125.78,-125.7 125.78,-125.7 0,0 -183.54,-183.49 -183.54,-183.49 0,0 -125.04,124.94 -125.04,124.94 -73.75,-61.69 -153.98,-116 -239.54,-161.63 0,0 67.32,-162.48 67.32,-162.48 0,0 -239.78,-99.36 -239.78,-99.36 0,0 -66.92,161.57 -66.92,161.57 -90.14,-28.17 -184.19,-47.37 -281.14,-56.64 0,0 0,-177.88 0,-177.88 0,0 -259.59,0 -259.59,0 0,0 0,2.72 0,2.72 0,0 -2.7,0 -2.7,0 0,0 0,174.31 0,174.31 -98.09,8.87 -193.25,27.75 -284.42,55.82 0,0 -66.57,-160.72 -66.57,-160.72 0,0 -239.8,99.36 -239.8,99.36 0,0 66.55,160.65 66.55,160.65 -84.01,44.3 -163,96.97 -235.79,156.82 0,0 -125.72,-125.7 -125.72,-125.7 0,0 -183.54,183.51 -183.54,183.51 0,0 1.97,2 1.97,2 0,0 -4.69,4.62 -4.69,4.62 0,0 123.46,123.47 123.46,123.47 -61.52,74.2 -115.44,154.85 -160.74,240.81 0,0 -161.85,-66.99 -161.85,-66.99 0,0 -99.33,239.73 -99.33,239.73 0,0 162.17,67.23 162.17,67.23 -26.97,88.02 -45.51,179.71 -54.6,274.19z"/>
   <path class="fil0 str0" d="M3954.03 3958.24c375.26,47.93 672.71,347.61 717.22,723.91 0,0 -127.41,0 -127.41,0 -42.79,-306.98 -283.91,-550.44 -589.81,-596.47 0,0 0,-127.44 0,-127.44z"/>
   <path class="fil0 str0" d="M3848.47 4608.28c94.88,0 171.78,76.92 171.78,171.73 0,94.83 -76.9,171.75 -171.78,171.75 -94.83,0 -171.73,-76.92 -171.73,-171.75 0,-94.81 76.9,-171.73 171.73,-171.73z"/>
   <path class="fil0 str0" d="M3751.95 3957.07c0,0 0,127.46 0,127.46 -308.15,42.39 -552.56,284.52 -598.05,591.66 0,0 -127.39,0 -127.39,0 47.3,-376.46 347.97,-675.06 725.44,-719.12z"/>
   <path class="fil0 str0" d="M3948.07 5602.55c0,0 0,-127.37 0,-127.37 306.58,-43.56 549.45,-285.03 594.94,-590.91 0,0 127.44,0 127.44,0 -47.37,375.29 -346.49,672.97 -722.38,718.28z"/>
   <path class="fil0 str0" d="M3025.81 4878.31c0,0 127.37,0 127.37,0 43.12,307.8 285.65,551.5 592.84,596.45 0,0 0,127.37 0,127.37 -376.56,-46.62 -675.44,-346.72 -720.2,-723.81z"/>
   <path class="fil0 str0" d="M2756.01 4674.43c0,0 -127.74,0 -127.74,0 0,0 0,202.15 0,202.15 0,0 0.02,0 0.02,0 0,0 0,7.28 0,7.28 0,0 127.55,0 127.55,0 7.3,77.28 22.59,152.3 45.07,224.07 0,0 -118.63,49.11 -118.63,49.11 0,0 77.34,186.72 77.34,186.72 0,0 119.46,-49.5 119.46,-49.5 34.76,65.26 75.89,126.69 122.6,183.33 0,0 -90.68,90.67 -90.68,90.67 0,0 5.17,5.14 5.17,5.14 0,0 -2.09,2.16 -2.09,2.16 0,0 142.88,142.83 142.88,142.83 0,0 92.67,-92.65 92.67,-92.65 58.28,48.19 121.62,90.49 189.1,126.02 0,0 -50.37,121.64 -50.37,121.64 0,0 186.68,77.34 186.68,77.34 0,0 50.39,-121.73 50.39,-121.73 69.81,21.52 142.57,36.26 217.5,43.47 0,0 0,127.79 0,127.79 0,0 5.21,0 5.21,0 0,0 0,5.11 0,5.11 0,0 202.06,0 202.06,0 0,0 0,-132.57 0,-132.57 76.67,-7.02 151.09,-22.01 222.43,-44.13 0,0 50.78,122.72 50.78,122.72 0,0 186.7,-77.34 186.7,-77.34 0,0 -50.87,-122.79 -50.87,-122.79 66.59,-35.21 129.2,-76.94 186.8,-124.48 0,0 90.65,90.68 90.65,90.68 0,0 1.53,-1.48 1.53,-1.48 0,0 3.66,3.64 3.66,3.64 0,0 142.88,-142.93 142.88,-142.93 0,0 -93.91,-93.89 -93.91,-93.89 48.43,-57.89 91,-120.91 126.8,-188.07 0,0 122.11,50.61 122.11,50.61 0,0 77.34,-186.66 77.34,-186.66 0,0 -121.24,-50.26 -121.24,-50.26 22.46,-71.48 37.74,-146 45.14,-222.85 0,0 127.74,0 127.74,0 0,0 0,-0.07 0,-0.07 0,0 3.03,0 3.03,0 0,0 0,-202.06 0,-202.06 0,0 -129.99,0 -129.99,0 -6.76,-77.08 -21.48,-151.94 -43.43,-223.74 0,0 119.41,-49.43 119.41,-49.43 0,0 -77.34,-186.73 -77.34,-186.73 0,0 -118.82,49.27 -118.82,49.27 -35.52,-67.91 -77.89,-131.66 -126.31,-190.39 0,0 90.68,-90.68 90.68,-90.68 0,0 -142.88,-142.83 -142.88,-142.83 0,0 -90.14,90.09 -90.14,90.09 -58.38,-48.94 -121.94,-91.99 -189.71,-128.09 0,0 48.47,-117.02 48.47,-117.02 0,0 -186.7,-77.34 -186.7,-77.34 0,0 -48.07,116.1 -48.07,116.1 -71.45,-22.44 -146,-37.77 -222.9,-45.14 0,0 0,-127.76 0,-127.76 0,0 -202.08,0 -202.08,0 0,0 0,2.16 0,2.16 0,0 -2.14,0 -2.14,0 0,0 0,125.04 0,125.04 -77.72,6.94 -153.16,21.94 -225.41,44.29 0,0 -47.81,-115.35 -47.81,-115.35 0,0 -186.68,77.34 -186.68,77.34 0,0 47.84,115.51 47.84,115.51 -66.57,35.11 -129.18,76.85 -186.8,124.45 0,0 -90.65,-90.67 -90.65,-90.67 0,0 -142.88,142.85 -142.88,142.85 0,0 1.52,1.57 1.52,1.57 0,0 -3.66,3.64 -3.66,3.64 0,0 88.92,88.84 88.92,88.84 -48.8,58.8 -91.59,122.65 -127.48,190.79 0,0 -116.45,-48.26 -116.45,-48.26 0,0 -77.34,186.72 -77.34,186.72 0,0 116.52,48.19 116.52,48.19 -21.55,69.88 -36.27,142.6 -43.43,217.52z"/>
   <path class="fil0 str0" d="M5836.38 7368.17c0,0 561.41,0 561.41,0 12.2,49.93 31.73,97.06 57.48,140.04 0,0 -397.35,397.3 -397.35,397.3 -119.46,-151.45 -198.73,-335.88 -221.54,-537.35z"/>
   <path class="fil0 str0" d="M6768.33 8304.56c-200.91,-23.76 -384.77,-103.59 -535.61,-223.48 0,0 397.44,-397.4 397.44,-397.4 42.44,25.58 88.89,45.14 138.16,57.46 0,0 0,563.42 0,563.42z"/>
   <path class="fil0 str0" d="M7551.43 8083.89c-151,118.98 -334.75,198.07 -535.4,221.09 0,0 0,-563.84 0,-563.84 48.54,-12.16 94.31,-31.39 136.24,-56.38 0,0 399.16,399.13 399.16,399.13z"/>
   <path class="fil0 str0" d="M7950.47 7375.47c-24.11,200.22 -103.87,383.38 -223.46,533.68 0,0 -399.02,-399.04 -399.02,-399.04 25.05,-41.41 44.37,-86.61 56.86,-134.64 0,0 565.63,0 565.63,0z"/>
   <path class="fil0 str0" d="M7951.44 7127.78c0,0 -564.64,0 -564.64,0 -11.69,-48.28 -30.28,-93.92 -54.67,-135.72 0,0 399.67,-399.72 399.67,-399.72 118.49,151.14 197.06,334.89 219.64,535.44z"/>
   <path class="fil0 str0" d="M7557.51 6416.29c0,0 -398.22,398.22 -398.22,398.22 -41.69,-25.81 -87.39,-45.79 -135.95,-58.77 0,0 0,-564.34 0,-564.34 200.48,24.44 383.9,104.67 534.17,224.9z"/>
   <path class="fil0 str0" d="M6238.21 6410c151.66,-118.91 336.09,-197.74 537.41,-220.11 0,0 0,562.28 0,562.28 -49.67,11.67 -96.59,30.63 -139.5,55.72 0,0 -397.91,-397.89 -397.91,-397.89z"/>
   <path class="fil0 str0" d="M6630.94 7247.52c0,-144.08 117.2,-261.26 261.23,-261.26 144.08,0 261.28,117.18 261.28,261.26 0,144.01 -117.2,261.26 -261.28,261.26 -144.03,0 -261.23,-117.25 -261.23,-261.26z"/>
   <path class="fil0 str0" d="M5837.25 7120.41c24.11,-201.23 104.45,-385.21 224.96,-536 0,0 396.62,396.56 396.62,396.56 -26.41,42.74 -46.71,89.59 -59.55,139.45 0,0 -562.04,0 -562.04,0z"/>
   <path class="fil0 str0" d="M5490.55 7112.13c0,0 -164.08,0 -164.08,0 0,0 0,259.61 0,259.61 0,0 0.02,0 0.02,0 0,0 0,9.34 0,9.34 0,0 163.87,0 163.87,0 9.39,99.29 28.99,195.6 57.93,287.85 0,0 -152.41,63.1 -152.41,63.1 0,0 99.33,239.82 99.33,239.82 0,0 153.44,-63.61 153.44,-63.61 44.67,83.89 97.46,162.72 157.46,235.51 0,0 -116.43,116.43 -116.43,116.43 0,0 6.62,6.64 6.62,6.64 0,0 -2.7,2.72 -2.7,2.72 0,0 183.51,183.49 183.51,183.49 0,0 119.06,-118.98 119.06,-118.98 74.88,61.94 156.26,116.26 242.88,161.89 0,0 -64.69,156.26 -64.69,156.26 0,0 239.78,99.36 239.78,99.36 0,0 64.79,-156.33 64.79,-156.33 89.64,27.65 183.11,46.62 279.37,55.8 0,0 0,164.13 0,164.13 0,0 6.64,0 6.64,0 0,0 0,6.64 0,6.64 0,0 259.59,0 259.59,0 0,0 0,-170.34 0,-170.34 98.47,-9.11 194.07,-28.24 285.69,-56.64 0,0 65.28,157.57 65.28,157.57 0,0 239.78,-99.36 239.78,-99.36 0,0 -65.35,-157.74 -65.35,-157.74 85.54,-45.14 165.96,-98.7 239.96,-159.83 0,0 116.45,116.43 116.45,116.43 0,0 1.97,-1.9 1.97,-1.9 0,0 4.7,4.65 4.7,4.65 0,0 183.48,-183.51 183.48,-183.51 0,0 -120.58,-120.65 -120.58,-120.65 62.2,-74.36 116.87,-155.35 162.86,-241.56 0,0 156.82,64.93 156.82,64.93 0,0 99.38,-239.73 99.38,-239.73 0,0 -155.77,-64.5 -155.77,-64.5 28.9,-91.83 48.52,-187.55 57.96,-286.25 0,0 164.15,0 164.15,0 0,0 0,-0.09 0,-0.09 0,0 3.87,0 3.87,0 0,0 0,-259.52 0,-259.52 0,0 -166.94,0 -166.94,0 -8.68,-99.13 -27.65,-195.25 -55.8,-287.43 0,0 153.35,-63.58 153.35,-63.58 0,0 -99.36,-239.73 -99.36,-239.73 0,0 -152.62,63.19 -152.62,63.19 -45.61,-87.2 -100.04,-169.1 -162.22,-244.45 0,0 116.5,-116.52 116.5,-116.52 0,0 -183.54,-183.51 -183.54,-183.51 0,0 -115.77,115.77 -115.77,115.77 -75.02,-62.93 -156.66,-118.16 -243.7,-164.62 0,0 62.23,-150.3 62.23,-150.3 0,0 -239.78,-99.29 -239.78,-99.29 0,0 -61.78,149.06 -61.78,149.06 -91.78,-28.8 -187.59,-48.43 -286.3,-57.89 0,0 0,-164.12 0,-164.12 0,0 -259.57,0 -259.57,0 0,0 0,2.74 0,2.74 0,0 -2.74,0 -2.74,0 0,0 0,160.56 0,160.56 -99.85,8.94 -196.78,28.24 -289.61,56.97 0,0 -61.36,-148.14 -61.36,-148.14 0,0 -239.82,99.29 -239.82,99.29 0,0 61.48,148.4 61.48,148.4 -85.54,45.11 -165.96,98.78 -239.99,159.9 0,0 -116.46,-116.52 -116.46,-116.52 0,0 -183.53,183.51 -183.53,183.51 0,0 1.97,1.98 1.97,1.98 0,0 -4.69,4.74 -4.69,4.74 0,0 114.22,114.17 114.22,114.17 -62.72,75.44 -117.65,157.5 -163.72,244.94 0,0 -149.62,-61.93 -149.62,-61.93 0,0 -99.34,239.8 -99.34,239.8 0,0 149.71,62.02 149.71,62.02 -27.7,89.69 -46.62,183.19 -55.84,279.4z"/>
   <path class="fil0 str0" d="M1418.94 3378.58c0,0 0,-310.36 0,-310.36 287.71,36.76 515.75,266.49 549.85,554.97 0,0 -309.78,0 -309.78,0 0,0 0,36.69 0,36.69 0,0 -162.83,0 -162.83,0 -14.04,-57.79 -58.89,-103.52 -116.19,-118.82 0,0 0,-162.48 0,-162.48 0,0 38.94,0 38.94,0z"/>
   <path class="fil0 str0" d="M1254.4 3698.21c0,-46.1 37.54,-83.63 83.61,-83.63 46.15,0 83.63,37.54 83.63,83.63 0,46.13 -37.48,83.66 -83.63,83.66 -46.07,0 -83.61,-37.53 -83.61,-83.66z"/>
   <path class="fil0 str0" d="M1264.02 3067.3c0,0 0,311.28 0,311.28 0,0 36.69,0 36.69,0 0,0 0,161.24 0,161.24 -58.73,13.83 -105.18,59.53 -120.25,117.74 0,0 -137.25,0 -137.25,0 0,0 0,-38.91 0,-38.91 0,0 -335.41,0 -335.41,0 36.26,-288.68 266.79,-517.54 556.22,-551.34z"/>
   <path class="fil0 str0" d="M1414.39 4328.88c0,0 0,-310.62 0,-310.62 0,0 -36.71,0 -36.71,0 0,0 0,-162.22 0,-162.22 57.5,-14.48 102.88,-59.53 117.83,-116.83 0,0 163.51,0 163.51,0 0,0 0,38.92 0,38.92 0,0 309.17,0 309.17,0 -36.31,287.75 -265.62,516.05 -553.8,550.74z"/>
   <path class="fil0 str0" d="M707.29 3773.58c0,0 335.93,0 335.93,0 0,0 0,-36.69 0,-36.69 0,0 136.73,0 136.73,0 14.3,58.47 60.14,104.5 118.44,119.15 0,0 0,162.22 0,162.22 0,0 -38.94,0 -38.94,0 0,0 0,310.29 0,310.29 -288.69,-35.78 -517.84,-265.9 -552.16,-554.97z"/>
   <path class="fil0 str0" d="M500.42 3617.33c0,0 -97.93,0 -97.93,0 0,0 0,154.92 0,154.92 0,0 0.02,0 0.02,0 0,0 0,5.63 0,5.63 0,0 97.79,0 97.79,0 5.59,59.22 17.3,116.69 34.58,171.75 0,0 -90.96,37.67 -90.96,37.67 0,0 59.3,143.16 59.3,143.16 0,0 91.57,-38 91.57,-38 26.67,50.11 58.19,97.13 94.01,140.6 0,0 -69.52,69.48 -69.52,69.48 0,0 3.99,3.99 3.99,3.99 0,0 -1.62,1.57 -1.62,1.57 0,0 109.52,109.55 109.52,109.55 0,0 71.07,-71.05 71.07,-71.05 44.67,37.02 93.24,69.39 144.97,96.64 0,0 -38.61,93.23 -38.61,93.23 0,0 143.09,59.3 143.09,59.3 0,0 38.66,-93.24 38.66,-93.24 53.49,16.48 109.29,27.81 166.75,33.28 0,0 0,97.95 0,97.95 0,0 3.96,0 3.96,0 0,0 0,3.99 0,3.99 0,0 154.94,0 154.94,0 0,0 0,-101.69 0,-101.69 58.78,-5.4 115.84,-16.9 170.48,-33.8 0,0 38.99,94.08 38.99,94.08 0,0 143.14,-59.3 143.14,-59.3 0,0 -39.01,-94.15 -39.01,-94.15 51.03,-26.99 99.01,-58.96 143.19,-95.49 0,0 69.53,69.57 69.53,69.57 0,0 1.2,-1.17 1.2,-1.17 0,0 2.77,2.75 2.77,2.75 0,0 109.53,-109.48 109.53,-109.48 0,0 -71.97,-72.04 -71.97,-72.04 37.13,-44.39 69.74,-92.74 97.2,-144.17 0,0 93.61,38.75 93.61,38.75 0,0 59.29,-143.09 59.29,-143.09 0,0 -92.93,-38.52 -92.93,-38.52 17.2,-54.81 28.92,-111.94 34.57,-170.91 0,0 97.95,0 97.95,0 0,0 2.33,0 2.33,0 0,0 0,-154.92 0,-154.92 0,0 -99.65,0 -99.65,0 -5.19,-59.13 -16.48,-116.52 -33.31,-171.5 0,0 91.54,-37.93 91.54,-37.93 0,0 -59.29,-143.19 -59.29,-143.19 0,0 -91.07,37.77 -91.07,37.77 -27.28,-52.09 -59.74,-100.94 -96.85,-145.91 0,0 69.5,-69.48 69.5,-69.48 0,0 -109.55,-109.55 -109.55,-109.55 0,0 -69.08,69.06 -69.08,69.06 -44.79,-37.58 -93.49,-70.54 -145.44,-98.28 0,0 37.13,-89.69 37.13,-89.69 0,0 -143.14,-59.29 -143.14,-59.29 0,0 -36.85,89.03 -36.85,89.03 -54.78,-17.23 -111.94,-28.92 -170.88,-34.62 0,0 0,-97.95 0,-97.95 0,0 -154.92,0 -154.92,0 0,0 0,1.65 0,1.65 0,0 -1.65,0 -1.65,0 0,0 0,95.89 0,95.89 -59.6,5.3 -117.43,16.83 -172.85,34.04 0,0 -36.59,-88.52 -36.59,-88.52 0,0 -143.16,59.29 -143.16,59.29 0,0 36.69,88.61 36.69,88.61 -51.08,26.9 -99.04,58.94 -143.23,95.39 0,0 -69.5,-69.48 -69.5,-69.48 0,0 -109.57,109.48 -109.57,109.48 0,0 1.2,1.24 1.2,1.24 0,0 -2.8,2.72 -2.8,2.72 0,0 68.14,68.14 68.14,68.14 -37.39,45.04 -70.19,94.08 -97.72,146.24 0,0 -89.27,-36.93 -89.27,-36.93 0,0 -59.3,143.09 -59.3,143.09 0,0 89.34,37.02 89.34,37.02 -16.52,53.5 -27.81,109.31 -33.33,166.78z"/>
   <path class="fil0 str0" d="M5637.77 5103.37c188.91,24.11 338.65,174.99 361.06,364.44 0,0 -140.84,0 -140.84,0 -20.24,-112.53 -108.3,-201.63 -220.22,-223.41 0,0 0,-141.03 0,-141.03z"/>
   <path class="fil0 str0" d="M5412.78 5542.44c0,0 68.05,0 68.05,0 2.56,10.42 6.67,20.28 12.06,29.3 0,0 -48.14,48.21 -48.14,48.21 -16.5,-22.37 -27.75,-48.87 -31.97,-77.51z"/>
   <path class="fil0 str0" d="M5481.49 5656.78c0,0 48.15,-48.19 48.15,-48.19 8.89,5.4 18.64,9.53 28.94,12.09 0,0 0,68.17 0,68.17 -28.52,-4.32 -54.8,-15.66 -77.08,-32.06z"/>
   <path class="fil0 str0" d="M5687.37 5657.03c-22.18,16.31 -48.3,27.49 -76.7,31.81 0,0 0,-68.17 0,-68.17 10.17,-2.56 19.76,-6.53 28.57,-11.83 0,0 48.14,48.19 48.14,48.19z"/>
   <path class="fil0 str0" d="M5756.26 5543.92c-4.44,28.33 -15.7,54.31 -32.04,76.35 0,0 -48.09,-48.12 -48.09,-48.12 5.23,-8.69 9.3,-18.12 11.89,-28.24 0,0 68.24,0 68.24,0z"/>
   <path class="fil0 str0" d="M5756.48 5491.92c0,0 -67.98,0 -67.98,0 -2.46,-10.19 -6.34,-19.72 -11.46,-28.5 0,0 48.19,-48.19 48.19,-48.19 16.11,22.18 27.12,48.28 31.25,76.69z"/>
   <path class="fil0 str0" d="M5688.76 5378.06c0,0 -48.07,48.12 -48.07,48.12 -8.73,-5.47 -18.31,-9.62 -28.5,-12.35 0,0 0,-68.24 0,-68.24 28.4,4.48 54.5,15.89 76.57,32.46z"/>
   <path class="fil0 str0" d="M5482.67 5376.56c22.41,-16.29 48.8,-27.39 77.46,-31.46 0,0 0,67.91 0,67.91 -10.43,2.49 -20.24,6.45 -29.27,11.76 0,0 -48.19,-48.21 -48.19,-48.21z"/>
   <path class="fil0 str0" d="M5529.73 5517.09c0,-30.3 24.62,-54.91 54.9,-54.91 30.28,0 54.88,24.6 54.88,54.91 0,30.23 -24.6,54.9 -54.88,54.9 -30.28,0 -54.9,-24.67 -54.9,-54.9z"/>
   <path class="fil0 str0" d="M5412.97 5490.35c4.46,-28.66 15.91,-55.07 32.58,-77.27 0,0 48.07,48.02 48.07,48.02 -5.52,8.94 -9.76,18.8 -12.44,29.25 0,0 -68.21,0 -68.21,0z"/>
   <path class="fil0 str0" d="M5536.04 5102.81c0,0 0,140.77 0,140.77 -113.09,20.05 -202.71,108.63 -224.24,221.19 0,0 -140.98,0 -140.98,0 23.8,-189.57 175.18,-339.84 365.21,-361.95z"/>
   <path class="fil0 str0" d="M5634.77 5931.13c0,0 0,-140.86 0,-140.86 112.27,-20.54 201.17,-108.8 222.64,-220.76 0,0 141,0 141,0 -23.83,188.98 -174.38,338.86 -363.65,361.63z"/>
   <path class="fil0 str0" d="M5170.45 5566.52c0,0 140.84,0 140.84,0 20.4,112.88 109.15,202.22 221.75,223.51 0,0 0,140.93 0,140.93 -189.57,-23.52 -340.03,-174.57 -362.59,-364.44z"/>
   <path class="fil0 str0" d="M5041.68 5414.32c0,0 -134.38,0 -134.38,0 0,0 0,208.18 0,208.18 0,0 134.92,0 134.92,0 14.57,75.02 44.34,144.76 86,205.6 0,0 -96.26,96.31 -96.26,96.31 0,0 147.22,147.24 147.22,147.24 0,0 96.61,-96.64 96.61,-96.64 60.87,41.15 130.3,70.47 204.99,84.79 0,0 0,137.22 0,137.22 0,0 208.25,0 208.25,0 0,0 0,-137.39 0,-137.39 74.53,-14.32 143.82,-43.64 204.52,-84.72 0,0 97.37,97.39 97.37,97.39 0,0 147.24,-147.24 147.24,-147.24 0,0 -97.08,-97.04 -97.08,-97.04 41.47,-60.61 71.15,-129.92 85.77,-204.54 0,0 136.63,0 136.63,0 0,0 0,-208.25 0,-208.25 0,0 -135.77,0 -135.77,0 -14.04,-75.19 -43.35,-144.99 -84.57,-206.19 0,0 95.7,-95.72 95.7,-95.72 0,0 -147.24,-147.24 -147.24,-147.24 0,0 -95.09,95.06 -95.09,95.06 -61.14,-41.9 -131.14,-71.87 -206.54,-86.52 0,0 0,-133.82 0,-133.82 0,0 -208.2,0 -208.2,0 0,0 0,133.3 0,133.3 -74.67,14.18 -144.08,43.33 -204.92,84.22 0,0 -95.82,-95.72 -95.82,-95.72 0,0 -147.24,147.25 -147.24,147.25 0,0 95.13,95.04 95.13,95.04 -42.53,61.94 -72.79,132.91 -87.25,209.43z"/>
   <path class="fil0 str0" d="M765.24 4952.09c0,0 0,-203.79 0,-203.79 188.96,24.18 338.69,174.97 361.11,364.44 0,0 -203.44,0 -203.44,0 0,0 0,24.11 0,24.11 0,0 -106.94,0 -106.94,0 -9.18,-37.93 -38.66,-68 -76.26,-78.09 0,0 0,-106.66 0,-106.66 0,0 25.54,0 25.54,0z"/>
   <path class="fil0 str0" d="M657.24 5162.01c0,-30.31 24.62,-54.91 54.91,-54.91 30.28,0 54.88,24.6 54.88,54.91 0,30.3 -24.6,54.9 -54.88,54.9 -30.28,0 -54.91,-24.6 -54.91,-54.9z"/>
   <path class="fil0 str0" d="M663.56 4747.74c0,0 0,204.35 0,204.35 0,0 24.08,0 24.08,0 0,0 0,105.91 0,105.91 -38.57,9.04 -69.08,39.01 -78.94,77.35 0,0 -90.16,0 -90.16,0 0,0 0,-25.59 0,-25.59 0,0 -220.22,0 -220.22,0 23.83,-189.54 175.2,-339.84 365.24,-362.02z"/>
   <path class="fil0 str0" d="M762.29 5576.05c0,0 0,-203.96 0,-203.96 0,0 -24.11,0 -24.11,0 0,0 0,-106.5 0,-106.5 37.74,-9.43 67.53,-39.08 77.37,-76.66 0,0 107.37,0 107.37,0 0,0 0,25.49 0,25.49 0,0 203.02,0 203.02,0 -23.85,188.96 -174.43,338.85 -363.64,361.63z"/>
   <path class="fil0 str0" d="M297.97 5211.44c0,0 220.57,0 220.57,0 0,0 0,-24.08 0,-24.08 0,0 89.81,0 89.81,0 9.37,38.4 39.46,68.63 77.77,78.23 0,0 0,106.5 0,106.5 0,0 -25.56,0 -25.56,0 0,0 0,203.79 0,203.79 -189.59,-23.52 -340.04,-174.57 -362.59,-364.44z"/>
   <path class="fil0 str0" d="M169.17 5059.41c0,0 -134.36,0 -134.36,0 0,0 0,208.18 0,208.18 0,0 134.94,0 134.94,0 14.3,73.61 43.24,142.11 83.7,202.22 0,0 -95.7,95.63 -95.7,95.63 0,0 147.22,147.24 147.22,147.24 0,0 95.04,-94.99 95.04,-94.99 60.84,41.83 130.42,71.71 205.41,86.45 0,0 0,135.06 0,135.06 0,0 208.23,0 208.23,0 0,0 0,-134.05 0,-134.05 75.61,-14.09 145.86,-43.57 207.31,-85.21 0,0 97.46,97.46 97.46,97.46 0,0 147.25,-147.25 147.25,-147.25 0,0 -97.11,-97.13 -97.11,-97.13 41.43,-60.61 71.1,-129.83 85.75,-204.45 0,0 136.69,0 136.69,0 0,0 0,-208.25 0,-208.25 0,0 -135.74,0 -135.74,0 -14.04,-75.19 -43.31,-145.09 -84.55,-206.28 0,0 95.65,-95.63 95.65,-95.63 0,0 -147.27,-147.24 -147.27,-147.24 0,0 -95.02,95.07 -95.02,95.07 -61.15,-42.07 -131.17,-72.04 -206.58,-86.69 0,0 0,-133.65 0,-133.65 0,0 -208.21,0 -208.21,0 0,0 0,133.23 0,133.23 -75.7,14.25 -146,44.06 -207.41,85.87 0,0 -94.5,-94.48 -94.5,-94.48 0,0 -147.27,147.22 -147.27,147.22 0,0 94.62,94.67 94.62,94.67 -41.66,61.36 -71.29,131.5 -85.56,207.01z"/>
  </g>
 </g>
</svg>
