<?xml version="1.0" standalone="no"?>
<!DOCTYPE svg PUBLIC "-//W3C//DTD SVG 20010904//EN"
 "http://www.w3.org/TR/2001/REC-SVG-20010904/DTD/svg10.dtd">
<svg version="1.0" xmlns="http://www.w3.org/2000/svg"
 width="1024.000000pt" height="1024.000000pt" viewBox="0 0 1024.000000 1024.000000"
 preserveAspectRatio="xMidYMid meet">

<g transform="translate(0.000000,1024.000000) scale(0.100000,-0.100000)"
fill="white" stroke="none">
<path d="M4940 8419 c-180 -11 -498 -77 -685 -141 -650 -223 -1114 -599 -1476
-1193 -157 -259 -290 -614 -352 -945 -13 -69 -23 -126 -22 -128 6 -8 177 12
190 22 9 7 21 46 30 101 36 224 165 586 275 775 186 319 433 610 665 785 294
221 538 343 865 434 343 96 623 118 1005 80 385 -38 800 -185 1121 -399 192
-127 410 -323 541 -485 91 -113 220 -308 299 -455 64 -119 174 -370 174 -399
0 -11 13 -12 68 -7 126 12 133 15 126 45 -26 108 -190 454 -289 611 -294 465
-652 792 -1126 1031 -160 80 -301 129 -559 194 -208 53 -262 61 -485 75 -184
11 -181 11 -365 -1z"/>
<path d="M4980 8083 c-175 -13 -475 -77 -659 -139 -335 -114 -636 -303 -901
-563 -94 -93 -269 -311 -304 -379 -9 -18 -36 -63 -60 -100 -24 -37 -80 -137
-124 -223 -44 -87 -84 -154 -88 -150 -4 3 -4 0 0 -6 4 -7 -20 -95 -53 -195
-62 -188 -81 -254 -81 -275 0 -8 14 -13 36 -13 57 0 218 22 229 32 5 5 4 8 -3
8 -7 0 -12 6 -12 14 0 8 -5 16 -12 18 -9 3 -9 12 2 37 8 21 10 35 3 39 -12 8
-24 52 -14 52 4 0 8 10 8 23 2 37 38 128 47 120 5 -4 6 -2 2 4 -12 21 13 53
39 53 14 0 25 5 25 10 0 6 9 10 20 10 11 0 20 5 20 10 0 6 9 10 20 10 13 0 20
7 20 20 0 11 -4 20 -10 20 -5 0 -10 9 -10 20 0 11 -4 20 -10 20 -5 0 -10 7
-10 15 0 8 5 15 10 15 6 0 10 -7 10 -15 0 -8 5 -15 10 -15 6 0 10 7 10 15 0 8
-5 15 -10 15 -6 0 -15 10 -20 23 -7 17 -9 18 -9 5 -1 -10 -5 -18 -11 -18 -5 0
-10 -6 -10 -13 0 -18 -23 -67 -32 -67 -24 0 109 249 223 419 92 138 289 367
303 353 3 -3 6 2 6 10 0 27 216 206 345 286 117 72 266 146 379 186 104 38
121 42 111 26 -3 -5 0 -10 7 -10 12 0 16 -12 20 -57 1 -8 8 -8 27 -1 14 6 76
20 136 33 74 15 98 23 73 24 -27 1 -38 6 -38 16 0 8 5 15 10 15 6 0 10 7 10
15 0 8 6 15 13 16 6 1 1 5 -13 9 l-25 8 25 3 c74 7 87 6 111 -11 33 -23 75
-35 82 -23 3 5 35 8 70 6 40 -2 81 2 108 11 23 8 47 13 51 10 8 -5 106 15 118
23 2 2 -2 9 -10 14 -12 8 -10 10 8 6 12 -3 22 -1 22 4 0 15 80 11 86 -5 3 -8
16 -13 30 -11 13 1 24 -2 24 -6 0 -5 24 -8 53 -8 30 1 70 -4 91 -11 20 -6 42
-10 49 -7 6 2 -4 9 -23 15 -35 10 -35 10 -6 11 45 1 157 -20 151 -29 -3 -4 2
-11 11 -14 8 -3 12 -2 9 4 -9 14 45 3 158 -32 53 -16 97 -34 97 -40 0 -5 4 -7
8 -4 10 6 74 -15 93 -31 8 -6 33 -16 57 -23 24 -6 46 -18 49 -25 3 -8 8 -13
12 -10 4 2 24 -7 44 -20 20 -14 43 -25 52 -25 8 0 18 -6 21 -14 3 -8 19 -18
34 -21 16 -4 48 -21 72 -39 24 -18 54 -38 66 -45 13 -7 33 -21 45 -31 123
-102 152 -129 149 -143 -1 -8 2 -18 8 -22 6 -4 7 1 3 12 -6 17 -5 17 15 -1 22
-19 31 -43 12 -31 -6 3 -10 -4 -10 -17 0 -19 2 -20 10 -8 8 11 9 9 5 -11 -5
-20 -2 -27 13 -31 23 -6 82 -91 82 -119 0 -10 4 -19 9 -19 4 0 10 42 13 93 5
88 18 141 31 120 3 -5 11 -92 17 -193 13 -213 20 -232 92 -268 39 -19 68 -24
165 -28 140 -6 163 -10 163 -28 0 -13 -151 -36 -240 -36 -50 0 -83 -13 -131
-51 l-39 -31 1 -96 2 -97 7 80 c9 94 24 131 57 140 13 3 21 10 18 15 -9 14 78
10 102 -6 12 -8 29 -14 38 -14 11 0 15 -11 15 -40 0 -36 3 -40 25 -40 20 0 25
-5 25 -24 0 -13 3 -31 6 -40 7 -18 34 -22 34 -5 0 5 5 7 10 4 6 -3 10 1 10 10
0 9 -4 13 -10 10 -6 -4 -10 6 -10 22 l1 28 14 -25 c8 -14 14 -33 15 -42 0 -10
5 -18 10 -18 6 0 9 -3 8 -7 -1 -5 4 -21 10 -36 7 -16 12 -35 12 -43 0 -16 45
-18 125 -7 46 6 47 6 42 38 -5 28 -80 208 -109 260 -59 104 -90 154 -181 292
-157 237 -377 462 -647 661 -29 21 -163 94 -299 162 -223 111 -577 202 -858
220 -151 9 -265 11 -363 3z m1964 -1009 c3 -8 2 -12 -4 -9 -6 3 -10 10 -10 16
0 14 7 11 14 -7z m36 -54 c8 -15 8 -20 -3 -20 -7 0 -13 9 -13 20 0 11 1 20 3
20 1 0 7 -9 13 -20z m49 -85 c3 -17 2 -17 -13 -3 -19 20 -21 31 -3 26 6 -3 14
-13 16 -23z"/>
<path d="M2830 7890 c-29 -29 -26 -74 6 -99 34 -27 50 -26 79 4 33 32 32 68
-1 94 -33 26 -58 27 -84 1z"/>
<path d="M7330 7878 c-25 -28 -25 -48 1 -82 28 -36 64 -34 84 4 20 39 19 56
-7 80 -28 26 -52 25 -78 -2z"/>
<path d="M5628 7853 c6 -2 18 -2 25 0 6 3 1 5 -13 5 -14 0 -19 -2 -12 -5z"/>
<path d="M4928 7813 c7 -3 16 -2 19 1 4 3 -2 6 -13 5 -11 0 -14 -3 -6 -6z"/>
<path d="M4813 7803 c9 -2 23 -2 30 0 6 3 -1 5 -18 5 -16 0 -22 -2 -12 -5z"/>
<path d="M4728 7793 c6 -2 18 -2 25 0 6 3 1 5 -13 5 -14 0 -19 -2 -12 -5z"/>
<path d="M5553 7783 c9 -2 23 -2 30 0 6 3 -1 5 -18 5 -16 0 -22 -2 -12 -5z"/>
<path d="M5608 7773 c7 -3 16 -2 19 1 4 3 -2 6 -13 5 -11 0 -14 -3 -6 -6z"/>
<path d="M5653 7763 c9 -2 23 -2 30 0 6 3 -1 5 -18 5 -16 0 -22 -2 -12 -5z"/>
<path d="M5738 7743 c7 -3 16 -2 19 1 4 3 -2 6 -13 5 -11 0 -14 -3 -6 -6z"/>
<path d="M5847 7713 c-3 -5 19 -29 48 -55 28 -26 52 -41 52 -33 0 8 -4 12 -9
9 -5 -4 -12 3 -15 15 -3 12 -10 21 -15 21 -5 0 -21 9 -34 19 -17 13 -20 21
-12 24 9 4 9 6 1 6 -6 1 -14 -2 -16 -6z"/>
<path d="M4880 7684 c-81 -7 -254 -35 -315 -50 -110 -28 -151 -62 -260 -219
-27 -38 -59 -85 -72 -102 l-24 -33 -30 23 c-26 19 -45 22 -127 25 -108 3 -145
-9 -150 -47 -5 -34 40 -75 109 -101 32 -11 59 -22 59 -24 0 -2 -16 -20 -35
-40 -19 -20 -51 -71 -72 -113 l-38 -77 0 -389 c0 -214 3 -391 7 -393 4 -3 66
2 139 11 72 8 176 18 230 21 l98 7 6 52 c4 29 10 57 14 64 6 9 178 11 712 8
387 -2 731 -5 764 -5 33 -1 101 3 150 9 50 5 129 12 176 16 l87 6 7 283 c4
156 4 300 1 321 -11 56 -48 134 -86 177 -37 42 -36 44 30 73 53 23 90 62 90
95 0 39 -34 51 -136 46 -70 -3 -85 -7 -117 -30 -43 -34 -37 -38 -140 109 -141
202 -170 220 -434 259 -104 15 -538 27 -643 18z m595 -135 c195 -17 219 -31
350 -194 l48 -60 -27 -3 c-15 -2 -93 4 -174 12 -203 22 -441 36 -608 36 -144
0 -523 -31 -627 -51 -32 -7 -60 -9 -63 -7 -6 6 97 152 138 195 37 38 105 56
278 72 219 21 448 21 685 0z m45 -338 c52 -5 157 -15 233 -22 236 -22 161 -32
-195 -27 -375 5 -622 -3 -845 -28 l-152 -17 -131 23 c-71 13 -129 25 -127 26
8 8 169 27 367 44 234 20 669 21 850 1z m-1240 -166 c39 -20 60 -63 60 -122 0
-66 -27 -108 -80 -124 -87 -26 -175 37 -175 127 0 96 110 163 195 119z m1804
0 c67 -32 88 -121 46 -190 -44 -71 -120 -80 -185 -24 -67 59 -71 145 -9 198
40 36 94 41 148 16z m-529 -169 c161 -26 204 -48 191 -99 -10 -40 -90 -121
-148 -149 -102 -50 -187 -61 -468 -62 -153 0 -285 5 -330 12 -100 16 -208 70
-254 125 -32 39 -56 85 -56 107 0 30 120 67 259 80 142 14 690 4 806 -14z
m-1395 -251 c197 -62 274 -91 277 -102 6 -16 -67 -26 -130 -18 -104 13 -169
37 -207 75 -37 37 -60 86 -37 77 7 -2 50 -17 97 -32z m2014 13 c-12 -42 -44
-76 -87 -97 -71 -34 -304 -57 -295 -28 8 22 70 57 137 77 144 41 236 68 244
69 5 0 5 -9 1 -21z"/>
<path d="M6681 7633 c0 -5 17 -21 37 -37 l37 -30 -34 37 c-36 38 -42 42 -40
30z"/>
<path d="M5985 7566 c27 -36 45 -46 45 -25 0 5 -5 7 -11 4 -6 -4 -13 2 -15 12
-3 10 -14 25 -26 32 -16 10 -15 6 7 -23z"/>
<path d="M7636 7575 c-42 -38 -37 -88 14 -137 47 -44 77 -48 110 -13 22 23 22
27 10 71 -16 57 -54 104 -84 104 -13 0 -35 -11 -50 -25z"/>
<path d="M2514 7556 c-40 -40 -44 -80 -13 -120 28 -36 58 -33 107 12 50 46 55
80 17 117 -34 35 -70 32 -111 -9z"/>
<path d="M6805 7520 c10 -11 20 -20 23 -20 3 0 -3 9 -13 20 -10 11 -20 20 -23
20 -3 0 3 -9 13 -20z"/>
<path d="M3808 7499 c-10 -5 -18 -15 -18 -22 0 -7 4 -6 10 3 8 13 10 12 10 -2
0 -10 -4 -18 -10 -18 -5 0 -10 -9 -10 -19 0 -10 -7 -22 -16 -25 -14 -6 -15 -9
-2 -29 10 -15 14 -43 12 -87 l-3 -65 8 53 c5 29 16 64 25 78 22 33 72 63 119
71 27 4 34 8 25 14 -16 11 -70 1 -81 -15 -6 -8 -10 -8 -14 2 -2 6 -14 12 -25
12 -17 0 -18 3 -8 15 10 12 10 15 0 15 -7 0 -10 7 -6 15 6 17 6 17 -16 4z"/>
<path d="M6280 7450 c8 -5 28 -10 43 -10 34 0 62 -14 101 -49 l30 -26 -15 25
c-9 14 -31 32 -50 41 -39 19 -133 36 -109 19z"/>
<path d="M6930 7405 c13 -14 26 -25 28 -25 3 0 -5 11 -18 25 -13 14 -26 25
-28 25 -3 0 5 -11 18 -25z"/>
<path d="M6463 7323 c16 -50 -4 -110 -52 -163 -33 -36 -38 -47 -28 -59 10 -12
12 -12 15 4 2 10 23 35 45 56 40 37 42 41 41 96 -1 76 -5 100 -20 100 -8 0 -8
-9 -1 -34z"/>
<path d="M7073 7245 c35 -44 83 -107 106 -139 22 -33 41 -56 41 -52 0 16 -102
156 -155 211 l-57 60 65 -80z"/>
<path d="M2140 7171 c-13 -55 -32 -115 -42 -132 -21 -35 -73 -60 -173 -85 -38
-9 -74 -20 -78 -24 -4 -4 30 -17 75 -29 120 -33 161 -59 192 -126 15 -29 31
-77 38 -104 11 -51 28 -60 28 -15 0 41 40 147 66 175 14 15 63 40 119 60 52
19 95 37 95 40 0 4 -21 12 -47 19 -69 19 -156 65 -172 91 -7 12 -24 63 -37
112 -36 133 -38 133 -64 18z m40 -235 c-13 -13 -35 7 -25 24 5 8 11 8 21 -1
10 -8 12 -15 4 -23z"/>
<path d="M3800 7189 c0 -9 16 -29 35 -46 44 -40 44 -29 0 21 -20 22 -35 33
-35 25z"/>
<path d="M8063 7148 c-10 -36 -26 -55 -92 -111 l-80 -67 47 -43 c26 -24 66
-61 90 -82 23 -21 42 -44 42 -51 0 -11 47 36 144 143 l29 32 -76 80 c-45 47
-80 93 -84 111 l-8 32 -12 -44z m29 -135 c22 -20 23 -41 2 -64 -15 -17 -19
-17 -45 -3 -35 17 -35 23 -8 58 24 31 27 31 51 9z"/>
<path d="M3460 7169 c0 -5 5 -7 10 -4 6 3 10 8 10 11 0 2 -4 4 -10 4 -5 0 -10
-5 -10 -11z"/>
<path d="M7267 6960 c21 -41 51 -94 66 -117 15 -24 27 -46 27 -51 0 -4 9 -15
20 -25 11 -9 20 -15 20 -13 0 16 -138 245 -163 271 -5 6 8 -24 30 -65z"/>
<path d="M6440 6764 c0 -27 1 -27 16 -8 8 10 13 14 10 8 -3 -7 9 -9 40 -4 61
9 67 20 11 20 -25 0 -52 3 -61 6 -12 5 -16 0 -16 -22z"/>
<path d="M3436 6735 c7 -57 19 -85 37 -85 9 0 9 2 1 8 -7 4 -14 23 -17 42 -3
19 -10 46 -16 60 -9 21 -10 16 -5 -25z"/>
<path d="M6640 6762 c50 -9 83 -24 119 -56 23 -20 23 -20 13 -1 -22 42 -49 57
-114 60 -54 3 -57 3 -18 -3z"/>
<path d="M3480 6626 c0 -2 8 -10 18 -17 15 -13 16 -12 3 4 -13 16 -21 21 -21
13z"/>
<path d="M3568 6583 c7 -3 16 -2 19 1 4 3 -2 6 -13 5 -11 0 -14 -3 -6 -6z"/>
<path d="M3164 6558 c17 -50 18 -54 7 -38 -13 19 -22 10 -14 -18 3 -15 13 -22
29 -22 17 0 22 4 18 15 -8 19 -5 19 75 -1 37 -10 74 -26 84 -37 22 -26 22 -14
0 24 -21 34 -30 39 -113 49 -43 6 -69 15 -78 27 -13 16 -14 16 -8 1z"/>
<path d="M3588 6523 c7 -3 16 -2 19 1 4 3 -2 6 -13 5 -11 0 -14 -3 -6 -6z"/>
<path d="M3489 6499 l-24 -20 28 17 c15 9 27 18 27 20 0 8 -8 4 -31 -17z"/>
<path d="M6865 6440 c-4 -17 -5 -34 -2 -36 2 -3 7 10 11 27 3 18 4 34 2 36 -2
3 -7 -10 -11 -27z"/>
<path d="M2032 6397 c-23 -23 -42 -50 -42 -58 0 -8 20 -34 44 -58 l45 -44 52
50 52 50 -48 52 c-26 28 -51 51 -54 51 -4 0 -26 -19 -49 -43z"/>
<path d="M8340 6424 c-14 -2 -135 -12 -270 -24 -381 -32 -462 -39 -650 -60
-96 -10 -276 -26 -400 -35 -124 -9 -270 -22 -325 -30 -55 -7 -170 -19 -255
-25 -85 -6 -292 -24 -460 -40 -298 -29 -584 -53 -765 -65 -49 -3 -189 -15
-310 -25 -121 -11 -265 -22 -320 -25 -55 -4 -212 -17 -350 -30 -137 -14 -326
-32 -420 -40 -93 -9 -228 -22 -300 -30 -71 -8 -249 -24 -395 -35 -146 -12
-344 -30 -440 -40 -96 -11 -267 -26 -380 -35 -270 -20 -336 -31 -387 -60 -47
-28 -105 -91 -136 -150 -22 -40 -22 -44 -25 -736 l-3 -696 98 13 c54 7 172 18
263 23 91 6 224 18 295 26 190 22 412 44 560 55 424 33 537 43 690 60 94 10
229 24 300 30 72 6 249 21 395 35 146 13 337 29 425 35 88 6 290 22 449 35
299 26 416 35 746 60 357 27 559 45 960 85 267 27 614 57 865 75 288 21 452
43 500 66 22 10 66 42 96 71 43 41 58 64 67 100 9 34 12 240 12 732 l0 686
-52 -1 c-29 -1 -64 -3 -78 -5z m-345 -263 c49 -22 90 -62 119 -116 20 -38 21
-54 24 -410 3 -249 0 -387 -8 -421 -23 -105 -102 -190 -204 -219 -72 -20 -359
-48 -501 -49 -107 -1 -125 2 -168 22 -59 30 -104 92 -117 164 -16 86 3 760 24
823 35 110 120 170 265 186 47 5 140 16 206 23 183 20 312 19 360 -3z m353
-34 c12 -18 22 -42 22 -54 0 -22 -39 -84 -56 -90 -6 -2 -18 16 -28 39 -40 106
7 185 62 105z m-1573 -58 c92 -26 145 -124 145 -269 l0 -76 -131 -18 c-71 -10
-133 -15 -136 -12 -4 4 -9 25 -12 48 -3 23 -14 46 -23 52 -20 12 -322 -17
-363 -36 -54 -24 -56 -37 -55 -316 1 -297 4 -327 36 -349 25 -16 103 -14 304
7 100 11 110 20 110 99 0 103 2 101 -106 94 l-94 -6 0 101 c0 55 -3 107 -6
115 -4 12 5 17 38 22 66 9 442 33 450 28 10 -5 -2 -635 -11 -646 -11 -12 -506
-74 -672 -84 -212 -13 -310 56 -327 230 -4 40 -5 221 -2 402 5 329 5 330 31
385 33 71 70 114 124 146 63 37 88 42 320 64 115 12 215 23 220 25 22 8 122 4
160 -6z m-1540 -134 c123 -32 185 -105 185 -216 0 -40 -7 -79 -19 -105 -23
-50 -75 -110 -111 -129 -25 -13 -29 -12 -52 13 -51 56 -50 55 -23 113 32 70
33 132 3 153 -31 22 -86 20 -125 -4 -68 -41 -63 -139 11 -226 18 -21 52 -70
76 -109 46 -76 82 -123 161 -210 50 -54 52 -55 71 -38 26 23 75 120 83 165 7
39 -16 107 -37 109 -38 4 101 17 189 18 l101 1 -50 -97 c-52 -100 -126 -227
-159 -275 -11 -14 -19 -30 -19 -35 0 -19 157 -171 198 -192 23 -12 42 -25 42
-30 0 -14 -53 -32 -131 -44 l-77 -11 -37 30 c-21 16 -55 42 -76 58 l-38 29
-46 -45 c-116 -114 -306 -156 -455 -99 -91 35 -125 64 -162 138 -31 63 -33 75
-33 168 0 92 3 106 32 170 26 56 50 86 118 150 l84 80 -37 74 c-32 65 -37 84
-36 140 2 134 88 233 227 261 63 12 77 11 142 -5z m-575 -30 c0 -16 -64 -118
-269 -430 l-119 -180 26 -45 c14 -25 98 -147 186 -273 89 -125 165 -234 171
-242 5 -8 6 -17 2 -21 -9 -9 -213 -33 -282 -33 l-50 0 -57 87 c-31 48 -84 125
-118 171 l-61 83 -76 -123 c-42 -68 -91 -152 -110 -185 -18 -34 -39 -66 -46
-72 -13 -11 -325 -47 -334 -39 -4 5 54 101 318 524 49 79 89 145 89 148 0 10
-133 195 -262 366 -65 86 -118 160 -118 163 0 3 19 6 43 6 23 0 97 5 164 12
118 11 124 11 138 -8 8 -10 56 -79 106 -152 51 -73 96 -131 102 -129 5 1 54
77 109 167 55 91 104 168 110 171 5 4 62 12 126 18 65 7 133 16 152 21 52 12
60 11 60 -5z m-1270 -710 c0 -477 -3 -605 -12 -606 -7 0 -70 -6 -139 -12
l-126 -13 -7 73 c-3 39 -3 312 0 605 l6 533 122 11 c66 6 129 12 139 12 16 2
17 -33 17 -603z m-450 446 c0 -75 -4 -122 -11 -126 -17 -11 -292 -44 -425 -51
l-122 -7 0 -107 0 -106 61 7 c34 5 132 17 218 29 85 11 165 20 176 20 19 0 20
-8 26 -117 4 -77 2 -120 -5 -124 -6 -4 -47 -10 -92 -13 -44 -4 -147 -18 -227
-32 -81 -13 -148 -24 -150 -24 -2 0 -3 -110 -1 -244 l4 -243 -54 -6 c-29 -4
-92 -10 -139 -13 l-86 -7 -6 54 c-4 30 -4 300 0 602 l6 547 42 0 c34 0 298 27
705 73 88 10 80 22 80 -112z"/>
<path d="M7610 5899 c-68 -10 -135 -23 -148 -28 -49 -23 -54 -59 -46 -360 4
-156 11 -281 17 -288 12 -17 107 -16 260 1 175 20 161 -10 165 359 3 299 3
302 -19 320 -26 21 -63 20 -229 -4z"/>
<path d="M4975 5258 c-74 -86 -92 -165 -55 -238 34 -67 100 -94 189 -78 51 9
174 86 164 102 -10 16 -130 152 -184 208 -25 26 -53 48 -62 48 -8 0 -32 -19
-52 -42z"/>
<path d="M5289 4973 c-13 -16 -12 -17 4 -4 9 7 17 15 17 17 0 8 -8 3 -21 -13z"/>
<path d="M7465 4650 c-110 -10 -263 -25 -340 -34 -77 -8 -241 -25 -365 -36
-124 -11 -241 -22 -260 -25 -19 -3 -183 -16 -365 -30 -181 -14 -346 -27 -365
-30 -46 -7 -541 -43 -745 -55 -88 -5 -227 -16 -310 -24 -82 -9 -235 -23 -340
-31 -104 -8 -280 -24 -390 -34 -374 -36 -420 -40 -630 -56 -365 -27 -593 -49
-603 -59 -5 -6 58 -116 121 -211 113 -170 323 -400 479 -525 392 -316 909
-547 1311 -586 l67 -7 -20 44 c-15 35 -20 66 -20 149 0 58 -4 100 -8 95 -4 -6
-19 -16 -34 -24 -16 -8 -28 -20 -28 -28 0 -8 -12 -13 -34 -13 -53 0 -340 87
-399 120 -9 6 -39 17 -65 26 -121 40 -441 227 -580 339 -9 7 -46 37 -82 66
-90 72 -210 190 -280 275 l-59 71 77 -4 c108 -6 110 -6 182 -74 301 -280 408
-358 692 -500 124 -62 271 -117 482 -179 71 -21 132 -43 136 -50 4 -7 23 20
48 72 24 48 59 101 84 125 55 53 164 110 228 119 l49 6 -5 87 c-8 133 -21 178
-64 221 -36 36 -134 80 -148 66 -3 -4 4 -9 16 -13 23 -6 29 -18 13 -28 -8 -4
-765 -10 -863 -6 -25 1 -28 5 -28 34 0 18 -5 38 -10 43 -11 11 330 24 635 24
180 0 251 11 325 47 84 43 113 104 130 276 12 124 23 148 38 81 6 -27 14 -82
17 -122 15 -177 69 -249 210 -277 22 -5 245 -7 496 -6 316 2 459 -1 463 -8 13
-20 -15 -89 -38 -95 -33 -9 -918 -5 -946 4 -21 7 -22 8 -5 9 11 1 29 7 40 15
11 7 44 21 73 31 29 9 51 19 49 21 -2 3 -39 -3 -83 -13 -57 -12 -95 -28 -138
-58 -97 -66 -115 -104 -116 -250 l0 -81 73 -21 c39 -12 94 -36 121 -54 60 -40
122 -117 137 -172 7 -23 15 -45 18 -49 8 -9 174 23 311 62 144 39 378 136 500
205 284 160 563 419 769 711 l64 91 81 6 c44 4 81 6 82 4 1 -1 -16 -33 -38
-72 -101 -172 -367 -478 -563 -645 -252 -215 -581 -377 -950 -467 -55 -13
-118 -30 -140 -36 -22 -7 -44 -12 -50 -12 -5 0 -13 -31 -17 -69 -4 -38 -11
-73 -17 -79 -20 -20 -12 -37 18 -37 63 0 282 44 386 77 338 108 591 235 838
421 291 219 509 469 727 832 77 128 198 365 206 403 7 32 28 32 -251 7z m-765
-420 c0 -24 -20 -62 -39 -74 -10 -6 -10 -10 -2 -16 32 -19 -1313 -29 -1363
-10 -16 6 -26 13 -24 16 3 3 2 21 -2 40 -6 26 -5 37 5 41 12 4 696 16 1258 21
161 2 167 1 167 -18z m-1722 -54 l3 -59 -227 6 c-125 4 -386 7 -579 7 -341 0
-353 1 -358 20 -4 16 -1 18 24 13 23 -4 28 -3 24 9 -8 21 14 26 206 39 144 9
775 28 869 25 l35 -1 3 -59z m-1238 -26 c0 -5 -10 -10 -22 -10 -19 0 -20 2 -8
10 19 13 30 13 30 0z m63 -7 c-7 -2 -19 -2 -25 0 -7 3 -2 5 12 5 14 0 19 -2
13 -5z m1157 -434 c0 -7 -10 -9 -24 -7 -14 3 -31 1 -38 -4 -10 -7 -9 -12 6
-23 17 -13 18 -15 3 -15 -9 0 -17 -4 -17 -10 0 -5 10 -10 22 -10 14 0 18 -4
13 -9 -6 -5 -49 -12 -97 -16 -78 -7 -88 -5 -88 9 0 13 -4 15 -19 7 -20 -11
-32 -5 -25 13 2 6 -5 22 -16 34 l-20 22 22 5 c13 3 64 6 113 8 50 2 107 4 128
5 22 1 37 -3 37 -9z m402 -17 c2 -5 48 -12 103 -16 109 -7 123 0 24 14 -56 7
-49 8 59 7 79 -1 125 -6 130 -13 4 -7 16 -14 27 -17 18 -4 18 -5 -2 -6 -32 -1
-29 -19 4 -23 14 -2 28 -8 30 -14 9 -29 -384 -22 -439 7 -18 10 -25 49 -11 62
9 10 71 9 75 -1z"/>
<path d="M5597 3668 c5 -22 29 -48 43 -48 4 0 6 16 6 35 -1 31 -4 35 -28 35
-22 0 -25 -3 -21 -22z"/>
<path d="M7939 4242 l-66 -65 55 -69 c30 -37 60 -68 67 -68 7 0 37 30 67 68
l55 67 -51 62 c-29 34 -54 64 -56 66 -3 2 -35 -25 -71 -61z"/>
<path d="M7088 4093 c-49 -59 -89 -115 -70 -98 13 10 39 41 57 67 35 48 42 64
13 31z"/>
<path d="M7721 3948 c-1 -10 -10 -42 -21 -72 -19 -50 -25 -56 -83 -84 -118
-56 -168 -119 -186 -233 -26 -164 61 -311 212 -358 56 -17 61 -21 77 -62 l17
-44 8 43 c7 41 10 44 71 74 117 57 186 165 187 293 1 108 -68 218 -174 276
-37 21 -47 33 -67 84 -36 93 -41 103 -41 83z m40 -274 c62 -45 77 -74 84 -160
7 -82 -11 -120 -68 -147 -47 -23 -72 -21 -135 8 -62 29 -68 41 -76 154 -7 98
6 131 62 160 53 29 78 26 133 -15z"/>
<path d="M4790 3941 c8 -5 31 -12 50 -15 l35 -7 -34 16 c-37 17 -79 22 -51 6z"/>
<path d="M2506 3791 c-3 -4 -32 -18 -65 -31 -124 -46 -191 -139 -191 -266 0
-81 17 -138 56 -190 54 -71 172 -113 260 -94 112 25 161 62 205 155 73 152 -1
338 -159 394 -31 12 -65 26 -74 31 -22 12 -25 12 -32 1z m45 -131 c68 -19 119
-99 119 -188 0 -109 -112 -165 -227 -113 -54 25 -67 51 -67 136 -1 82 18 126
67 155 36 22 56 24 108 10z"/>
<path d="M2539 3503 c-13 -16 -12 -17 4 -4 16 13 21 21 13 21 -2 0 -10 -8 -17
-17z"/>
<path d="M6707 3690 c-43 -38 -74 -70 -70 -70 9 0 161 139 153 140 -3 0 -40
-31 -83 -70z"/>
<path d="M6519 3543 c-13 -16 -12 -17 4 -4 9 7 17 15 17 17 0 8 -8 3 -21 -13z"/>
<path d="M5023 3446 c-65 -16 -120 -52 -166 -108 -140 -173 -124 -400 36 -529
76 -61 145 -83 241 -77 150 11 252 81 322 222 31 64 36 84 35 139 -1 101 -51
210 -125 275 -47 41 -79 57 -153 76 -71 19 -118 19 -190 2z m205 -110 c41 -21
100 -90 123 -143 21 -49 25 -127 9 -183 -15 -53 -66 -107 -133 -142 -54 -27
-68 -30 -123 -25 -151 12 -245 121 -231 268 10 115 74 207 164 236 46 15 152
9 191 -11z"/>
<path d="M3921 3426 c2 -2 15 -9 29 -15 24 -11 24 -11 6 3 -16 13 -49 24 -35
12z"/>
<path d="M4390 3232 c8 -5 55 -20 105 -32 49 -12 95 -26 102 -32 8 -6 18 -6
29 0 12 7 -12 16 -97 36 -63 15 -123 29 -134 32 -16 4 -17 3 -5 -4z"/>
<path d="M5608 3163 c6 -2 18 -2 25 0 6 3 1 5 -13 5 -14 0 -19 -2 -12 -5z"/>
<path d="M6980 3132 c-46 -45 -51 -76 -19 -128 18 -30 46 -54 64 -54 3 0 26
19 50 41 58 54 60 83 7 139 -22 22 -44 40 -50 40 -6 0 -29 -17 -52 -38z"/>
<path d="M3171 3134 c-18 -14 -36 -35 -42 -46 -14 -26 4 -78 41 -113 l29 -27
36 22 c35 22 65 65 65 94 0 20 -68 96 -85 96 -8 0 -27 -12 -44 -26z"/>
<path d="M3800 2461 c-5 -11 -37 -96 -69 -190 -63 -182 -63 -185 3 -157 24 10
35 22 39 45 6 31 7 31 66 31 63 0 71 -7 71 -56 0 -22 4 -24 49 -24 l50 0 -20
71 c-21 77 -33 102 -87 194 -39 65 -71 105 -83 105 -5 0 -13 -9 -19 -19z m55
-151 c21 -41 19 -50 -15 -50 -24 0 -30 4 -30 21 0 20 17 59 25 59 3 0 11 -13
20 -30z"/>
<path d="M4110 2476 c-1 0 -1 -84 -2 -186 -2 -201 -6 -186 52 -182 20 2 20 8
18 179 l-3 177 -32 7 c-18 3 -33 6 -33 5z"/>
<path d="M4281 2343 c4 -76 7 -159 8 -185 l1 -48 94 0 c62 0 97 -4 102 -12 10
-16 22 17 23 65 l1 37 -64 0 -63 0 -7 38 c-3 20 -6 66 -6 102 0 36 -3 82 -6
103 -6 36 -8 37 -48 37 l-41 0 6 -137z"/>
<path d="M5019 2390 c-1 -47 -4 -95 -7 -108 -6 -20 -10 -16 -35 31 -15 29 -48
76 -73 105 -38 44 -51 52 -80 52 l-34 0 0 -185 0 -185 43 0 43 0 -4 108 c-2
59 -1 104 2 101 3 -3 37 -50 74 -105 61 -89 72 -99 105 -105 20 -3 38 -5 39
-3 2 1 2 85 0 187 l-3 185 -34 4 -35 4 -1 -86z"/>
<path d="M5814 2461 c-51 -23 -74 -55 -74 -103 0 -53 28 -76 121 -104 55 -17
70 -37 46 -61 -14 -15 -20 -15 -62 2 -46 17 -48 17 -73 -2 -15 -11 -27 -26
-27 -34 0 -23 81 -61 131 -61 52 0 87 20 114 65 45 74 12 131 -99 168 -53 18
-62 24 -59 43 4 28 41 33 84 10 41 -22 69 -11 69 27 0 17 -11 30 -40 46 -49
28 -77 28 -131 4z"/>
<path d="M6090 2435 l0 -45 45 0 45 0 0 -144 0 -144 40 1 40 2 0 143 0 144 53
-4 52 -3 -1 38 c-1 21 -3 39 -5 41 -2 2 -64 6 -136 10 l-133 7 0 -46z"/>
<path d="M6442 2336 c5 -102 11 -154 23 -176 35 -68 131 -91 195 -47 60 39 68
66 72 225 l3 143 -40 -3 -40 -3 -3 -125 c-2 -68 -8 -130 -13 -137 -16 -18 -65
-26 -88 -13 -20 10 -21 20 -21 145 l0 135 -47 0 -48 0 7 -144z"/>
<path d="M7252 2299 l3 -181 40 -4 40 -3 1 184 1 185 -44 0 -43 0 2 -181z"/>
<path d="M7522 2463 c-110 -54 -125 -244 -26 -319 36 -28 103 -41 148 -30 32
8 93 60 112 97 23 45 19 149 -8 189 -47 69 -154 99 -226 63z m115 -78 c34 -23
47 -86 29 -130 -21 -49 -56 -63 -101 -42 -58 27 -64 109 -13 164 25 27 54 29
85 8z"/>
<path d="M2644 2393 c3 -42 6 -124 6 -183 l0 -106 93 4 c154 7 207 52 207 178
0 54 -5 77 -23 107 -40 65 -67 77 -186 77 l-104 0 7 -77z m179 -24 c30 -13 47
-48 47 -93 0 -46 -35 -76 -91 -79 l-44 -2 -3 93 -3 92 35 0 c19 0 46 -5 59
-11z"/>
<path d="M3052 2290 c3 -99 7 -183 10 -186 4 -3 58 -2 122 2 l116 7 0 33 0 34
-80 0 -80 0 0 29 c0 34 14 41 81 41 45 0 49 2 49 24 0 34 -18 44 -80 48 -52 3
-55 5 -58 31 l-3 27 81 0 81 0 -3 43 -3 42 -119 3 -119 3 5 -181z"/>
<path d="M3370 2430 c0 -56 0 -55 53 -52 l47 3 0 -94 c0 -52 3 -115 6 -141 6
-44 8 -46 40 -46 l34 0 0 140 0 140 45 0 c48 0 50 3 39 59 l-6 31 -129 0 -129
0 0 -40z"/>
<path d="M4602 2288 l3 -183 31 -3 31 -3 6 113 c4 62 7 146 7 186 l0 72 -40 0
-40 0 2 -182z"/>
<path d="M5271 2448 c-58 -40 -73 -69 -78 -150 -5 -85 11 -124 71 -172 29 -24
46 -30 84 -30 44 1 123 31 136 53 3 4 9 40 12 78 6 68 6 70 -17 76 -13 4 -43
7 -67 7 -35 0 -44 -4 -54 -24 -15 -33 -4 -56 27 -56 34 0 34 -36 0 -52 -21 -9
-32 -8 -60 5 -40 19 -55 49 -55 112 0 36 5 47 32 70 33 28 46 28 105 4 26 -11
34 -10 48 1 42 35 -14 91 -97 98 -44 3 -59 0 -87 -20z"/>
<path d="M6857 2293 c3 -98 6 -178 7 -179 0 -1 42 2 93 5 104 7 133 22 170 87
25 43 29 88 12 149 -22 82 -81 114 -206 115 l-82 0 6 -177z m135 86 c57 -15
86 -87 58 -139 -11 -20 -83 -45 -100 -35 -12 7 -14 185 -2 185 4 0 24 -5 44
-11z"/>
<path d="M2275 2331 c-10 -17 37 -23 124 -16 59 5 80 10 66 16 -28 11 -183 11
-190 0z"/>
<path d="M7980 2330 c0 -5 19 -10 43 -10 31 0 38 3 27 10 -20 13 -70 13 -70 0z"/>
</g>
</svg>
