<?xml version="1.0" standalone="no"?>
<!DOCTYPE svg PUBLIC "-//W3C//DTD SVG 20010904//EN"
 "http://www.w3.org/TR/2001/REC-SVG-20010904/DTD/svg10.dtd">
<svg version="1.0" xmlns="http://www.w3.org/2000/svg"
 width="1024.000000pt" height="1024.000000pt" viewBox="0 0 1024.000000 1024.000000"
 preserveAspectRatio="xMidYMid meet">

<g transform="translate(0.000000,1024.000000) scale(0.100000,-0.100000)"
fill="white" stroke="none">
<path d="M0 5120 l0 -5120 5120 0 5120 0 0 5120 0 5120 -5120 0 -5120 0 0
-5120z m5183 3286 c53 -16 161 -82 286 -174 45 -34 89 -62 97 -62 28 0 62 31
78 70 l16 39 72 -38 c40 -22 98 -44 129 -50 l56 -12 -5 -77 c-4 -69 -2 -79 17
-96 27 -25 146 -65 171 -59 11 3 38 25 60 49 l40 44 48 -33 c26 -19 86 -56
134 -83 49 -27 88 -55 88 -61 0 -7 -12 -34 -27 -61 -34 -61 -27 -92 33 -149
30 -29 44 -51 44 -69 0 -17 6 -28 20 -31 11 -3 20 -11 20 -18 0 -7 6 -17 13
-23 10 -8 12 -2 9 31 -3 23 -9 48 -14 54 -7 9 -2 16 18 24 43 16 83 5 154 -40
35 -23 67 -41 72 -41 4 0 8 -6 8 -14 0 -17 -71 -126 -82 -126 -5 0 -20 8 -35
17 -31 20 -53 25 -53 12 0 -6 -5 -7 -11 -3 -6 3 -9 14 -6 23 3 13 -4 16 -33
16 -28 1 -58 16 -131 65 -103 70 -134 100 -116 112 12 8 8 9 -44 13 -30 2 -81
34 -73 46 3 5 -1 6 -9 3 -8 -3 -20 2 -27 11 -7 8 -18 15 -24 15 -6 0 -22 9
-35 19 -20 16 -22 21 -11 41 11 21 10 22 -9 17 -14 -3 -21 0 -21 10 0 21 -27
47 -33 30 -7 -21 4 -46 24 -52 11 -4 17 -10 14 -15 -3 -4 -44 18 -93 49 -48
31 -102 66 -119 77 -18 10 -80 52 -137 91 -58 40 -136 88 -173 107 -38 19
-122 66 -187 105 -152 90 -213 114 -297 115 -59 0 -74 -5 -160 -48 -52 -27
-125 -67 -164 -91 -38 -23 -110 -63 -160 -90 -49 -26 -153 -89 -230 -140 -77
-50 -162 -105 -188 -121 -45 -27 -280 -179 -519 -336 -57 -38 -125 -84 -151
-104 l-48 -37 -17 24 c-25 35 -85 147 -67 124 9 -11 21 -19 26 -17 5 1 9 -3 9
-9 0 -6 7 -17 15 -25 8 -9 15 -11 15 -5 0 6 6 11 14 11 7 0 19 7 26 15 10 12
10 15 -1 15 -12 0 -12 2 -1 9 11 6 11 17 3 47 -9 34 -8 41 11 61 21 23 13 34
-9 12 -6 -6 -17 -9 -25 -6 -24 9 41 27 81 22 106 -13 136 -10 174 19 50 38 81
89 71 118 -4 13 -7 28 -5 33 1 6 -1 7 -5 3 -6 -6 -54 47 -54 59 0 2 16 11 36
19 20 9 48 23 63 33 106 73 168 111 180 111 8 0 36 -21 63 -46 38 -36 53 -44
71 -38 33 10 143 73 157 89 12 15 10 73 -6 123 -5 19 -3 22 21 22 15 0 65 23
112 50 47 28 87 49 88 48 1 -2 16 -24 34 -50 49 -74 39 -75 181 31 195 146
314 186 443 147z m2702 -45 c4 -28 12 -54 18 -59 15 -12 160 -52 189 -52 12 0
32 10 45 22 l23 21 47 -30 48 -29 -3 -51 c-3 -48 -1 -54 77 -169 l80 -119 19
-136 c11 -75 27 -150 36 -167 22 -43 21 -72 -3 -72 -52 0 -118 -104 -176 -275
-25 -75 -36 -93 -65 -113 -27 -19 -44 -23 -75 -19 -23 4 -84 -3 -145 -16 -116
-24 -109 -16 -94 -104 l5 -33 -101 0 -102 0 4 57 3 57 -70 17 c-91 21 -128 37
-212 92 -59 39 -75 57 -117 128 -27 45 -63 114 -80 153 -29 67 -30 78 -31 201
0 102 4 142 19 185 28 82 73 168 122 233 46 62 55 100 32 137 -17 26 -3 48 46
73 l38 20 33 -39 33 -39 72 25 c109 37 132 54 130 93 -3 58 -5 57 74 57 l74 0
7 -49z m-5280 -101 c171 -54 302 -187 356 -363 18 -59 21 -85 16 -185 -2 -64
-12 -144 -21 -177 -41 -146 -149 -319 -242 -387 -115 -84 -296 -158 -388 -158
-214 0 -409 134 -516 355 -62 127 -104 345 -67 345 17 0 166 -89 340 -203 78
-52 162 -106 186 -121 l43 -28 35 34 c46 44 207 257 234 310 12 23 29 69 39
102 9 34 20 68 24 77 5 10 -2 20 -21 29 -31 16 -213 122 -313 182 -157 95
-205 127 -205 139 0 23 62 49 151 64 118 19 259 13 349 -15z m2588 -192 c32
-16 88 -48 125 -72 37 -23 108 -65 158 -94 50 -28 107 -65 127 -81 30 -23 52
-30 129 -40 163 -20 198 -46 339 -249 l67 -97 140 4 c157 3 194 -6 266 -69 76
-67 93 -146 56 -256 -11 -32 -19 -63 -16 -69 5 -14 212 -312 250 -360 17 -21
54 -73 81 -115 28 -41 92 -134 143 -207 86 -124 132 -201 132 -221 0 -4 -17
-9 -37 -10 -21 -1 -96 -9 -168 -17 -71 -8 -209 -22 -305 -30 -96 -9 -194 -19
-217 -24 -40 -8 -41 -7 -45 21 -3 16 -3 180 0 366 4 299 3 345 -13 397 -20 69
-67 166 -89 184 -24 20 -20 27 27 41 94 28 137 72 137 140 0 80 -54 106 -194
95 -104 -7 -131 -20 -140 -66 -5 -28 -8 -30 -23 -18 -9 8 -53 70 -98 139 -172
261 -173 261 -343 282 -138 16 -972 17 -1125 0 -144 -15 -186 -31 -238 -90
-32 -37 -142 -191 -220 -308 -25 -38 -27 -38 -48 4 -11 22 -31 44 -43 48 -13
4 -66 7 -120 7 -142 -2 -188 -34 -172 -121 11 -58 50 -91 122 -104 34 -6 62
-16 62 -21 0 -5 -8 -21 -18 -35 -28 -41 -70 -142 -87 -210 -14 -54 -16 -125
-12 -512 l3 -449 -40 -5 c-23 -3 -122 -12 -221 -21 -318 -28 -500 -46 -514
-51 -22 -7 -8 232 19 317 25 80 135 283 227 421 38 57 96 144 129 193 33 50
91 140 129 200 37 61 69 112 71 113 7 9 49 -13 74 -39 15 -17 31 -26 34 -20 4
5 -7 19 -24 31 -75 53 -108 174 -76 283 40 138 138 185 350 169 l109 -8 51 66
c28 36 63 81 77 100 45 61 111 121 160 145 48 25 144 45 213 45 28 0 48 7 65
24 37 34 301 203 396 253 88 46 88 46 178 1z m1137 -428 c0 -5 -2 -10 -4 -10
-3 0 -8 5 -11 10 -3 6 -1 10 4 10 6 0 11 -4 11 -10z m-2911 -73 c-13 -13 -26
-21 -29 -19 -5 4 38 42 48 42 3 0 -6 -10 -19 -23z m-309 -77 c28 -59 189 -221
268 -270 28 -17 52 -36 52 -42 0 -6 -12 -24 -26 -42 -14 -17 -75 -107 -136
-201 -60 -93 -128 -195 -151 -225 -23 -30 -42 -57 -44 -59 -2 -2 -26 18 -55
45 -66 62 -170 130 -299 195 -55 27 -98 53 -95 58 3 4 27 16 53 26 193 71 338
261 383 498 7 37 15 67 19 67 4 0 18 -22 31 -50z m2489 30 c71 -6 130 -15 139
-22 19 -16 223 -321 218 -326 -2 -2 -31 4 -64 12 -131 34 -520 65 -817 66
-182 0 -572 -24 -715 -45 -58 -8 -108 -15 -113 -15 -9 0 45 84 137 212 79 111
68 106 240 118 154 11 835 11 975 0z m1486 -46 c3 -20 20 -71 36 -113 67 -171
209 -321 344 -363 39 -12 74 -25 78 -29 5 -4 -20 -24 -55 -45 -85 -51 -230
-156 -300 -216 l-58 -49 -35 55 c-20 31 -48 71 -63 89 -28 32 -183 244 -238
325 l-29 43 127 126 c69 69 137 145 150 169 13 24 26 44 29 44 4 0 10 -16 14
-36z m-1780 -344 c232 -9 465 -30 465 -40 0 -4 -163 -12 -362 -19 -735 -24
-898 -34 -1062 -67 -49 -10 -99 -14 -130 -10 -81 10 -156 28 -156 38 0 16 47
27 252 58 306 47 575 58 993 40z m935 -250 c23 -49 23 -50 5 -91 -11 -22 -33
-52 -50 -65 -39 -29 -123 -59 -193 -69 -49 -6 -52 -5 -52 14 0 33 -28 93 -57
124 l-27 27 30 0 c35 0 212 58 269 88 22 12 43 21 46 22 3 0 16 -22 29 -50z
m-2184 12 c38 -16 115 -41 172 -57 l102 -28 -19 -21 c-24 -25 -51 -87 -51
-116 0 -25 -23 -26 -105 -5 -127 33 -215 100 -215 164 0 19 35 91 44 91 2 0
34 -13 72 -28z m1672 -116 c36 -18 66 -52 54 -60 -6 -3 -302 -8 -659 -9 -356
-2 -657 -5 -668 -8 -31 -6 -31 32 0 61 38 36 103 39 718 34 425 -3 534 -7 555
-18z m-2835 -202 c40 -25 73 -48 75 -49 2 -2 -14 -38 -36 -81 -80 -159 -127
-354 -138 -571 l-7 -123 -69 0 c-52 0 -72 -4 -86 -18 -10 -10 -25 -21 -33 -24
-21 -8 -554 9 -699 23 -130 12 -160 20 -160 44 0 8 8 18 18 24 33 17 520 65
795 77 l156 7 -5 31 c-3 17 -8 37 -10 44 -7 23 16 209 32 259 8 26 24 100 34
163 41 254 44 270 53 255 4 -8 40 -35 80 -61z m2815 25 l-23 -42 -560 -5
c-360 -3 -562 -8 -566 -14 -11 -17 -28 0 -54 53 l-25 49 626 0 625 0 -23 -41z
m1616 -4 c-9 -14 -19 -23 -22 -20 -5 4 26 45 35 45 2 0 -4 -11 -13 -25z m136
-195 c11 -47 25 -97 31 -112 l11 -27 98 6 97 6 7 -27 c10 -42 25 -213 26 -293
l0 -72 33 -5 c17 -3 77 -8 132 -11 55 -3 136 -10 180 -15 44 -5 150 -14 235
-20 156 -11 205 -23 205 -50 0 -34 -70 -42 -412 -48 l-333 -5 0 -85 c0 -80 2
-88 27 -114 l27 -28 -33 -34 c-32 -33 -29 -55 6 -42 9 4 247 9 530 13 l515 6
-4 -29 -3 -29 -170 -6 c-247 -10 -978 -10 -987 -1 -11 11 -24 518 -16 626 3
50 4 108 1 129 l-6 38 -100 -7 c-55 -4 -107 -7 -115 -8 -9 -1 -22 21 -34 58
-11 32 -55 113 -99 179 -43 66 -79 123 -79 127 0 3 12 17 26 31 24 22 26 23
35 6 6 -9 14 -15 20 -12 5 3 16 2 26 -3 21 -13 63 5 63 27 1 27 39 -80 60
-169z m-3353 115 c37 -10 73 -62 73 -104 0 -42 -25 -72 -74 -91 -96 -36 -191
102 -120 173 34 34 61 39 121 22z m2112 -30 c35 -40 37 -52 17 -99 -38 -91
-157 -101 -201 -16 -23 45 -18 69 24 111 33 34 45 39 84 39 39 0 49 -5 76 -35z
m1909 -12 c36 -27 62 -71 62 -105 -1 -36 -35 -102 -65 -126 -64 -50 -174 -9
-209 77 -27 69 4 138 78 172 49 22 87 17 134 -18z m-5890 7 c39 -24 72 -75 72
-113 0 -43 -40 -117 -74 -138 -43 -26 -85 -24 -134 8 -90 58 -95 166 -13 236
40 33 101 36 149 7z m3402 5 c0 -13 -40 -84 -51 -91 -7 -4 -226 -6 -487 -6
l-475 1 -29 45 c-15 25 -28 47 -28 48 0 2 241 4 535 6 294 2 535 0 535 -3z
m270 -389 c0 -13 -3 -37 -6 -54 l-6 -30 -217 -6 c-251 -7 -461 -21 -651 -41
-74 -8 -211 -19 -305 -25 -93 -6 -208 -15 -255 -20 -47 -6 -98 -10 -115 -10
l-30 0 0 88 c1 48 2 95 3 105 2 16 47 17 792 17 l790 0 0 -24z m1249 -215
c170 -53 268 -175 279 -346 10 -172 -75 -331 -223 -414 -63 -35 -155 -70 -218
-82 -119 -22 -286 38 -375 136 -74 81 -96 144 -96 280 -1 104 1 114 31 178 60
127 173 218 311 251 85 21 218 20 291 -3z m-845 -94 c42 -20 76 -38 76 -41 0
-2 -15 -22 -32 -44 -18 -22 -40 -53 -49 -70 l-17 -30 -58 20 c-78 27 -199 22
-261 -10 -109 -56 -157 -137 -158 -264 0 -69 3 -80 30 -119 17 -24 50 -57 73
-74 37 -25 55 -30 117 -33 85 -5 182 18 187 45 2 9 1 36 -1 60 l-3 43 -77 -6
-76 -6 -1 89 -2 90 92 7 c50 3 129 9 176 12 l86 7 3 -225 2 -224 -74 -18 c-41
-10 -79 -16 -85 -12 -6 3 -44 -5 -86 -19 -139 -47 -301 -26 -403 52 -61 47
-77 66 -113 134 -65 126 -61 269 10 416 48 97 111 156 227 210 99 46 133 53
245 49 86 -3 104 -6 172 -39z m-1414 -68 c0 -6 -13 -28 -28 -48 -16 -20 -53
-72 -82 -116 -69 -104 -169 -244 -193 -272 -19 -21 -19 -22 25 -80 108 -146
229 -292 268 -326 l44 -37 -50 0 c-27 0 -98 -7 -159 -15 -141 -19 -146 -19
-116 4 29 22 24 33 -63 141 -34 41 -68 86 -77 100 l-16 24 -75 -115 c-92 -140
-98 -151 -98 -183 0 -24 -4 -26 -42 -26 -24 0 -88 -7 -142 -15 -55 -8 -102
-15 -104 -15 -3 0 4 10 15 23 11 12 65 87 120 167 55 80 127 183 161 229 l61
84 -22 27 c-12 16 -91 107 -175 204 l-153 176 68 1 c37 0 99 3 136 8 64 7 69
6 77 -14 8 -20 177 -238 189 -243 3 -1 28 35 56 80 27 46 62 102 78 125 22 31
28 48 23 67 -6 25 -4 26 36 27 24 0 79 6 123 13 106 18 115 18 115 5z m-1011
-101 c-8 -14 -9 -47 -5 -97 3 -42 6 -188 7 -326 1 -137 5 -297 8 -355 4 -58 7
-106 7 -106 -2 -4 -232 -21 -235 -18 -2 2 2 12 10 21 12 15 14 80 9 428 -4
226 -10 420 -14 433 -8 21 -6 22 55 23 35 0 82 4 104 8 66 14 67 14 54 -11z
m1408 -4 c102 -76 89 -166 -38 -263 -24 -18 -45 -38 -46 -45 -1 -6 25 -35 58
-64 71 -62 81 -60 100 24 l12 54 51 -1 c28 -1 61 -4 74 -7 22 -7 22 -9 -31
-98 l-53 -90 58 -47 59 -46 -33 -17 c-18 -9 -44 -25 -57 -36 l-25 -19 -37 37
-38 37 -64 -42 c-180 -117 -382 -55 -395 119 -5 71 13 107 90 174 l51 45 -26
59 c-32 70 -33 84 -8 138 19 41 65 84 111 103 42 18 155 8 187 -15z m-1717
-103 l0 -89 -32 -6 c-61 -11 -362 -46 -395 -46 l-33 0 0 -95 c0 -52 4 -95 9
-95 19 0 327 41 349 47 22 5 22 4 22 -89 l0 -95 -67 -11 c-38 -6 -123 -16
-190 -23 l-122 -12 6 -177 6 -177 -69 -7 c-38 -3 -96 -9 -129 -12 l-60 -6 22
23 c21 24 21 31 25 424 3 368 2 403 -14 428 -10 14 -18 29 -18 32 0 3 19 5 43
5 41 0 567 56 597 64 49 12 50 11 50 -83z m-947 -130 c1 -88 -1 -162 -4 -165
-3 -3 -53 -2 -110 4 -57 6 -201 14 -321 19 -194 8 -221 12 -267 33 -28 12 -51
26 -51 29 0 4 -16 23 -36 43 l-37 37 -184 14 c-101 8 -192 19 -203 25 -25 13
-16 35 18 48 50 20 511 56 997 78 77 4 149 10 160 14 13 5 23 3 28 -6 5 -8 9
-86 10 -173z m6477 119 c6 -11 10 -53 8 -93 l-3 -72 -105 -6 c-58 -4 -115 -10
-127 -14 -18 -6 -23 -3 -29 20 -8 31 0 153 11 163 6 6 49 10 207 20 18 1 31
-5 38 -18z m-1255 -222 c55 -6 121 -11 147 -12 74 -2 43 -14 -67 -26 -55 -6
-116 -14 -135 -18 l-35 -8 -3 -68 c-2 -49 1 -72 10 -78 7 -4 173 -7 368 -6
371 2 405 -1 398 -40 -5 -25 -60 -39 -199 -51 -68 -6 -191 -18 -274 -27 -82
-8 -193 -18 -245 -22 l-94 -7 -7 -40 c-13 -76 -24 -92 -66 -98 -21 -4 -65 -7
-97 -7 -33 0 -99 -5 -146 -11 -75 -10 -91 -9 -118 5 -36 18 -43 51 -14 60 11
4 90 13 177 21 104 9 161 19 167 27 17 26 26 87 38 248 7 91 14 169 17 173 3
5 21 6 42 2 20 -3 81 -11 136 -17z m-5215 -265 c0 -97 -4 -103 -66 -103 -139
0 -686 62 -796 91 -37 10 -49 31 -26 45 25 16 149 21 511 23 l377 1 0 -57z
m4195 -248 c-16 -13 -66 -47 -110 -75 -44 -27 -105 -68 -135 -89 -72 -52 -416
-276 -550 -359 -58 -36 -166 -104 -240 -152 -383 -248 -639 -390 -702 -390
-30 0 -183 73 -285 136 -191 119 -294 185 -543 349 -151 100 -310 204 -353
232 l-79 51 64 10 c67 12 254 32 533 57 94 8 238 22 320 30 83 8 209 19 280
25 121 10 637 67 819 90 44 5 129 14 190 20 139 13 337 35 531 60 134 18 172
22 265 28 l25 2 -30 -25z m330 -159 c30 -25 76 -57 102 -72 26 -15 80 -50 120
-76 101 -67 212 -124 280 -144 75 -21 83 -30 36 -39 -21 -3 -74 -23 -118 -44
-66 -31 -96 -53 -168 -127 -109 -110 -154 -198 -194 -371 -3 -13 -8 -23 -12
-23 -3 0 -24 28 -45 62 -74 115 -229 261 -479 447 -55 42 -102 81 -104 86 -4
15 170 108 183 98 7 -4 58 -42 115 -83 57 -41 149 -116 205 -166 56 -51 116
-101 134 -112 32 -20 32 -20 56 0 l23 21 -20 26 c-12 14 -34 55 -50 90 -38 84
-105 171 -146 187 -17 8 -54 27 -82 44 -29 16 -74 37 -101 46 l-50 16 44 34
c69 52 200 143 209 143 4 1 32 -19 62 -43z m-3545 -311 c-19 -17 -69 -57 -110
-90 -267 -211 -398 -342 -472 -472 -35 -62 -48 -73 -48 -41 0 45 -39 159 -70
205 -98 144 -253 273 -387 322 l-76 28 54 18 c30 10 94 35 143 56 97 42 159
53 381 64 66 4 151 10 190 15 71 9 93 6 59 -7 -10 -4 -48 -25 -84 -46 -36 -22
-92 -53 -125 -68 -37 -17 -82 -50 -117 -86 l-58 -59 19 -34 c10 -19 25 -38 33
-44 28 -17 92 11 166 73 39 32 115 90 169 129 84 60 163 139 163 163 0 4 46
-16 103 -44 l102 -52 -35 -30z m4495 -110 c153 -39 276 -136 367 -291 46 -78
88 -201 88 -257 0 -27 -2 -29 -26 -23 -15 4 -97 47 -183 95 -86 48 -204 113
-262 144 l-107 55 -50 -51 c-28 -29 -78 -94 -111 -145 -68 -103 -171 -289
-171 -307 0 -23 90 -85 385 -268 133 -82 143 -91 125 -112 -42 -51 -233 -87
-351 -68 -136 23 -300 109 -379 201 -88 102 -135 240 -124 367 8 97 44 246 74
306 66 128 218 276 338 326 95 40 285 54 387 28z m-4379 -47 c-11 -15 -16 -18
-16 -7 0 16 21 42 28 34 2 -2 -3 -14 -12 -27z m2776 11 l41 -21 -44 -25 c-24
-14 -52 -33 -61 -41 -24 -20 -23 -63 3 -96 11 -14 19 -33 17 -42 -2 -9 -61
-52 -133 -95 l-130 -79 -35 40 c-19 22 -43 40 -53 40 -10 0 -61 -20 -112 -44
l-94 -45 -4 -43 c-3 -24 -6 -54 -6 -67 0 -13 -4 -27 -8 -32 -10 -9 -211 -69
-234 -69 -18 0 -33 26 -23 41 3 5 0 9 -6 9 -7 0 -23 9 -37 20 -41 32 -35 34
-225 -73 -122 -67 -185 -87 -283 -87 -100 0 -124 8 -247 81 -202 121 -215 123
-253 49 -14 -27 -30 -50 -36 -50 -5 0 -27 9 -48 20 -22 11 -72 31 -113 44
l-73 25 3 53 c4 66 -17 97 -88 129 -28 13 -50 29 -50 38 0 12 3 12 12 3 7 -7
20 -12 30 -12 10 0 18 -4 18 -10 0 -5 6 -10 13 -10 8 0 22 -9 32 -20 10 -11
23 -20 28 -20 6 0 2 9 -8 20 -10 11 -13 20 -7 20 7 0 12 5 12 10 0 6 -7 10
-15 10 -18 0 -20 17 -2 23 8 3 7 10 -7 26 -11 11 -16 21 -13 21 9 0 78 -41
113 -67 17 -13 34 -23 38 -23 3 0 35 -18 69 -40 35 -22 88 -50 118 -64 30 -13
104 -52 164 -85 143 -79 216 -103 325 -103 66 -1 102 5 160 25 100 34 266 114
370 180 154 96 696 426 715 435 6 2 -6 -10 -25 -28 -19 -18 -29 -29 -21 -25
10 6 12 4 7 -4 -5 -7 -13 -10 -20 -8 -22 9 -53 -27 -49 -56 3 -19 -1 -27 -12
-27 -8 0 -15 7 -15 15 0 19 -14 19 -30 0 -7 -8 -17 -12 -22 -9 -5 3 -17 -1
-26 -9 -17 -14 -46 -28 -71 -33 -36 -7 -39 -48 -5 -61 10 -4 29 -20 44 -36 24
-27 28 -29 51 -17 13 7 36 26 51 42 14 15 33 28 42 28 9 0 16 8 16 20 0 13 7
20 20 20 13 0 20 7 20 20 0 17 7 20 40 20 22 0 40 5 40 10 0 6 7 10 15 10 9 0
15 9 15 23 0 13 12 34 26 48 18 17 24 31 22 51 -5 34 1 34 54 7z m-4114 -10
c109 -26 214 -76 275 -129 62 -55 165 -198 194 -272 13 -32 31 -93 39 -134 28
-149 14 -234 -57 -344 -170 -263 -485 -343 -778 -198 -68 34 -104 60 -172 128
-73 73 -90 96 -117 162 -47 112 -61 239 -39 349 32 163 121 294 262 384 122
79 231 93 393 54z m1388 -90 c3 -6 -5 -3 -20 6 -14 10 -26 19 -26 22 0 7 39
-17 46 -28z m248 -8 c-2 -3 -12 3 -22 13 -16 17 -16 18 5 5 12 -7 20 -15 17
-18z m-235 -74 c-5 -20 -14 -37 -19 -37 -13 0 -13 4 7 45 21 43 26 40 12 -8z
m-18 -55 c-24 -8 23 -31 64 -32 30 0 36 -3 25 -10 -14 -9 -7 -14 14 -11 4 1
14 -4 22 -10 11 -9 14 -8 14 4 0 9 14 22 30 31 17 8 30 10 30 5 0 -13 78 -11
82 3 3 7 14 2 29 -13 14 -13 34 -29 45 -35 16 -10 15 -11 -12 -7 -28 4 -35 0
-63 -41 -33 -47 -40 -52 -56 -37 -12 11 -96 57 -193 105 -60 30 -71 40 -62 51
6 8 19 11 28 8 11 -5 12 -8 3 -11z m3029 -247 c55 -49 42 -140 -24 -172 -73
-34 -165 28 -151 101 7 40 31 75 58 86 31 14 95 5 117 -15z m-3281 -11 c26
-21 31 -33 31 -69 0 -36 -5 -48 -31 -69 -41 -35 -81 -37 -131 -8 -42 24 -53
62 -33 107 32 67 109 85 164 39z m253 -369 l87 -7 3 -61 3 -62 49 -26 c27 -15
66 -32 87 -39 36 -12 41 -12 63 9 14 13 30 36 36 52 l13 29 26 -26 c14 -15 42
-38 61 -52 19 -14 47 -36 61 -49 l26 -24 -50 -49 c-55 -55 -55 -50 -1 -167
l33 -73 70 0 70 0 8 -37 c4 -21 7 -65 8 -98 l0 -60 -40 -2 c-22 -1 -56 -2 -75
-2 -19 -1 -40 -5 -47 -9 -7 -4 -20 -41 -29 -82 -9 -41 -18 -85 -21 -96 -3 -15
6 -32 32 -58 31 -31 35 -41 30 -67 -7 -31 -109 -149 -129 -149 -7 0 -30 18
-51 40 -21 22 -46 40 -55 40 -23 0 -117 -57 -134 -82 -12 -16 -14 -35 -10 -74
6 -48 5 -51 -17 -57 -13 -4 -56 -7 -96 -7 l-72 0 -5 43 c-3 23 -7 55 -8 72 -3
28 -7 31 -86 53 l-84 24 -24 -23 c-14 -13 -32 -44 -41 -70 l-17 -48 -23 24
c-13 12 -47 32 -76 44 -35 14 -60 33 -76 57 -13 19 -41 47 -62 62 -61 43 -61
48 17 105 79 57 78 55 53 134 -38 121 -35 117 -114 123 l-70 5 -9 72 c-12 100
-10 103 73 103 l69 0 12 38 c7 20 23 63 36 94 13 32 24 64 24 72 0 8 -29 39
-64 68 l-65 53 22 23 c28 30 165 122 180 122 7 -1 25 -21 41 -46 16 -25 35
-48 43 -51 19 -8 162 56 173 78 6 10 10 43 10 74 0 52 1 55 23 51 12 -3 61 -8
109 -11z m4957 -71 c19 -14 22 -23 18 -53 -3 -20 -8 -45 -11 -56 -4 -12 -1
-28 9 -40 l15 -20 16 20 c11 14 14 37 12 78 -2 48 -1 55 10 40 6 -9 12 -39 12
-65 0 -39 -5 -54 -25 -73 -32 -33 -50 -31 -65 5 -12 29 -37 50 -59 50 -6 0
-11 -16 -11 -35 0 -19 -4 -35 -9 -35 -4 0 -11 41 -14 91 -3 50 -8 93 -10 95
-2 3 -17 0 -32 -6 -27 -10 -27 -12 -23 -78 3 -37 8 -75 13 -84 4 -11 3 -18 -4
-18 -20 0 -41 59 -41 114 0 45 4 58 22 70 31 22 146 22 177 0z m-3588 -14
c122 -37 199 -108 236 -216 23 -69 15 -205 -17 -268 -30 -59 -115 -138 -205
-190 -36 -21 -65 -41 -65 -44 0 -11 253 -317 265 -320 17 -4 62 102 73 173 6
34 6 81 2 110 -5 28 -9 56 -9 63 -1 9 28 12 110 12 l112 0 -5 -112 c-4 -97
-10 -125 -37 -196 -18 -45 -50 -108 -71 -139 -45 -67 -44 -70 32 -138 134
-119 291 -136 417 -44 23 16 43 29 46 29 13 0 -10 -90 -36 -141 -34 -68 -71
-101 -144 -128 -137 -51 -281 -7 -450 139 -25 22 -49 40 -52 40 -4 0 -34 -26
-67 -59 -128 -122 -287 -165 -470 -126 -159 34 -291 164 -331 326 -25 102 -17
229 19 303 38 77 106 149 202 212 46 30 86 59 89 64 3 6 -12 40 -34 77 -59
100 -74 146 -74 238 0 113 28 183 103 257 46 45 71 61 121 77 82 26 160 26
240 1z m1344 -40 c50 -8 275 -104 275 -117 0 -11 -116 -138 -125 -136 -5 1
-39 14 -75 30 -58 25 -76 28 -175 28 -100 0 -116 -3 -173 -29 -128 -59 -202
-196 -189 -350 14 -164 114 -289 255 -316 56 -10 206 11 237 34 12 9 18 34 22
94 l6 82 -32 -11 c-29 -10 -214 -10 -224 1 -2 3 -7 49 -10 103 l-5 97 321 -2
322 -3 3 -80 c2 -44 0 -91 -3 -104 -6 -23 -8 -24 -82 -17 l-75 7 2 -158 c4
-243 10 -221 -57 -227 -32 -4 -77 -10 -99 -15 l-42 -8 -6 39 -6 39 -29 -20
c-37 -27 -131 -51 -197 -51 -194 0 -379 111 -462 278 -34 70 -37 83 -46 213
-8 121 -7 147 8 201 40 143 149 275 280 338 45 21 106 43 136 49 30 6 64 13
75 15 39 7 111 6 170 -4z"/>
<path d="M6270 7704 c0 -11 29 -34 34 -26 2 4 -4 13 -15 20 -10 7 -19 10 -19
6z"/>
<path d="M6590 7480 c0 -6 7 -10 15 -10 8 0 15 2 15 4 0 2 -7 6 -15 10 -8 3
-15 1 -15 -4z"/>
<path d="M3516 7425 c-11 -8 -15 -15 -9 -15 6 0 16 7 23 15 16 19 11 19 -14 0z"/>
<path d="M7653 8122 c-32 -31 -69 -76 -83 -100 l-25 -44 -70 4 -70 3 3 -88 3
-87 -50 -57 c-28 -31 -51 -60 -51 -64 0 -3 18 -29 41 -57 45 -58 59 -95 59
-164 l0 -48 85 0 85 0 0 -60 c0 -49 3 -62 18 -67 9 -3 36 -21 59 -40 57 -46
81 -43 136 16 l45 49 32 -33 c18 -18 47 -41 64 -50 33 -18 33 -18 80 14 l47
32 -7 76 c-8 90 -3 96 70 77 74 -20 82 -18 101 24 9 20 36 76 61 124 24 48 44
92 44 97 0 6 -23 25 -50 42 -60 37 -67 58 -50 140 10 46 10 66 1 86 -11 24
-14 25 -59 18 -26 -5 -65 -9 -87 -9 -34 -1 -40 2 -43 21 -2 14 7 33 23 49 29
29 27 54 -5 54 -12 0 -51 12 -88 27 -60 23 -70 25 -109 14 -42 -11 -46 -10
-98 24 l-54 34 -58 -57z m602 -395 c40 -37 44 -45 31 -56 -8 -7 -31 -11 -52
-9 -31 2 -39 8 -47 31 -8 26 3 77 17 77 2 0 25 -19 51 -43z"/>
<path d="M6896 5705 c-65 -18 -115 -60 -149 -126 -24 -47 -27 -63 -25 -129 3
-66 7 -81 36 -122 22 -33 48 -55 87 -74 49 -23 64 -26 124 -22 182 13 298 171
250 341 -13 49 -63 105 -114 128 -47 22 -137 23 -209 4z"/>
<path d="M5115 5515 c-14 -13 -25 -30 -25 -38 0 -17 57 -97 68 -97 5 0 27 17
50 38 46 43 54 78 24 105 -28 26 -88 22 -117 -8z"/>
<path d="M5061 5226 c-56 -58 -62 -128 -14 -166 55 -43 118 -34 172 24 l24 26
-75 74 -76 74 -31 -32z"/>
<path d="M4685 4309 c-19 -17 -38 -41 -41 -54 -11 -46 53 -125 102 -125 13 0
39 14 59 31 28 25 35 38 35 69 0 31 -7 44 -40 74 -49 44 -69 45 -115 5z"/>
<path d="M5429 4308 c-35 -38 -38 -79 -9 -125 23 -38 73 -67 101 -58 11 4 33
33 50 67 36 71 31 95 -23 128 -49 29 -84 26 -119 -12z"/>
<path d="M5057 4280 c-41 -36 -62 -80 -53 -115 7 -28 95 -125 113 -125 6 0 34
25 62 56 43 47 51 62 51 94 0 32 -7 47 -38 80 -49 51 -86 53 -135 10z"/>
<path d="M4353 3801 c-24 -19 -36 -48 -26 -64 4 -6 8 -24 10 -40 5 -49 62 -79
64 -34 1 12 1 25 0 29 0 3 13 12 30 20 44 19 37 55 -17 83 -38 20 -43 21 -61
6z"/>
<path d="M4475 3730 c-3 -5 -1 -10 4 -10 6 0 11 5 11 10 0 6 -2 10 -4 10 -3 0
-8 -4 -11 -10z"/>
<path d="M2223 3915 c-203 -44 -322 -236 -279 -445 27 -126 84 -196 206 -254
61 -29 72 -31 180 -31 105 0 120 3 171 28 109 53 208 192 225 315 20 155 -121
342 -291 387 -71 18 -129 18 -212 0z"/>
<path d="M3665 2966 c-110 -35 -192 -121 -221 -229 -51 -192 32 -368 201 -428
218 -77 419 54 433 282 6 102 -15 171 -77 251 -65 85 -132 124 -226 132 -45 3
-84 1 -110 -8z"/>
<path d="M8660 3160 c0 -28 2 -30 28 -24 35 9 46 19 39 38 -4 10 -18 16 -37
16 -27 0 -30 -3 -30 -30z"/>
<path d="M4974 3016 c-50 -22 -78 -70 -82 -143 -4 -56 0 -71 27 -126 17 -34
40 -73 50 -87 l20 -25 48 25 c77 41 138 107 152 168 20 83 -1 145 -62 182 -37
23 -107 26 -153 6z"/>
<path d="M4860 2363 c-110 -83 -146 -138 -156 -242 -6 -53 -3 -67 21 -116 46
-95 159 -154 268 -142 80 10 237 94 237 128 0 5 -16 24 -36 41 -20 18 -63 68
-97 112 -49 66 -125 159 -191 233 -9 10 -19 6 -46 -14z"/>
</g>
</svg>
