<?xml version="1.0" standalone="no"?>
<!DOCTYPE svg PUBLIC "-//W3C//DTD SVG 20010904//EN"
 "http://www.w3.org/TR/2001/REC-SVG-20010904/DTD/svg10.dtd">
<svg version="1.0" xmlns="http://www.w3.org/2000/svg"
 width="1024.000000pt" height="1024.000000pt" viewBox="0 0 1024.000000 1024.000000"
 preserveAspectRatio="xMidYMid meet">

<g transform="translate(0.000000,1024.000000) scale(0.100000,-0.100000)"
fill="white" stroke="none">
<path d="M8 10138 c-7 -248 3 -1258 12 -1258 6 0 10 9 10 21 0 15 5 20 22 18
13 -2 29 0 36 4 7 5 12 3 12 -7 0 -12 10 -16 40 -16 27 0 40 4 40 13 0 14 -40
37 -65 37 -8 0 -15 4 -15 9 0 17 25 19 43 2 17 -15 18 -14 13 14 -4 17 -3 24
0 18 3 -7 15 -13 26 -13 15 0 18 5 13 20 -4 12 -2 20 5 20 7 0 9 8 5 20 -5 17
-2 20 24 20 17 0 31 5 31 10 0 6 -7 10 -15 10 -19 0 -19 7 2 28 12 12 18 13
21 4 8 -26 22 -10 22 28 0 36 8 49 22 35 3 -3 2 -23 -2 -45 -4 -22 -3 -40 1
-40 5 0 9 -7 9 -15 0 -8 -7 -15 -15 -15 -8 0 -15 -4 -15 -10 0 -5 8 -10 19
-10 10 0 24 -7 31 -15 17 -21 31 -9 24 21 -5 20 -2 24 15 24 12 0 21 5 21 10
0 6 -9 10 -20 10 -11 0 -20 5 -20 10 0 6 9 10 20 10 11 0 20 5 20 10 0 6 -13
10 -30 10 -16 0 -30 5 -30 10 0 6 26 10 58 10 67 0 78 6 88 44 5 20 9 24 15
14 11 -17 10 1 -1 27 -6 15 -9 16 -9 4 -2 -28 -181 -46 -181 -18 0 6 21 7 53
4 28 -3 46 -2 40 1 -24 11 -13 24 17 20 17 -2 30 0 30 5 0 5 7 6 15 3 9 -4 15
0 15 9 0 11 14 16 48 19 55 5 54 6 46 -16 -4 -10 -17 -16 -35 -16 -16 0 -29
-4 -29 -10 0 -5 13 -10 30 -10 25 0 31 -5 41 -40 7 -22 16 -40 21 -40 13 0 10
37 -5 52 -14 15 -19 71 -5 62 5 -3 8 2 6 12 -2 15 4 20 30 22 17 2 32 6 32 10
-1 17 -18 32 -32 27 -13 -5 -14 -1 -4 29 12 39 36 49 36 16 0 -11 5 -20 10
-20 6 0 10 -7 10 -15 0 -20 32 -85 42 -85 13 0 9 30 -7 46 -8 9 -15 33 -15 54
0 21 -4 42 -10 45 -5 3 -10 1 -10 -6 0 -13 -14 -3 -16 12 -1 5 -2 12 -3 15 0
4 -7 1 -15 -5 -9 -7 -17 -8 -20 -3 -9 15 25 24 40 11 11 -9 14 -9 14 0 0 8 16
10 53 5 30 -4 48 -3 44 2 -8 9 -13 10 -41 13 -9 1 -13 15 -13 44 0 23 2 35 5
27 8 -22 32 -43 40 -35 4 4 1 10 -6 12 -9 3 -11 16 -6 41 9 45 25 62 58 62 19
0 26 5 26 20 0 18 7 20 63 20 39 0 57 4 48 9 -10 6 -5 11 18 16 25 5 35 3 45
-10 16 -23 51 -16 51 10 0 11 4 26 8 33 10 14 37 16 37 2 0 -5 -8 -10 -17 -10
-15 0 -16 -2 -3 -10 12 -8 11 -13 -8 -33 -12 -13 -22 -30 -22 -38 0 -8 11 -2
27 15 16 18 28 25 31 17 3 -9 7 -9 18 0 17 14 19 -2 3 -18 -13 -13 -2 -36 13
-27 6 4 14 1 18 -6 4 -7 13 -9 19 -6 16 10 14 36 -3 36 -23 0 -27 28 -5 35 23
7 25 21 5 28 -8 3 -18 22 -21 41 -5 27 -11 33 -23 28 -15 -5 -16 -4 -2 14 8
10 21 24 29 30 15 12 12 45 -7 52 -7 2 -12 -6 -12 -23 0 -37 -21 -56 -43 -40
-23 16 -21 24 3 18 15 -4 20 0 20 16 0 32 35 61 75 61 24 0 35 5 35 15 0 8 -4
15 -10 15 -5 0 -10 5 -10 11 0 6 11 8 28 5 80 -15 112 -17 112 -7 0 6 -10 12
-22 12 -15 1 -10 4 11 8 33 6 34 7 17 24 -20 20 -20 22 10 31 19 6 21 3 16
-20 -4 -20 -1 -25 9 -22 8 3 15 14 17 26 2 16 10 22 28 22 29 0 31 -14 4 -42
-22 -24 -19 -34 7 -23 10 5 21 7 26 7 4 -1 8 13 8 31 1 21 3 25 6 12 3 -11 8
-24 13 -28 8 -9 60 37 60 53 0 6 5 10 11 10 5 0 8 -4 4 -9 -9 -15 14 -24 29
-11 8 6 26 8 41 4 23 -6 25 -10 20 -35 -11 -47 2 -70 33 -62 15 3 29 10 30 15
2 4 16 8 30 9 l27 0 -24 10 c-18 7 -27 6 -32 -3 -4 -7 -11 -9 -16 -5 -4 5 -1
12 6 16 10 7 11 13 1 31 -7 12 -7 20 -2 16 6 -3 13 0 16 6 3 7 3 3 0 -9 -5
-21 9 -33 19 -15 2 4 2 2 1 -5 -4 -16 13 -26 27 -17 8 4 7 9 -2 15 -10 6 -5 9
16 10 25 0 27 2 10 9 -18 7 -18 8 7 15 16 4 35 4 44 1 12 -5 14 -1 8 16 -5 17
-3 20 10 15 12 -5 16 0 16 18 0 19 5 25 21 25 17 0 20 4 15 23 -4 16 1 26 15
36 25 15 18 27 -8 13 -15 -9 -18 -6 -20 20 -2 26 1 29 17 25 25 -6 36 9 20 28
-11 13 -145 15 -981 15 l-968 0 -3 -102z m1742 42 c8 -5 11 -10 5 -10 -5 0
-17 5 -25 10 -8 5 -10 10 -5 10 6 0 17 -5 25 -10z m-140 -110 c0 -5 -2 -10 -4
-10 -3 0 -8 5 -11 10 -3 6 -1 10 4 10 6 0 11 -4 11 -10z m190 -54 c0 -3 -9 -6
-20 -6 -22 0 -23 1 -14 24 5 13 8 13 20 1 8 -7 14 -16 14 -19z m-176 9 c-7
-16 -24 -21 -24 -6 0 8 7 13 27 20 1 1 0 -6 -3 -14z m-85 -37 c-13 -24 -29
-23 -29 1 0 13 6 19 19 18 16 -1 18 -5 10 -19z m-267 -13 c3 -14 2 -25 -2 -25
-14 0 -32 29 -25 40 11 17 22 11 27 -15z m-329 0 c-3 -9 -8 -14 -10 -11 -3 3
-2 9 2 15 9 16 15 13 8 -4z m767 -36 c0 -11 -4 -17 -10 -14 -5 3 -10 15 -10
26 0 11 5 17 10 14 6 -3 10 -15 10 -26z m-465 11 c3 -6 -4 -10 -17 -10 -18 0
-20 2 -8 10 19 12 18 12 25 0z m-276 -237 c-9 -10 -6 -13 15 -13 14 0 26 5 26
10 0 6 7 10 15 10 9 0 15 -9 15 -24 0 -30 -14 -41 -29 -22 -6 7 -25 16 -41 20
-23 4 -30 11 -30 29 0 32 12 42 27 21 9 -13 10 -21 2 -31z m-199 27 c0 -5 -7
-10 -15 -10 -8 0 -15 5 -15 10 0 6 7 10 15 10 8 0 15 -4 15 -10z m384 -16 c10
-26 7 -44 -8 -44 -20 0 -26 12 -19 38 6 26 18 28 27 6z m-264 -24 c0 -5 -5
-10 -11 -10 -5 0 -7 5 -4 10 3 6 8 10 11 10 2 0 4 -4 4 -10z m-180 -101 c0 -6
9 -8 20 -4 15 5 20 2 20 -12 0 -16 -8 -19 -48 -19 l-49 0 21 22 c23 25 36 30
36 13z m-463 -21 c-3 -8 -6 -5 -6 6 -1 11 2 17 5 13 3 -3 4 -12 1 -19z m-94
-175 c-3 -7 -9 -13 -13 -13 -4 0 -10 6 -13 13 -3 7 3 13 13 13 10 0 16 -6 13
-13z m37 7 c0 -5 -4 -10 -10 -10 -5 0 -10 5 -10 10 0 6 5 10 10 10 6 0 10 -4
10 -10z m-163 -112 c-2 -13 -4 -3 -4 22 0 25 2 35 4 23 2 -13 2 -33 0 -45z
m343 -118 c0 -5 -7 -10 -15 -10 -8 0 -15 5 -15 10 0 6 7 10 15 10 8 0 15 -4
15 -10z m70 0 c0 -5 -9 -10 -20 -10 -11 0 -20 5 -20 10 0 6 9 10 20 10 11 0
20 -4 20 -10z m-260 -64 c0 -3 -4 -8 -10 -11 -5 -3 -10 -1 -10 4 0 6 5 11 10
11 6 0 10 -2 10 -4z"/>
<path d="M1970 10230 c0 -5 5 -10 10 -10 6 0 10 5 10 10 0 6 -4 10 -10 10 -5
0 -10 -4 -10 -10z"/>
<path d="M1990 10210 c-16 -23 -19 -34 -11 -49 9 -16 7 -21 -9 -26 -11 -3 -20
-11 -20 -16 0 -13 18 -11 23 4 4 9 8 8 17 -3 10 -13 11 -13 7 0 -2 8 5 21 17
28 21 13 21 13 -1 7 -13 -4 -23 -2 -23 3 0 12 25 23 43 18 6 -1 8 -1 3 2 -4 2
-3 7 2 11 15 9 3 51 -13 51 -8 0 -23 -13 -35 -30z m40 -8 c0 -5 -12 -14 -26
-21 -20 -9 -25 -9 -21 1 2 7 10 12 16 11 6 -2 11 2 11 7 0 6 5 10 10 10 6 0
10 -4 10 -8z"/>
<path d="M2253 10212 c-1 -22 0 -24 9 -8 6 10 6 22 2 26 -5 5 -10 -3 -11 -18z"/>
<path d="M8180 10223 c0 -21 20 -55 20 -35 0 6 9 12 20 12 11 0 20 -7 20 -15
0 -8 4 -15 8 -15 5 0 15 -12 22 -26 9 -16 20 -24 31 -21 12 3 16 0 12 -9 -3
-8 -10 -14 -17 -15 -6 0 -2 -4 9 -8 11 -4 23 -19 26 -32 6 -21 7 -21 8 8 1 21
8 36 21 43 17 9 20 8 20 -8 0 -11 7 -25 15 -32 13 -11 15 -8 15 19 0 17 5 31
10 31 6 0 10 -11 10 -25 0 -14 4 -25 9 -25 13 0 20 25 15 52 -3 19 -2 18 7 -4
6 -16 15 -28 21 -28 6 0 7 7 4 16 -5 13 -4 14 7 6 8 -7 17 -9 20 -5 4 3 7 0 7
-9 0 -8 11 -20 25 -26 24 -11 36 0 15 13 -16 10 -12 35 5 29 8 -3 17 -22 21
-41 5 -25 9 -31 15 -21 5 7 9 9 9 4 0 -5 9 -1 20 9 11 10 20 31 20 47 0 15 5
28 10 28 6 0 10 -18 10 -39 0 -34 3 -38 20 -34 14 4 20 0 20 -12 0 -11 -5 -15
-15 -11 -8 3 -15 1 -15 -4 0 -6 9 -10 21 -10 15 0 19 -4 15 -16 -6 -16 27 -54
47 -54 6 0 0 8 -11 19 -12 10 -22 21 -22 25 0 13 20 5 44 -19 25 -24 64 -36
51 -14 -5 7 3 9 21 7 24 -2 28 -7 26 -27 -3 -18 0 -22 12 -18 11 4 18 -1 22
-18 3 -14 10 -25 14 -25 5 0 11 -13 15 -30 5 -21 13 -30 26 -30 20 0 26 24 9
35 -5 3 -10 11 -10 17 0 5 11 0 24 -13 19 -18 22 -28 15 -47 -12 -31 -12 -31
11 -25 14 4 20 0 20 -11 0 -32 21 -44 55 -32 16 6 32 14 35 18 9 12 48 -40 39
-53 -8 -14 -1 -39 12 -39 4 0 6 7 3 15 -5 11 1 15 20 15 15 0 29 7 32 15 10
24 44 19 45 -7 l0 -23 11 23 c11 22 38 31 38 12 0 -5 25 -10 55 -10 48 0 55 2
55 20 0 11 7 20 15 20 10 0 15 -10 15 -30 0 -25 4 -30 24 -30 26 0 36 16 36
61 0 30 7 33 48 23 30 -8 28 -24 -3 -24 -18 0 -25 -5 -25 -20 0 -11 -5 -20
-11 -20 -7 0 -9 -11 -5 -30 5 -27 3 -30 -20 -30 -14 0 -23 4 -19 9 8 14 -15
25 -28 12 -14 -14 22 -81 45 -81 9 0 19 -9 23 -19 5 -16 35 -39 35 -26 0 16
-26 55 -37 55 -7 0 -13 5 -13 10 0 17 19 11 51 -17 17 -16 36 -27 41 -25 11 3
38 -17 38 -28 0 -4 -14 -10 -32 -14 -36 -7 -34 -15 6 -18 24 -2 27 -6 22 -29
-3 -18 0 -29 9 -33 8 -3 12 -12 9 -21 -8 -19 -24 -20 -24 0 0 8 -4 15 -10 15
-5 0 -10 -6 -10 -14 0 -8 -6 -16 -12 -19 -7 -2 -9 -8 -5 -13 4 -5 12 -2 18 6
6 11 11 12 17 3 4 -6 20 -15 35 -18 33 -9 34 -17 2 -32 -14 -6 -25 -7 -25 -2
0 5 5 9 10 9 6 0 10 5 10 10 0 6 -6 10 -14 10 -19 0 -28 -40 -11 -47 10 -3 12
-14 9 -32 -5 -23 -2 -29 18 -36 12 -4 31 -6 41 -5 12 1 17 -6 17 -24 0 -14 8
-35 17 -45 16 -20 17 -20 44 0 l28 20 16 -31 c17 -32 38 -42 29 -12 -5 14 -3
14 10 -2 9 -11 16 -18 17 -15 7 35 3 49 -13 55 -17 5 -26 33 -10 35 31 6 62 3
62 -4 0 -5 -11 -7 -25 -5 -30 6 -35 -18 -5 -27 11 -3 23 -17 26 -31 4 -15 13
-24 25 -24 12 0 19 -7 19 -20 0 -11 7 -20 15 -20 8 0 15 5 15 10 0 6 6 10 14
10 16 0 41 -120 27 -130 -4 -3 -10 -18 -13 -33 -5 -25 -3 -28 16 -23 11 3 27
6 34 6 6 0 12 8 12 18 0 9 11 22 25 29 21 9 27 8 34 -5 7 -12 21 -16 51 -13
32 2 40 0 35 -10 -5 -7 -4 -10 3 -5 7 4 11 96 11 291 1 265 -1 284 -17 279
-16 -5 -16 -5 1 6 16 10 17 38 17 350 l0 340 -794 0 -795 0 -4 -22 -4 -23 -2
23 c-1 19 -6 22 -45 22 -39 0 -46 -3 -55 -27 l-11 -28 5 27 5 26 -180 2 c-167
1 -180 -1 -180 -17z m404 -47 c-3 -15 -8 -25 -11 -23 -2 3 -1 17 3 31 3 15 8
25 11 23 2 -3 1 -17 -3 -31z m51 -6 c3 -6 -4 -9 -19 -8 -13 1 -22 6 -20 10 7
11 32 10 39 -2z m-5 -80 c0 -5 -4 -10 -10 -10 -5 0 -10 5 -10 10 0 6 5 10 10
10 6 0 10 -4 10 -10z m180 -101 c0 -5 -4 -9 -10 -9 -5 0 -10 7 -10 16 0 8 5
12 10 9 6 -3 10 -10 10 -16z m145 -69 c3 -5 -3 -10 -15 -10 -12 0 -18 5 -15
10 3 6 10 10 15 10 5 0 12 -4 15 -10z m191 -37 c-11 -11 -17 4 -9 23 7 18 8
18 11 1 2 -10 1 -21 -2 -24z m424 -79 c0 -11 -5 -11 -25 -2 -14 6 -25 17 -25
24 0 11 5 11 25 2 14 -6 25 -17 25 -24z m60 -34 c0 -5 -4 -10 -10 -10 -5 0
-10 5 -10 10 0 6 5 10 10 10 6 0 10 -4 10 -10z m-21 -77 c12 -9 12 -12 3 -13
-20 0 -44 28 -36 42 6 9 9 8 12 -2 3 -8 12 -20 21 -27z m111 -153 c0 -5 -4
-10 -10 -10 -5 0 -10 5 -10 10 0 6 5 10 10 10 6 0 10 -4 10 -10z m70 -15 c0
-8 -4 -15 -10 -15 -5 0 -10 7 -10 15 0 8 5 15 10 15 6 0 10 -7 10 -15z m101 2
c-1 -12 -15 -9 -19 4 -3 6 1 10 8 8 6 -3 11 -8 11 -12z m209 -1 c0 -3 -4 -8
-10 -11 -5 -3 -10 -1 -10 4 0 6 5 11 10 11 6 0 10 -2 10 -4z m-270 -10 c0 -3
-4 -8 -10 -11 -5 -3 -10 -1 -10 4 0 6 5 11 10 11 6 0 10 -2 10 -4z m-100 -25
c0 -11 -6 -22 -12 -24 -7 -3 -3 -6 9 -6 15 -1 23 6 26 22 3 17 5 15 6 -9 1
-28 -1 -30 -33 -30 -19 1 -32 4 -30 7 2 4 -6 9 -17 12 -17 5 -19 9 -9 26 14
28 60 29 60 2z m149 -96 c-4 -6 -20 -11 -36 -12 -15 0 -21 1 -11 4 19 5 31 30
21 46 -3 7 3 3 14 -8 12 -11 17 -24 12 -30z m-154 25 c3 -5 -1 -10 -9 -10 -9
0 -16 5 -16 10 0 6 4 10 9 10 6 0 13 -4 16 -10z m-10 -100 c4 -6 -7 -10 -27
-9 -31 1 -32 1 -8 9 14 4 26 8 27 9 1 1 5 -3 8 -9z m222 -12 c-3 -8 -6 -5 -6
6 -1 11 2 17 5 13 3 -3 4 -12 1 -19z m56 -5 c-7 -2 -19 -2 -25 0 -7 3 -2 5 12
5 14 0 19 -2 13 -5z m-213 -48 c10 -12 10 -15 -4 -15 -9 0 -16 7 -16 15 0 8 2
15 4 15 2 0 9 -7 16 -15z m60 -19 c0 -3 -4 -8 -10 -11 -5 -3 -10 -1 -10 4 0 6
5 11 10 11 6 0 10 -2 10 -4z m147 -32 c-3 -3 -12 -4 -19 -1 -8 3 -5 6 6 6 11
1 17 -2 13 -5z m42 -20 c7 5 9 1 5 -8 -9 -24 -34 -19 -34 7 0 16 3 18 9 8 5
-7 14 -11 20 -7z m61 -24 c0 -5 -7 -10 -16 -10 -8 0 -12 5 -9 10 3 6 10 10 16
10 5 0 9 -4 9 -10z m-32 -58 c5 -31 -15 -27 -21 3 -3 16 0 24 7 22 6 -2 12
-13 14 -25z m92 -42 c0 -11 -4 -20 -10 -20 -5 0 -10 9 -10 20 0 11 5 20 10 20
6 0 10 -9 10 -20z m30 -40 c0 -13 -5 -18 -15 -14 -11 5 -12 9 -2 20 16 18 17
17 17 -6z"/>
<path d="M9680 9480 c0 -5 4 -10 9 -10 6 0 13 5 16 10 3 6 -1 10 -9 10 -9 0
-16 -4 -16 -10z"/>
<path d="M2155 10190 c4 -6 11 -8 16 -5 14 9 11 15 -7 15 -8 0 -12 -5 -9 -10z"/>
<path d="M8460 10082 c0 -12 49 -37 57 -28 3 2 -6 7 -19 11 -13 4 -26 13 -30
19 -5 8 -8 7 -8 -2z"/>
<path d="M8550 10030 c0 -5 5 -10 10 -10 6 0 10 5 10 10 0 6 -4 10 -10 10 -5
0 -10 -4 -10 -10z"/>
<path d="M1901 10004 c0 -11 3 -14 6 -6 3 7 2 16 -1 19 -3 4 -6 -2 -5 -13z"/>
<path d="M1572 9966 c7 -8 15 -11 18 -7 3 3 9 9 14 14 5 4 -3 7 -18 7 -22 0
-25 -2 -14 -14z"/>
<path d="M1550 9915 c-7 -9 -10 -18 -6 -22 3 -3 6 -1 6 5 0 6 8 12 18 14 11 2
13 6 6 11 -7 4 -17 0 -24 -8z"/>
<path d="M8830 9919 c0 -5 5 -7 10 -4 6 3 10 8 10 11 0 2 -4 4 -10 4 -5 0 -10
-5 -10 -11z"/>
<path d="M1810 9915 c0 -5 5 -17 10 -25 5 -8 10 -10 10 -5 0 6 -5 17 -10 25
-5 8 -10 11 -10 5z"/>
<path d="M1360 9880 c0 -5 5 -10 10 -10 6 0 10 5 10 10 0 6 -4 10 -10 10 -5 0
-10 -4 -10 -10z"/>
<path d="M1480 9840 c0 -5 5 -10 10 -10 6 0 10 5 10 10 0 6 -4 10 -10 10 -5 0
-10 -4 -10 -10z"/>
<path d="M8910 9840 c0 -5 5 -10 10 -10 6 0 10 5 10 10 0 6 -4 10 -10 10 -5 0
-10 -4 -10 -10z"/>
<path d="M8888 9813 c7 -3 16 -2 19 1 4 3 -2 6 -13 5 -11 0 -14 -3 -6 -6z"/>
<path d="M1290 9748 c0 -9 5 -20 11 -23 17 -11 18 -2 3 19 -12 17 -14 17 -14
4z"/>
<path d="M1335 9750 c28 -12 45 -12 45 0 0 6 -15 10 -32 9 -28 0 -30 -2 -13
-9z"/>
<path d="M9115 9727 c-4 -10 -5 -21 -1 -24 10 -10 18 4 13 24 -4 17 -4 17 -12
0z"/>
<path d="M9092 9705 c0 -16 2 -22 5 -12 2 9 2 23 0 30 -3 6 -5 -1 -5 -18z"/>
<path d="M1370 9708 c0 -7 5 -20 10 -28 8 -12 10 -11 10 7 0 12 -4 25 -10 28
-5 3 -10 0 -10 -7z"/>
<path d="M9230 9710 c0 -5 5 -10 10 -10 6 0 10 5 10 10 0 6 -4 10 -10 10 -5 0
-10 -4 -10 -10z"/>
<path d="M9400 9680 c0 -13 11 -13 30 0 12 8 11 10 -7 10 -13 0 -23 -4 -23
-10z"/>
<path d="M9403 9653 c9 -2 23 -2 30 0 6 3 -1 5 -18 5 -16 0 -22 -2 -12 -5z"/>
<path d="M9320 9640 c0 -5 15 -10 33 -10 24 0 28 3 17 10 -20 13 -50 13 -50 0z"/>
<path d="M1332 9620 c-7 -11 -10 -20 -6 -20 7 0 34 27 34 34 0 13 -16 5 -28
-14z"/>
<path d="M890 9592 c0 -15 -5 -33 -12 -40 -9 -9 -8 -12 5 -12 13 0 17 9 17 40
0 22 -2 40 -5 40 -3 0 -5 -13 -5 -28z"/>
<path d="M952 9611 c-10 -6 -9 -10 7 -14 12 -3 21 0 21 5 0 7 5 6 14 -1 9 -7
17 -8 20 -3 11 18 -38 28 -62 13z"/>
<path d="M922 9580 c0 -14 2 -19 5 -12 2 6 2 18 0 25 -3 6 -5 1 -5 -13z"/>
<path d="M1105 9590 c3 -5 8 -10 11 -10 2 0 4 5 4 10 0 6 -5 10 -11 10 -5 0
-7 -4 -4 -10z"/>
<path d="M788 9575 c-3 -6 5 -23 18 -38 13 -16 24 -23 24 -16 0 6 7 9 15 5 11
-4 15 2 15 20 l0 26 -21 -23 -20 -24 5 25 c3 14 3 19 0 13 -8 -19 -22 -16 -26
5 -2 9 -6 12 -10 7z"/>
<path d="M9410 9555 c0 -8 5 -15 10 -15 6 0 10 7 10 15 0 8 -4 15 -10 15 -5 0
-10 -7 -10 -15z"/>
<path d="M9444 9559 c-8 -14 23 -22 42 -11 14 8 13 10 -10 14 -15 3 -29 1 -32
-3z"/>
<path d="M934 9543 c3 -3 27 -8 53 -10 26 -2 45 -2 42 1 -3 3 -27 8 -53 10
-27 3 -46 2 -42 -1z"/>
<path d="M9500 9535 c-11 -13 -8 -15 19 -15 36 0 39 5 12 19 -14 8 -22 7 -31
-4z"/>
<path d="M960 9500 c0 -14 7 -20 22 -20 20 0 21 1 3 20 -10 11 -20 20 -22 20
-1 0 -3 -9 -3 -20z"/>
<path d="M9370 9510 c0 -5 5 -10 10 -10 6 0 10 5 10 10 0 6 -4 10 -10 10 -5 0
-10 -4 -10 -10z"/>
<path d="M9556 9475 c-3 -9 0 -15 9 -15 16 0 20 16 6 24 -5 3 -11 -1 -15 -9z"/>
<path d="M811 9440 c0 -8 4 -24 9 -35 5 -13 9 -14 9 -5 0 8 -4 24 -9 35 -5 13
-9 14 -9 5z"/>
<path d="M895 9420 c10 -11 20 -20 23 -20 3 0 -3 9 -13 20 -10 11 -20 20 -23
20 -3 0 3 -9 13 -20z"/>
<path d="M785 9410 c-3 -5 -1 -10 4 -10 6 0 11 5 11 10 0 6 -2 10 -4 10 -3 0
-8 -4 -11 -10z"/>
<path d="M750 9349 c58 -10 115 -11 106 -2 -4 4 -39 8 -79 9 -64 1 -67 1 -27
-7z"/>
<path d="M800 9320 c0 -13 30 -13 50 0 11 7 7 10 -17 10 -18 0 -33 -4 -33 -10z"/>
<path d="M735 9310 c3 -5 8 -10 11 -10 2 0 4 5 4 10 0 6 -5 10 -11 10 -5 0 -7
-4 -4 -10z"/>
<path d="M626 9273 c-9 -9 -7 -33 3 -33 12 0 22 28 12 34 -5 3 -11 3 -15 -1z"/>
<path d="M820 9255 c0 -14 -4 -25 -10 -25 -5 0 -10 -5 -10 -10 0 -6 11 -3 25
7 27 20 33 53 10 53 -9 0 -15 -9 -15 -25z"/>
<path d="M740 9245 c0 -14 2 -25 4 -25 2 0 6 11 8 25 3 14 1 25 -3 25 -5 0 -9
-11 -9 -25z"/>
<path d="M645 9227 c-5 -7 -11 -19 -13 -27 -2 -11 2 -10 12 3 9 11 20 15 32
10 18 -6 18 -6 2 10 -19 20 -20 20 -33 4z"/>
<path d="M696 9194 c-11 -28 -6 -39 9 -20 8 11 15 23 15 28 0 14 -18 9 -24 -8z"/>
<path d="M660 9180 c0 -5 5 -10 10 -10 6 0 10 5 10 10 0 6 -4 10 -10 10 -5 0
-10 -4 -10 -10z"/>
<path d="M514 9159 c-3 -6 -2 -15 4 -21 6 -6 11 -2 15 11 5 22 -7 29 -19 10z"/>
<path d="M635 9160 c3 -5 8 -10 11 -10 2 0 4 5 4 10 0 6 -5 10 -11 10 -5 0 -7
-4 -4 -10z"/>
<path d="M703 9143 c9 -2 25 -2 35 0 9 3 1 5 -18 5 -19 0 -27 -2 -17 -5z"/>
<path d="M580 9119 c0 -5 5 -7 10 -4 6 3 10 8 10 11 0 2 -4 4 -10 4 -5 0 -10
-5 -10 -11z"/>
<path d="M640 9089 c0 -15 5 -20 23 -17 27 4 26 19 -2 30 -17 6 -21 3 -21 -13z"/>
<path d="M500 9092 c0 -5 9 -17 20 -27 11 -10 20 -13 20 -7 0 7 -4 12 -10 12
-5 0 -10 7 -10 15 0 8 -4 15 -10 15 -5 0 -10 -4 -10 -8z"/>
<path d="M9986 9054 c-9 -22 -8 -24 9 -18 8 4 15 12 15 20 0 19 -16 18 -24 -2z"/>
<path d="M223 9024 c-15 -15 -17 -34 -4 -34 8 0 24 41 18 46 -1 1 -8 -4 -14
-12z"/>
<path d="M9904 9026 c-3 -9 -14 -16 -23 -16 -14 -1 -13 -3 3 -15 11 -8 27 -14
35 -14 13 1 12 2 -1 6 -22 6 -23 12 -1 28 11 8 13 14 4 19 -6 4 -14 0 -17 -8z"/>
<path d="M9963 9022 c18 -20 23 -82 7 -82 -5 0 -10 -4 -10 -10 0 -5 12 -10 26
-10 21 0 24 3 16 13 -6 7 -9 22 -6 34 6 22 -21 73 -39 73 -5 0 -3 -8 6 -18z"/>
<path d="M716 9015 c4 -8 8 -15 10 -15 2 0 4 7 4 15 0 8 -4 15 -10 15 -5 0 -7
-7 -4 -15z"/>
<path d="M9990 9020 c0 -5 5 -10 10 -10 6 0 10 5 10 10 0 6 -4 10 -10 10 -5 0
-10 -4 -10 -10z"/>
<path d="M9810 8952 c0 -17 -5 -32 -10 -34 -6 -2 3 -11 20 -21 16 -10 30 -13
30 -8 0 6 -6 11 -14 11 -8 0 -18 5 -22 12 -5 7 -2 9 8 5 12 -4 15 1 13 26 -3
41 -25 48 -25 9z"/>
<path d="M9850 8965 c0 -9 5 -15 11 -13 6 2 11 8 11 13 0 5 -5 11 -11 13 -6 2
-11 -4 -11 -13z"/>
<path d="M10115 8970 c-3 -5 1 -10 10 -10 9 0 13 5 10 10 -3 6 -8 10 -10 10
-2 0 -7 -4 -10 -10z"/>
<path d="M10167 8963 c-15 -15 -7 -43 13 -43 15 0 20 7 20 25 0 24 -18 34 -33
18z"/>
<path d="M200 8939 c0 -17 4 -20 24 -15 13 3 26 2 28 -3 2 -5 12 -3 22 5 25
18 16 26 -34 30 -35 3 -40 1 -40 -17z m70 1 c0 -5 -4 -10 -10 -10 -5 0 -10 5
-10 10 0 6 5 10 10 10 6 0 10 -4 10 -10z"/>
<path d="M10048 8910 c9 -16 18 -28 19 -26 6 6 -11 45 -22 50 -10 3 -9 -3 3
-24z"/>
<path d="M9885 8900 c11 -5 27 -9 35 -9 9 0 8 4 -5 9 -11 5 -27 9 -35 9 -9 0
-8 -4 5 -9z"/>
<path d="M288 8883 c6 -2 18 -2 25 0 6 3 1 5 -13 5 -14 0 -19 -2 -12 -5z"/>
<path d="M470 8880 c0 -5 5 -10 10 -10 6 0 10 5 10 10 0 6 -4 10 -10 10 -5 0
-10 -4 -10 -10z"/>
<path d="M9940 8880 c0 -11 50 -34 57 -26 3 2 -5 7 -16 11 -12 3 -21 11 -21
16 0 5 -4 9 -10 9 -5 0 -10 -5 -10 -10z"/>
<path d="M445 8870 c-3 -5 -1 -10 4 -10 6 0 11 5 11 10 0 6 -2 10 -4 10 -3 0
-8 -4 -11 -10z"/>
<path d="M9891 8875 c0 -5 3 -17 7 -26 6 -14 9 -15 20 -3 10 11 10 14 -2 14
-8 0 -17 6 -19 13 -3 6 -5 8 -6 2z"/>
<path d="M10122 8868 c10 -8 10 -11 1 -15 -19 -7 -16 -53 3 -53 12 0 15 6 11
22 -4 14 1 27 13 38 19 16 18 17 -11 17 -21 0 -26 -3 -17 -9z"/>
<path d="M9780 8866 c0 -2 8 -10 18 -17 15 -13 16 -12 3 4 -13 16 -21 21 -21
13z"/>
<path d="M9827 8859 c7 -7 15 -10 18 -7 3 3 -2 9 -12 12 -14 6 -15 5 -6 -5z"/>
<path d="M10196 8851 c-3 -5 1 -12 10 -15 25 -10 34 -7 34 9 0 16 -35 21 -44
6z"/>
<path d="M138 8843 c7 -3 16 -2 19 1 4 3 -2 6 -13 5 -11 0 -14 -3 -6 -6z"/>
<path d="M200 8820 c0 -21 30 -27 64 -14 33 13 17 34 -24 34 -33 0 -40 -3 -40
-20z"/>
<path d="M10 8543 c0 -152 4 -264 10 -273 7 -11 8 -6 4 18 -4 21 -3 32 5 32 6
0 11 17 11 40 0 22 -5 40 -11 40 -7 0 -9 52 -7 160 l3 160 28 0 c25 0 27 -3
27 -40 0 -22 4 -40 9 -40 5 0 16 -2 23 -5 11 -5 13 7 10 62 -2 37 -5 69 -7 71
-1 1 -21 0 -43 -4 -25 -4 -43 -13 -46 -23 -2 -9 -2 1 1 22 3 24 1 37 -6 37 -8
0 -11 -75 -11 -257z"/>
<path d="M88 8783 c12 -2 30 -2 40 0 9 3 -1 5 -23 4 -22 0 -30 -2 -17 -4z"/>
<path d="M263 8767 c-25 -13 -38 -69 -15 -65 9 2 16 -7 18 -26 1 -15 5 -31 9
-34 10 -11 33 33 40 76 3 23 12 42 18 42 7 0 6 4 -3 10 -18 12 -38 11 -67 -3z"/>
<path d="M10164 8759 c-8 -13 16 -21 42 -15 25 7 25 7 6 -14 -11 -11 -26 -18
-34 -15 -10 4 -17 -2 -22 -17 -9 -36 -7 -88 4 -88 6 0 10 20 10 45 0 25 5 45
10 45 6 0 10 -11 10 -25 0 -14 5 -25 11 -25 6 0 8 -8 5 -17 -3 -10 -1 -25 4
-33 8 -12 10 -10 10 10 0 14 -4 42 -9 62 -5 21 -5 36 -1 33 5 -3 10 0 13 7 2
7 2 0 0 -17 -3 -28 -2 -28 7 -7 5 13 8 33 6 45 -3 12 -5 25 -5 28 -1 9 -61 7
-67 -2z"/>
<path d="M170 8740 c0 -11 5 -20 10 -20 6 0 10 9 10 20 0 11 -4 20 -10 20 -5
0 -10 -9 -10 -20z"/>
<path d="M10120 8721 c0 -5 -10 -12 -22 -14 -17 -3 -14 -5 10 -6 31 -1 43 11
22 24 -5 3 -10 2 -10 -4z"/>
<path d="M330 8713 c0 -5 5 -15 10 -23 8 -12 10 -11 10 8 0 12 -4 22 -10 22
-5 0 -10 -3 -10 -7z"/>
<path d="M10025 8709 c-11 -16 -1 -19 13 -3 7 8 8 14 3 14 -5 0 -13 -5 -16
-11z"/>
<path d="M241 8691 c-7 -5 -10 -14 -7 -20 4 -6 2 -11 -3 -11 -6 0 -11 8 -11
17 0 9 -2 14 -5 11 -8 -8 7 -68 17 -68 6 0 8 7 5 15 -4 8 -2 17 2 20 7 4 23
45 18 45 -1 0 -8 -4 -16 -9z"/>
<path d="M10094 8679 c-4 -7 -3 -14 3 -16 7 -3 9 -20 6 -44 -5 -34 -3 -39 11
-33 13 5 16 17 14 52 -3 45 -19 64 -34 41z"/>
<path d="M358 8663 c7 -3 16 -2 19 1 4 3 -2 6 -13 5 -11 0 -14 -3 -6 -6z"/>
<path d="M157 8653 c-15 -15 -6 -33 18 -33 16 0 25 6 25 16 0 8 -5 12 -11 8
-6 -3 -14 -1 -18 5 -4 6 -10 8 -14 4z"/>
<path d="M10075 8635 c-5 -11 -13 -23 -19 -27 -6 -4 -7 -10 -4 -14 11 -11 40
25 35 44 -3 15 -5 15 -12 -3z"/>
<path d="M4930 8613 c-272 -27 -548 -103 -795 -217 -373 -174 -712 -463 -990
-843 -97 -133 -153 -219 -199 -304 -46 -86 -130 -279 -124 -285 2 -1 57 8 123
21 66 13 176 31 245 40 69 9 134 18 146 20 12 3 35 27 52 55 18 29 43 55 58
61 15 5 78 14 141 18 l113 9 97 65 c207 137 468 273 658 342 135 49 468 131
629 156 72 11 142 22 156 24 42 6 201 24 275 30 39 3 88 8 110 10 166 19 346
35 430 40 55 3 111 8 125 10 14 2 97 7 185 10 252 9 355 16 349 26 -3 5 3 10
13 10 25 2 22 2 73 -6 34 -5 41 -4 30 5 -11 9 -4 10 30 4 l45 -7 -75 70 c-198
184 -346 289 -576 406 -210 107 -522 201 -756 226 -88 10 -484 13 -568 4z"/>
<path d="M10140 8580 c0 -5 7 -10 15 -10 8 0 15 5 15 10 0 6 -7 10 -15 10 -8
0 -15 -4 -15 -10z"/>
<path d="M10205 8570 c3 -5 13 -10 21 -10 8 0 14 5 14 10 0 6 -9 10 -21 10
-11 0 -17 -4 -14 -10z"/>
<path d="M10147 8536 c-19 -14 -23 -36 -7 -36 6 0 10 6 10 14 0 8 6 16 13 19
6 2 10 7 7 10 -3 3 -13 0 -23 -7z"/>
<path d="M10181 8534 c0 -11 3 -14 6 -6 3 7 2 16 -1 19 -3 4 -6 -2 -5 -13z"/>
<path d="M84 8464 c1 -48 4 -58 14 -48 14 15 16 34 3 34 -6 0 -12 17 -14 38
-2 20 -3 10 -3 -24z"/>
<path d="M112 8500 c0 -14 2 -19 5 -12 2 6 2 18 0 25 -3 6 -5 1 -5 -13z"/>
<path d="M10090 8510 c0 -5 5 -10 11 -10 5 0 7 5 4 10 -3 6 -8 10 -11 10 -2 0
-4 -4 -4 -10z"/>
<path d="M10170 8500 c8 -5 22 -9 30 -9 10 0 8 3 -5 9 -27 12 -43 12 -25 0z"/>
<path d="M10150 8472 c0 -11 7 -23 16 -26 11 -4 15 0 12 16 -4 28 -28 36 -28
10z"/>
<path d="M10120 8440 c0 -5 5 -10 10 -10 6 0 10 5 10 10 0 6 -4 10 -10 10 -5
0 -10 -4 -10 -10z"/>
<path d="M10223 8434 c-15 -16 -16 -24 -4 -24 8 0 24 30 19 35 -2 2 -9 -3 -15
-11z"/>
<path d="M10170 8350 c0 -5 5 -10 10 -10 6 0 10 5 10 10 0 6 -4 10 -10 10 -5
0 -10 -4 -10 -10z"/>
<path d="M6995 7740 c-97 -32 -123 -45 -113 -56 7 -6 67 13 78 25 3 3 41 18
85 33 44 15 71 27 60 27 -11 0 -60 -13 -110 -29z"/>
<path d="M5795 7668 c-171 -9 -463 -35 -595 -54 -485 -69 -833 -199 -1238
-463 -61 -40 -153 -91 -204 -113 -94 -41 -136 -67 -88 -54 14 4 115 15 225 26
110 10 263 26 340 35 227 25 716 38 1040 27 232 -9 228 -13 -50 -56 -218 -33
-295 -49 -488 -97 -88 -22 -161 -38 -164 -35 -3 3 6 8 21 12 14 3 24 9 22 13
-2 3 14 7 37 8 22 2 43 7 46 11 3 5 24 12 45 16 22 4 49 14 60 22 11 8 27 14
36 14 8 0 26 9 39 19 24 18 23 18 -55 14 -114 -7 -379 -49 -486 -78 -51 -14
-212 -43 -358 -65 -146 -22 -323 -51 -395 -65 -71 -13 -131 -25 -133 -25 -2 0
-1 -4 2 -9 3 -5 -8 -11 -24 -15 -17 -3 -49 -14 -72 -25 -24 -10 -88 -35 -143
-56 -148 -55 -207 -85 -194 -101 8 -9 -3 -13 -48 -16 -32 -2 -61 -3 -64 -1 -4
1 21 32 54 68 57 62 144 126 230 170 20 11 37 26 36 35 0 10 -2 11 -6 3 -2 -7
-9 -13 -14 -13 -6 0 -7 5 -3 12 4 7 3 8 -5 4 -6 -4 -9 -12 -6 -17 4 -5 1 -9
-4 -9 -6 0 -11 7 -11 15 0 8 -6 15 -12 16 -7 0 -4 4 7 9 31 13 -1 12 -75 -4
-36 -8 -92 -26 -125 -41 -33 -14 -108 -42 -167 -62 -59 -19 -105 -39 -102 -44
3 -5 0 -9 -5 -9 -6 0 -11 -5 -11 -12 0 -25 -36 -49 -102 -68 -70 -22 -95 -46
-34 -35 21 4 36 2 41 -5 4 -6 5 -13 3 -15 -6 -6 -218 -21 -218 -15 0 3 45 34
100 70 54 36 99 69 100 73 0 12 -46 1 -215 -53 -167 -54 -335 -120 -335 -133
0 -4 20 -17 45 -28 25 -10 65 -28 90 -38 l44 -20 -15 -45 c-9 -26 -22 -46 -30
-46 -21 0 -93 38 -136 72 l-38 30 0 -39 c1 -21 7 -55 14 -75 12 -34 134 -255
178 -323 l20 -30 -27 30 c-15 17 -66 74 -113 128 -68 77 -88 95 -98 85 -6 -7
-24 -50 -40 -96 l-29 -83 105 -100 c58 -55 144 -134 193 -176 48 -41 87 -77
87 -80 0 -4 -93 60 -277 192 -115 82 -133 92 -133 72 0 -12 11 -107 24 -210
17 -132 21 -198 15 -220 -5 -18 -9 -37 -9 -43 0 -13 90 -64 113 -64 8 0 17 -5
19 -12 3 -8 31 7 75 39 86 62 163 107 223 128 39 14 69 15 240 6 107 -6 323
-14 480 -18 194 -6 255 -9 190 -13 l-95 -4 105 -6 c81 -5 53 -7 -122 -8 -132
-1 -319 5 -445 14 -120 9 -243 14 -274 11 -61 -5 -148 -44 -256 -114 -109 -71
-116 -72 -191 -32 -36 19 -69 35 -74 37 -9 4 -1 -51 14 -91 12 -31 63 -63 153
-96 57 -20 62 -25 77 -69 26 -71 87 -166 146 -226 96 -97 247 -156 400 -156
60 0 216 23 267 38 110 34 248 135 305 223 l35 54 385 2 c212 2 516 8 675 14
160 6 299 10 310 7 11 -2 -56 -23 -150 -45 -217 -53 -299 -69 -460 -88 -71 -9
-229 -31 -350 -50 -121 -19 -233 -35 -250 -37 -17 -2 -30 -9 -30 -17 0 -16 -6
-19 -87 -55 -32 -14 -58 -29 -58 -35 0 -31 214 -248 357 -362 41 -33 125 -93
187 -133 150 -99 401 -228 381 -196 -4 6 -13 10 -21 10 -23 0 -17 61 11 102
17 26 21 38 12 41 -6 2 2 3 18 1 17 -3 86 -31 155 -64 133 -63 199 -82 350
-99 52 -6 142 -21 200 -33 140 -29 376 -31 535 -5 262 44 631 155 816 246 45
22 87 37 92 34 6 -3 8 -2 4 3 -3 5 11 20 31 33 29 19 34 20 22 6 -11 -14 -11
-17 -1 -11 8 5 16 3 22 -5 5 -9 28 -14 61 -15 29 0 54 -6 56 -12 5 -15 39 -16
47 -2 4 6 24 22 46 36 22 13 37 29 34 34 -3 5 0 7 7 5 36 -14 283 222 437 417
48 61 96 111 110 116 14 5 91 31 171 56 80 26 208 72 285 101 77 29 250 92
385 139 288 99 344 120 468 175 51 22 114 46 140 53 25 6 41 13 35 15 -6 2
-76 -14 -155 -36 -261 -72 -490 -133 -743 -197 -279 -70 -348 -89 -452 -127
-79 -29 -447 -147 -643 -208 -69 -21 -208 -67 -310 -103 -102 -35 -257 -85
-345 -111 -160 -46 -428 -136 -665 -222 -265 -97 -343 -123 -348 -119 -6 7 82
132 127 179 20 21 52 47 71 57 43 22 395 137 567 186 147 41 193 62 218 100
10 15 34 46 55 68 20 23 56 78 80 124 61 119 69 127 147 146 62 16 296 80 683
187 80 23 217 63 305 89 88 27 219 65 290 85 181 50 436 128 432 131 -2 2 -70
-10 -153 -26 -148 -29 -257 -38 -282 -21 -27 16 46 56 203 112 44 15 69 28 57
29 -13 0 -38 -7 -55 -15 -60 -27 -173 -64 -242 -79 -70 -15 -206 -54 -407
-116 -66 -20 -113 -30 -125 -25 -12 5 -14 9 -5 12 19 7 14 23 -8 23 -13 0 -20
7 -20 20 0 13 -7 20 -20 20 -13 0 -20 7 -20 20 0 17 7 20 40 20 33 0 40 3 40
20 0 13 -7 20 -20 20 -11 0 -20 7 -20 15 0 20 45 65 65 65 8 0 15 9 15 20 0
18 -6 19 -87 15 -59 -3 -101 -11 -128 -24 -22 -10 -60 -20 -85 -21 -62 -3 -70
-1 -70 10 0 6 3 9 8 8 4 0 14 1 22 5 14 5 195 63 365 117 39 12 140 42 225 66
85 25 288 87 450 138 162 52 396 126 520 164 665 207 854 267 940 297 52 18
128 44 167 56 40 13 73 27 73 32 0 4 -10 5 -22 2 -13 -2 -95 -16 -183 -30 -88
-15 -189 -33 -225 -40 -36 -8 -119 -24 -185 -35 -66 -12 -223 -52 -350 -90
-126 -38 -250 -72 -274 -75 -25 -4 -103 -25 -175 -46 -71 -22 -134 -38 -140
-36 -6 2 17 12 52 23 71 21 80 31 23 26 -33 -3 -42 0 -57 23 -11 14 -29 39
-41 55 -45 56 -31 73 87 103 221 58 513 146 626 190 49 19 132 42 184 51 52 9
151 36 220 59 155 52 133 58 -108 27 -166 -21 -352 -58 -532 -105 -127 -33
-211 -52 -295 -65 -38 -6 -115 -24 -170 -39 -56 -16 -137 -34 -180 -41 -44 -6
-89 -13 -100 -16 -14 -4 -10 4 15 25 19 17 42 33 51 36 9 3 19 19 23 36 5 25
16 35 68 58 35 16 77 32 94 35 24 5 31 12 27 25 -6 23 63 58 140 71 31 5 61
12 66 15 5 3 12 2 15 -3 3 -5 19 -7 36 -6 33 2 55 14 26 14 -9 0 -14 5 -11 10
4 6 10 8 15 5 5 -3 11 -1 15 5 3 5 15 10 25 10 10 0 20 5 22 10 2 6 17 12 33
13 17 1 36 8 43 15 7 6 20 12 28 12 8 0 14 5 14 10 0 6 6 10 14 10 7 0 27 7
42 15 16 8 41 15 55 15 17 0 33 9 43 25 9 14 21 23 27 20 5 -4 12 7 15 24 4
20 13 31 23 31 10 0 17 9 18 20 3 32 -19 29 -292 -34 -60 -14 -171 -37 -245
-50 -207 -39 -231 -45 -277 -67 -57 -28 -110 -33 -129 -14 -9 8 -21 15 -29 15
-7 0 -25 6 -39 14 l-26 13 57 26 c139 62 468 163 771 237 111 27 131 35 120
45 -12 12 -292 -15 -413 -40 -69 -14 -160 -30 -201 -36 -41 -5 -141 -26 -222
-45 -176 -41 -212 -43 -212 -13 0 38 -30 84 -80 124 l-51 40 53 11 c47 10 140
38 428 130 146 46 195 69 195 90 0 35 -91 30 -338 -21 -226 -46 -277 -52 -277
-36 0 21 -59 -11 -173 -92 -7 -5 -43 6 -90 27 -42 20 -137 56 -210 81 -129 43
-138 45 -377 64 -269 22 -564 30 -765 19z m13 -115 c-42 -2 -114 -2 -160 0
-46 1 -11 3 77 3 88 0 125 -2 83 -3z m1035 -23 c36 -7 29 -8 -48 -9 -110 -2
-200 -22 -284 -64 -63 -31 -152 -108 -186 -161 -10 -14 -21 -26 -25 -26 -13 0
13 91 32 115 5 6 22 30 39 53 38 54 108 89 205 100 77 9 203 5 267 -8z m-1250
-7 c-7 -2 -21 -2 -30 0 -10 3 -4 5 12 5 17 0 24 -2 18 -5z m668 -153 c-52 -50
-97 -90 -99 -90 -3 0 -25 -20 -49 -45 -42 -44 -62 -58 -46 -32 27 43 119 148
159 181 43 36 109 76 124 76 3 0 -37 -41 -89 -90z m-1813 -131 c-7 -5 -21 -9
-30 -9 -9 0 -19 -4 -22 -8 -3 -5 -32 -17 -65 -28 -34 -10 -61 -23 -61 -29 0
-5 -5 -3 -11 5 -7 10 -12 11 -15 4 -3 -7 -14 -9 -25 -7 -16 5 -18 8 -7 14 11
7 10 11 -2 18 -8 5 -18 7 -22 5 -4 -3 -8 -3 -8 0 0 3 10 10 21 17 17 9 24 8
31 -2 8 -11 9 -10 4 3 -6 19 35 42 139 79 l50 18 18 -36 c15 -29 16 -37 5 -44z
m2680 -151 c-18 -24 -88 -97 -155 -164 -75 -74 -123 -130 -123 -142 0 -29 76
-127 168 -214 45 -43 83 -78 84 -78 2 0 30 24 63 54 33 30 107 95 165 145
l105 91 3 -41 c2 -22 -2 -72 -7 -110 -32 -206 -156 -343 -322 -356 -227 -18
-433 133 -490 360 -17 68 -7 191 20 252 65 147 240 235 484 244 l39 1 -34 -42z
m-3045 18 c18 -14 18 -14 0 -19 -10 -3 -38 -8 -63 -12 l-45 -6 28 26 c31 28
53 31 80 11z m1787 -82 c-30 -7 -120 -25 -200 -39 -80 -14 -181 -37 -224 -51
-44 -13 -83 -24 -87 -24 -4 0 -20 -5 -36 -11 -15 -6 -28 -9 -29 -7 0 2 -7 -2
-15 -9 -10 -8 -20 -9 -29 -3 -21 13 -38 12 -20 -1 11 -8 6 -9 -20 -5 -35 6
-118 -13 -241 -54 -31 -11 -78 -24 -105 -30 -27 -6 -77 -22 -111 -35 -54 -22
-93 -33 -208 -60 -26 -6 -27 -8 -11 -14 17 -7 13 -11 -25 -29 -43 -21 -269
-82 -299 -82 -21 1 114 69 256 128 174 74 519 179 709 217 173 35 252 53 323
77 40 12 121 25 215 33 200 17 227 16 157 -1z m589 -114 c-26 -15 -217 -66
-335 -90 -60 -12 -179 -39 -264 -60 -85 -21 -189 -44 -230 -50 -138 -22 -195
-61 -304 -209 -163 -222 -301 -301 -636 -362 -423 -76 -439 -80 -590 -150
-106 -49 -77 -21 76 71 126 76 209 106 424 155 195 43 353 94 428 136 58 34
146 111 232 204 128 139 130 141 215 168 44 14 143 37 220 52 77 14 187 38
245 52 112 26 468 91 510 92 20 0 22 -1 9 -9z m1376 -80 c-3 -5 -12 -10 -18
-10 -7 0 -6 4 3 10 19 12 23 12 15 0z m-2750 -66 c-35 -13 -125 -35 -205 -50
-62 -11 18 20 92 37 44 9 82 20 85 23 4 3 20 6 37 5 31 0 31 -1 -9 -15z m-310
-74 c-11 -5 -29 -9 -40 -9 l-20 0 20 9 c11 5 29 9 40 9 l20 0 -20 -9z m-95
-20 c-14 -4 -41 -8 -60 -8 l-35 0 30 8 c17 4 44 8 60 8 29 0 29 0 5 -8z m538
-10 c-1 -5 -28 -31 -59 -57 -31 -27 -96 -83 -144 -126 -75 -66 -98 -81 -159
-100 -67 -21 -88 -22 -386 -22 -334 0 -383 6 -395 46 -4 11 -5 22 -3 23 1 2
48 10 103 20 142 24 440 89 725 157 135 32 259 60 275 62 17 2 34 5 38 6 5 0
7 -3 5 -9z m674 -100 c35 -13 79 -41 111 -70 53 -48 137 -149 137 -164 0 -4
-29 19 -66 52 -171 158 -360 161 -520 10 -30 -28 -67 -71 -83 -97 -74 -116
-138 -309 -160 -482 -25 -195 -33 -238 -48 -243 -23 -9 -26 19 -19 163 11 226
39 376 97 512 123 290 323 405 551 319z m682 -73 c32 -83 82 -150 145 -192 33
-22 60 -42 60 -45 0 -3 -15 -16 -33 -30 -19 -14 -71 -58 -117 -99 -375 -332
-401 -353 -411 -339 -12 20 -9 50 7 82 13 24 13 27 1 17 -12 -11 -16 -6 -20
26 -4 21 -18 74 -31 118 -14 44 -25 84 -25 88 0 5 88 97 195 204 107 108 195
200 195 205 0 23 19 3 34 -35z m-3783 -36 c104 -7 120 -11 151 -34 40 -31 107
-37 128 -13 6 8 33 23 58 33 41 16 82 18 337 18 160 0 320 -4 357 -8 161 -20
186 -107 93 -319 -91 -206 -233 -332 -435 -387 -266 -72 -639 -74 -880 -4
-165 47 -258 140 -328 328 -39 102 -52 218 -33 277 15 44 58 86 107 103 44 16
256 19 445 6z m3152 -239 c50 -19 146 -125 190 -210 31 -59 43 -101 64 -214 9
-46 -4 -77 -35 -84 -15 -3 -65 -19 -111 -35 -66 -23 -86 -27 -93 -17 -5 9 -8
6 -8 -9 0 -12 -12 -35 -26 -52 -22 -27 -33 -31 -72 -31 -26 0 -54 5 -62 10
-19 12 -28 -10 -29 -71 -1 -48 -18 -80 -104 -198 -53 -72 -47 -76 -86 54 -53
181 -68 397 -36 533 18 76 70 191 114 249 65 89 183 119 294 75z m1478 -23
c-30 -10 -56 -17 -58 -15 -5 5 77 34 97 34 8 1 -9 -8 -39 -19z m-214 -75 c-3
-3 -12 -4 -19 -1 -8 3 -5 6 6 6 11 1 17 -2 13 -5z m-40 -10 c-3 -3 -12 -4 -19
-1 -8 3 -5 6 6 6 11 1 17 -2 13 -5z m-187 -50 c-41 -13 -82 -23 -90 -21 -16 3
124 45 150 45 8 0 -19 -10 -60 -24z m-1493 -46 c-3 -8 -6 -5 -6 6 -1 11 2 17
5 13 3 -3 4 -12 1 -19z m-559 -5 c11 -20 126 -430 152 -540 10 -40 13 -70 8
-67 -28 18 -62 103 -118 297 -35 119 -72 231 -82 247 -16 27 -23 30 -67 30
-27 0 -102 -13 -166 -30 -102 -26 -211 -68 -668 -257 -60 -25 -110 -43 -113
-41 -4 5 288 151 431 216 216 99 426 159 562 161 40 1 54 -3 61 -16z m549 -45
c-3 -7 -5 -2 -5 12 0 14 2 19 5 13 2 -7 2 -19 0 -25z m-629 -233 c35 -106 66
-234 58 -242 -2 -3 -13 0 -23 5 -11 6 -25 36 -36 81 -10 39 -24 71 -30 71 -19
0 -219 -47 -247 -58 -23 -9 -22 -10 20 -15 25 -4 76 -9 113 -12 70 -6 140 -31
134 -49 -11 -33 -190 -30 -287 5 -30 11 -90 32 -133 46 l-79 27 49 13 c106 29
279 64 350 70 l75 6 -5 40 c-3 22 -10 44 -15 49 -9 9 -138 -22 -435 -108 -238
-68 -177 -24 113 83 114 42 297 93 325 90 16 -2 26 -22 53 -102z m-2805 -2
c62 -48 69 -58 35 -47 -33 10 -118 76 -118 92 0 16 7 12 83 -45z m20 -86 c40
-14 57 -25 57 -37 0 -23 -20 -30 -80 -30 -48 0 -49 1 -59 38 -16 54 -14 66 7
56 9 -4 43 -16 75 -27z m4151 -52 c9 -59 -10 -193 -38 -271 -31 -83 -99 -196
-144 -235 -46 -41 -108 -69 -153 -69 -61 0 -136 45 -185 113 -47 63 -50 80
-17 85 15 2 29 -9 49 -36 46 -63 88 -87 155 -87 41 0 63 5 75 16 15 16 15 21
-4 75 -71 205 -95 296 -81 305 39 24 98 -72 130 -209 12 -51 25 -90 30 -85 20
21 92 169 105 216 7 28 17 91 20 140 6 82 8 87 29 87 19 0 24 -7 29 -45z
m-734 -312 c31 -95 96 -222 148 -291 14 -19 54 -54 89 -79 35 -24 63 -47 63
-50 0 -2 -24 8 -52 24 -119 63 -224 206 -268 365 -27 98 -50 233 -49 283 1 28
6 12 19 -57 10 -54 32 -141 50 -195z m1538 281 c-7 -7 -108 -34 -127 -34 -30
0 2 14 57 26 68 15 77 16 70 8z m-3143 -32 c39 -10 88 -28 110 -39 22 -11 46
-18 54 -15 8 3 11 0 7 -6 -4 -7 4 -8 26 -1 46 13 45 13 68 -31 14 -27 25 -38
35 -33 10 3 15 1 13 -7 -2 -6 35 -32 81 -57 75 -42 92 -47 170 -53 85 -6 86
-6 36 -14 -27 -4 -71 -12 -97 -18 l-46 -11 -244 121 c-133 66 -274 130 -313
142 -40 12 -115 24 -175 28 -76 4 -97 8 -75 14 53 13 275 0 350 -20z m2942
-18 c-3 -3 -12 -4 -19 -1 -8 3 -5 6 6 6 11 1 17 -2 13 -5z m-3974 -141 c-34
-2 -93 -2 -130 0 -37 2 -9 3 62 3 72 0 102 -1 68 -3z m807 -72 c76 -13 122
-34 128 -60 6 -28 -1521 0 -1551 29 -4 4 18 16 50 28 57 21 69 21 678 18 421
-2 644 -7 695 -15z m400 -61 c8 -5 11 -10 5 -10 -5 0 -17 5 -25 10 -8 5 -10
10 -5 10 6 0 17 -5 25 -10z m1117 -351 c-18 -5 -14 -8 18 -14 83 -16 84 -19
13 -93 -122 -128 -157 -178 -217 -303 -61 -131 -93 -169 -188 -229 -87 -55
-201 -61 -299 -14 -55 26 -133 102 -160 156 -65 129 -44 308 50 423 60 73 154
110 354 140 24 4 65 22 95 43 29 19 74 50 101 69 l48 33 103 -102 c91 -91 101
-104 82 -109z"/>
<path d="M6261 5927 l-25 -32 32 29 c33 31 37 36 25 35 -5 0 -19 -14 -32 -32z"/>
<path d="M3517 6414 c-4 -4 -7 -119 -7 -256 0 -246 -5 -288 -34 -288 -10 0
-14 43 -19 188 -4 103 -7 224 -7 270 l0 82 -35 0 -35 0 0 -93 c0 -219 -13
-459 -26 -472 -7 -7 -10 -15 -7 -19 4 -3 2 -6 -4 -6 -13 0 -23 152 -23 361 0
204 -4 229 -37 229 -13 0 -26 -6 -28 -12 -2 -7 -8 -137 -12 -288 -7 -243 -10
-275 -24 -278 -23 -4 -27 36 -35 330 l-6 237 -31 -13 -31 -12 -4 -275 c-1
-151 -5 -280 -7 -286 -2 -7 -11 -13 -19 -13 -17 0 -22 63 -32 363 l-6 198 -32
-3 -31 -3 -5 -262 c-3 -144 -8 -265 -12 -268 -4 -4 -14 -5 -23 -2 -12 5 -15
29 -16 139 0 73 -2 194 -5 268 -3 128 -5 136 -26 147 -39 21 -46 16 -44 -34 0
-27 -3 -153 -8 -281 -8 -215 -15 -265 -36 -233 -4 7 -10 137 -14 289 -7 282
-9 291 -47 292 -14 0 -17 -24 -22 -167 -4 -91 -7 -220 -7 -285 0 -108 -2 -119
-17 -116 -24 4 -32 55 -32 213 -1 72 -4 181 -8 243 l-6 112 -29 0 -28 0 -1
-82 c-1 -168 -15 -457 -21 -463 -18 -18 -28 13 -28 88 0 45 -3 166 -7 270 l-6
187 -29 0 -28 0 0 -102 c0 -190 -12 -358 -25 -358 -14 0 -21 65 -31 298 l-7
153 -31 -3 -31 -3 -3 -117 c-3 -149 -20 -159 -37 -23 -11 86 -15 101 -26 84
-12 -19 -11 -117 2 -181 26 -125 118 -257 217 -311 27 -14 96 -38 153 -53 89
-22 133 -26 304 -31 173 -4 217 -2 330 16 297 49 441 140 544 343 33 65 44
100 48 149 6 76 -11 105 -68 118 l-36 8 -7 -176 c-3 -96 -11 -180 -16 -185
-22 -22 -30 16 -35 169 -8 204 -8 205 -44 205 l-29 0 -6 -152 c-10 -232 -16
-289 -33 -295 -7 -3 -17 -3 -20 0 -3 4 -8 107 -12 229 l-6 223 -25 3 c-14 2
-29 0 -33 -4z"/>
<path d="M5770 6132 c-19 -9 -54 -41 -77 -70 -43 -53 -55 -95 -29 -105 20 -8
74 -90 92 -139 26 -75 10 -75 -73 1 -70 64 -78 70 -85 51 -12 -33 -27 -212
-21 -256 l5 -41 82 48 c61 36 87 59 107 91 19 32 35 46 65 56 28 9 66 40 132
108 50 52 92 101 92 108 0 27 -66 110 -109 137 -25 16 -49 29 -53 29 -4 0 -8
-26 -8 -57 0 -59 -29 -215 -49 -265 -6 -16 -16 -28 -22 -28 -9 0 -11 42 -7
164 3 90 3 168 -1 174 -5 8 -17 6 -41 -6z"/>
<path d="M5842 5668 c6 -18 28 -21 28 -4 0 9 -7 16 -16 16 -9 0 -14 -5 -12
-12z"/>
<path d="M4865 4775 c60 -79 85 -141 86 -215 1 -80 16 -46 18 41 1 57 -13 88
-74 160 -45 52 -67 63 -30 14z"/>
<path d="M4552 4753 c-79 -38 -135 -182 -110 -280 11 -47 66 -116 109 -139 34
-17 122 -20 160 -6 45 18 101 74 125 127 40 85 28 155 -38 230 -70 79 -168
107 -246 68z"/>
<path d="M4994 4699 c-19 -22 -19 -22 4 -8 12 8 22 17 22 21 0 12 -6 9 -26
-13z"/>
<path d="M3306 6871 c-4 -5 3 -7 14 -4 23 6 26 13 6 13 -8 0 -17 -4 -20 -9z"/>
<path d="M8285 6154 c-8 -9 -15 -20 -15 -25 0 -5 -13 -9 -30 -9 -16 0 -39 -9
-49 -19 -11 -11 -27 -21 -38 -23 -10 -2 -22 -13 -28 -26 -5 -12 -18 -22 -27
-22 -10 0 -18 -7 -18 -15 0 -8 -9 -15 -20 -15 -13 0 -20 -7 -20 -20 0 -13 7
-20 20 -20 13 0 20 7 20 20 0 17 7 20 40 20 22 0 40 -4 40 -10 0 -5 -9 -10
-20 -10 -11 0 -20 -4 -20 -10 0 -15 97 -12 104 3 5 10 7 10 12 0 3 -7 14 -13
25 -13 10 0 19 6 19 13 0 8 4 7 10 -3 9 -13 10 -13 11 0 1 8 1 19 0 23 -1 4
13 7 31 6 44 -2 61 3 76 24 7 9 22 17 33 17 10 0 19 5 19 10 0 6 14 10 30 10
27 0 30 3 30 30 0 24 -4 30 -22 30 -20 0 -21 1 -3 20 18 20 17 20 -11 21 -16
0 -64 2 -106 5 -60 2 -81 0 -93 -12z"/>
<path d="M7785 6060 c-17 -6 -16 -7 8 -12 16 -3 31 0 38 8 8 10 8 14 0 14 -6
0 -11 -6 -11 -12 0 -9 -2 -10 -8 -2 -4 6 -16 8 -27 4z"/>
<path d="M7670 6025 c-19 -7 -28 -14 -19 -14 9 -1 32 6 50 14 43 18 16 18 -31
0z"/>
<path d="M7800 5855 c0 -8 9 -15 20 -15 11 0 20 7 20 15 0 8 -9 15 -20 15 -11
0 -20 -7 -20 -15z"/>
<path d="M9140 5800 c-89 -20 -299 -71 -330 -80 -19 -6 -156 -37 -305 -70
-251 -55 -455 -105 -800 -195 -142 -37 -362 -103 -670 -200 -93 -30 -222 -68
-285 -85 -169 -46 -510 -159 -545 -180 -17 -10 -55 -45 -85 -77 l-55 -58 29
-3 c43 -5 144 15 264 52 59 19 184 55 277 81 94 26 249 72 345 102 96 30 236
70 310 90 74 19 167 50 206 69 69 32 319 110 494 154 109 28 405 114 495 145
39 13 113 35 165 50 146 41 366 119 463 165 107 50 113 59 27 40z"/>
<path d="M8520 4190 c-13 -8 -11 -11 7 -16 20 -6 23 -13 26 -88 l3 -81 2 83
c2 75 4 82 22 82 11 0 20 6 21 13 3 36 17 -48 18 -105 1 -61 3 -68 21 -68 17
0 20 7 21 48 l0 47 22 -42 c25 -52 42 -54 61 -9 23 55 36 54 36 -3 0 -43 3
-51 19 -51 16 0 19 11 24 91 7 99 5 109 -23 109 -13 0 -30 -20 -53 -60 l-34
-61 -18 48 c-10 26 -22 54 -28 61 -11 15 -125 16 -147 2z"/>
<path d="M6400 3874 c-162 -28 -239 -64 -327 -151 -46 -46 -73 -85 -107 -155
-62 -128 -69 -179 -64 -475 4 -219 7 -256 26 -314 37 -112 113 -213 210 -281
102 -70 279 -115 417 -103 150 12 315 34 338 46 12 6 49 37 82 68 33 31 78 70
100 87 l40 31 3 303 4 303 -301 -5 c-166 -3 -303 -7 -305 -9 -2 -2 -6 -64 -9
-136 l-6 -133 139 0 140 0 0 -70 c0 -63 -3 -72 -30 -104 -41 -47 -87 -60 -200
-61 -163 0 -248 46 -286 157 -16 46 -19 85 -19 278 l0 225 28 56 c29 60 78
102 138 119 54 16 214 12 257 -6 46 -19 87 -57 103 -96 11 -26 16 -29 42 -24
16 3 94 9 174 13 l143 6 -6 36 c-9 56 -69 171 -118 227 -59 67 -128 110 -224
141 -63 20 -103 25 -217 28 -77 2 -151 2 -165 -1z"/>
<path d="M7740 3865 c-126 -25 -222 -77 -303 -164 -52 -55 -85 -116 -118 -216
-21 -64 -23 -92 -27 -336 -3 -221 -1 -278 12 -330 63 -248 258 -403 537 -425
84 -7 249 9 322 31 147 44 273 147 331 269 57 119 61 153 61 451 -1 268 -1
271 -28 352 -69 207 -233 341 -454 373 -93 13 -254 11 -333 -5z m305 -316 c54
-15 127 -91 144 -150 9 -32 11 -112 9 -275 l-3 -231 -30 -58 c-24 -47 -39 -64
-75 -82 -137 -70 -343 -42 -407 56 -38 56 -43 97 -43 332 0 177 3 235 15 270
24 66 68 112 132 135 46 16 203 18 258 3z"/>
<path d="M2928 3710 c-1 -80 -2 -404 -2 -720 l-1 -575 173 0 172 0 0 717 0
717 -170 3 -170 3 -2 -145z"/>
<path d="M3502 3853 l-143 -4 38 -47 c22 -26 95 -132 162 -237 68 -104 158
-242 201 -306 l78 -116 -82 -124 c-45 -68 -131 -198 -191 -289 -60 -91 -131
-198 -157 -239 -27 -40 -48 -74 -46 -75 2 0 92 0 200 2 l197 3 121 192 c151
242 146 235 164 217 8 -8 73 -103 146 -210 l131 -195 204 -5 c203 -5 204 -5
190 15 -30 41 -191 285 -226 341 -20 33 -84 132 -143 220 l-107 162 186 278
c102 154 208 310 235 349 27 38 48 70 47 70 -1 0 -92 -1 -202 -3 l-200 -3 -49
-82 c-83 -136 -211 -336 -216 -336 -5 -1 -97 145 -209 329 l-57 95 -65 0 c-35
1 -128 0 -207 -2z"/>
<path d="M1764 3834 c3 -9 6 -330 6 -715 l0 -699 175 0 175 0 0 278 0 278 114
-4 c63 -3 189 -1 280 3 l166 7 0 138 0 137 -82 6 c-46 4 -172 7 -280 7 l-198
0 0 135 0 135 330 0 330 0 0 155 0 155 -511 0 c-462 0 -511 -2 -505 -16z"/>
<path d="M5063 3826 c-88 -28 -168 -98 -204 -180 -42 -95 -20 -236 51 -335 17
-22 30 -43 30 -46 0 -2 -33 -27 -74 -54 -85 -58 -135 -114 -171 -193 -48 -104
-43 -244 12 -353 32 -61 133 -162 193 -192 58 -28 153 -53 205 -53 95 0 236
58 318 130 l42 37 59 -53 c32 -30 79 -63 104 -75 55 -27 205 -45 288 -34 59 7
59 7 35 24 -42 27 -212 172 -284 241 l-68 65 27 39 c28 41 98 205 109 257 4
18 10 79 14 136 l6 103 -80 0 c-44 0 -103 -3 -131 -6 l-52 -7 26 -56 c40 -90
32 -209 -20 -283 -11 -16 -23 -28 -26 -28 -13 0 -232 271 -232 287 0 5 31 32
69 60 111 85 154 165 154 290 1 170 -128 294 -302 292 -31 0 -75 -6 -98 -13z
m176 -221 c33 -38 37 -59 20 -118 -7 -27 -26 -51 -71 -88 -57 -48 -61 -49 -79
-33 -33 29 -69 115 -69 162 0 37 6 50 34 78 30 30 40 34 84 34 45 0 53 -4 81
-35z m-123 -578 c34 -40 81 -97 104 -127 24 -30 65 -78 92 -106 l49 -51 -37
-32 c-74 -65 -182 -94 -271 -72 -78 20 -121 54 -154 124 -44 93 -36 172 26
253 33 44 102 95 118 88 7 -3 40 -38 73 -77z"/>
<path d="M3455 2087 c-85 -48 -109 -139 -60 -223 28 -47 90 -84 144 -84 67 0
129 56 97 88 -12 13 -20 13 -41 4 -43 -20 -82 -14 -116 16 -22 19 -31 37 -31
57 0 20 9 38 31 57 35 31 75 36 102 12 16 -14 19 -14 38 5 31 31 26 47 -22 70
-55 27 -92 26 -142 -2z"/>
<path d="M3913 2102 c-18 -2 -33 -8 -33 -14 0 -6 -19 -51 -41 -102 -23 -50
-50 -115 -60 -143 l-18 -53 24 0 c13 0 30 -2 38 -6 10 -3 16 4 20 25 6 30 9
31 56 31 27 0 56 3 64 6 10 4 18 -5 26 -28 10 -31 14 -34 56 -33 25 0 45 1 45
3 0 1 -29 68 -65 147 -36 80 -65 150 -65 155 0 13 -11 16 -47 12z m22 -153 c5
-22 3 -34 -6 -40 -37 -23 -49 -2 -27 46 15 33 25 32 33 -6z"/>
<path d="M4899 2087 c-88 -59 -65 -152 44 -172 20 -4 43 -13 53 -19 15 -12 15
-14 -1 -29 -18 -19 -50 -22 -60 -7 -16 26 -85 4 -85 -27 0 -19 74 -53 116 -53
63 0 134 61 134 114 0 31 -45 65 -110 83 -41 12 -65 24 -65 34 0 18 66 24 96
8 20 -10 25 -8 41 11 22 27 11 45 -39 67 -47 19 -85 16 -124 -10z"/>
<path d="M5210 2063 l0 -43 45 0 45 0 0 -118 0 -118 38 4 c35 3 38 6 34 28 -2
13 -1 67 3 120 l7 96 44 -4 44 -3 0 40 0 40 -130 0 -130 0 0 -42z"/>
<path d="M5607 1993 c3 -70 12 -129 20 -146 45 -89 180 -87 244 4 14 19 18 49
21 142 l3 117 -42 0 -43 0 0 -92 c0 -51 -3 -103 -6 -115 -8 -30 -57 -49 -89
-35 -24 11 -25 14 -25 127 l0 115 -45 0 -44 0 6 -117z"/>
<path d="M6078 2103 l-28 -4 0 -145 c0 -79 0 -147 0 -151 0 -5 37 -9 82 -11
71 -2 89 1 122 20 92 54 101 174 18 251 -42 40 -107 53 -194 40z m157 -107
c10 -15 15 -40 13 -63 -3 -34 -7 -39 -42 -51 -56 -18 -74 -9 -82 43 -3 25 -3
56 0 70 6 22 12 25 51 25 36 0 48 -5 60 -24z"/>
<path d="M6832 2097 c-49 -18 -109 -81 -116 -122 -18 -94 60 -195 151 -195 57
0 75 10 123 71 59 75 54 144 -17 211 -27 26 -73 49 -96 47 -7 0 -27 -5 -45
-12z m97 -103 c29 -37 26 -70 -8 -105 -57 -56 -121 -28 -121 52 0 71 87 106
129 53z"/>
<path d="M4220 1946 l0 -154 40 -4 40 -4 0 48 c0 44 2 48 25 48 20 0 30 -10
50 -50 25 -49 26 -50 71 -50 46 0 46 0 30 23 -9 12 -24 36 -33 54 -16 31 -16
32 17 69 28 33 32 42 27 78 -4 29 -15 49 -37 69 -29 26 -35 27 -130 27 l-100
0 0 -154z m175 44 c0 -35 0 -35 -47 -38 l-48 -3 0 41 0 41 48 -3 c47 -3 47 -3
47 -38z"/>
<path d="M6492 1950 c3 -83 7 -152 9 -154 2 -2 19 -7 36 -11 l33 -7 -3 161 -2
161 -39 0 -39 0 5 -150z"/>
<path d="M10177 2040 c3 -11 7 -20 9 -20 2 0 4 9 4 20 0 11 -4 20 -9 20 -5 0
-7 -9 -4 -20z"/>
<path d="M10200 2012 c0 -4 9 -13 20 -20 18 -11 20 -10 20 8 0 13 -7 20 -20
20 -11 0 -20 -3 -20 -8z"/>
<path d="M2370 1970 c-305 -3 -557 -7 -559 -8 -2 -1 2 -9 9 -17 11 -13 63 -15
354 -16 187 0 472 -4 631 -8 313 -9 330 -7 306 38 -11 19 -19 21 -99 19 -48
-1 -337 -5 -642 -8z"/>
<path d="M7300 1954 c0 -39 23 -47 107 -39 43 4 299 10 570 14 353 4 495 9
504 18 19 19 -64 22 -638 26 l-543 2 0 -21z"/>
<path d="M10195 1970 c-3 -5 1 -10 10 -10 9 0 13 5 10 10 -3 6 -8 10 -10 10
-2 0 -7 -4 -10 -10z"/>
<path d="M13 1840 c0 -47 2 -66 4 -42 2 23 2 61 0 85 -2 23 -4 4 -4 -43z"/>
<path d="M10208 1823 c6 -2 18 -2 25 0 6 3 1 5 -13 5 -14 0 -19 -2 -12 -5z"/>
<path d="M10208 1743 c6 -2 18 -2 25 0 6 3 1 5 -13 5 -14 0 -19 -2 -12 -5z"/>
<path d="M10035 1700 c3 -5 8 -10 11 -10 2 0 4 5 4 10 0 6 -5 10 -11 10 -5 0
-7 -4 -4 -10z"/>
<path d="M10218 1703 c7 -3 16 -2 19 1 4 3 -2 6 -13 5 -11 0 -14 -3 -6 -6z"/>
<path d="M8 915 c-1 -423 -2 -802 0 -842 l4 -72 599 0 c589 0 599 0 599 19 0
11 5 20 10 20 6 0 10 -9 10 -20 0 -19 7 -20 91 -20 79 0 90 2 85 16 -3 9 -6
18 -6 20 0 2 -9 4 -20 4 -13 0 -20 7 -20 20 0 17 7 20 50 20 43 0 50 -3 50
-19 0 -11 -5 -23 -10 -26 -6 -3 -10 -13 -10 -21 0 -17 51 -19 68 -2 9 9 12 9
12 -1 0 -16 92 -11 97 6 2 6 -6 21 -19 33 -17 15 -18 19 -5 15 10 -4 17 -2 17
4 0 6 -6 11 -12 12 -7 0 -26 2 -43 2 -23 2 -31 7 -33 25 -3 22 -16 29 -26 13
-3 -4 -17 -6 -31 -3 -25 4 -26 7 -20 45 5 28 4 38 -4 33 -6 -4 -11 -12 -11
-17 0 -17 -27 -39 -49 -39 -11 0 -23 -4 -26 -10 -11 -18 -35 -11 -35 10 0 14
-7 20 -22 20 -28 0 -55 16 -45 27 5 4 12 1 17 -7 5 -8 12 -11 16 -8 3 4 -1 15
-11 24 -14 14 -18 15 -25 4 -5 -8 -6 -26 -3 -41 4 -24 2 -27 -27 -31 -17 -3
-47 0 -66 6 -28 9 -34 16 -34 38 0 21 -5 28 -20 28 -25 0 -26 27 -1 35 22 7
33 39 18 54 -7 7 -6 15 2 25 15 18 4 86 -15 86 -19 0 -28 20 -15 33 15 15 14
27 -3 27 -8 0 -16 7 -20 15 -4 11 3 15 27 16 l32 2 -35 7 c-19 4 -29 8 -22 9
6 0 12 6 12 12 0 7 -10 9 -24 5 -14 -3 -28 -2 -31 4 -4 6 11 11 37 12 37 1 38
2 11 5 -18 2 -33 10 -33 17 0 9 9 12 28 9 l27 -5 -30 21 c-16 11 -24 21 -17
21 6 0 12 7 12 15 0 8 6 15 13 15 6 0 4 5 -6 11 -13 7 -22 7 -31 0 -9 -7 -16
-5 -26 9 -8 11 -20 20 -28 20 -7 0 -10 5 -7 10 4 6 -6 10 -22 10 -44 0 -60 16
-24 23 35 7 43 37 11 37 -26 0 -28 44 -2 60 14 9 13 10 -7 4 -14 -4 -21 -2
-18 3 7 11 -34 33 -58 33 -8 0 -15 8 -15 18 -1 16 -1 16 -11 0 -25 -43 -114
-7 -102 41 l6 26 -22 -22 c-32 -34 -77 -25 -69 13 3 15 11 18 35 16 17 -2 34
2 38 7 4 7 -4 11 -19 11 -13 0 -26 6 -28 12 -3 9 -10 8 -22 -5 -27 -26 -41
-15 -40 32 1 39 -10 55 -18 29 -3 -7 -7 -5 -11 6 -5 12 -3 15 6 10 6 -4 9 -3
4 1 -4 5 -17 9 -29 10 -20 2 -20 1 -3 -12 17 -12 14 -18 -7 -14 -16 2 -7 -18
10 -22 16 -4 16 -5 0 -6 -12 -1 -18 -9 -18 -24 0 -21 -4 -23 -32 -18 -27 4
-29 6 -10 9 19 3 21 6 11 18 -9 11 -7 14 12 15 19 1 20 2 5 6 -15 4 -16 7 -5
14 12 7 12 10 1 18 -11 7 -11 9 2 14 26 10 18 25 -20 37 -29 10 -38 10 -45 -1
-4 -7 -11 -10 -16 -6 -4 5 -1 13 7 18 11 8 12 12 3 16 -7 2 -13 20 -13 38 0
31 -3 34 -40 40 -39 7 -54 28 -27 38 6 2 -7 10 -30 16 -24 6 -43 15 -43 20 0
5 -11 6 -25 3 -20 -3 -25 0 -25 17 0 13 -6 21 -16 21 -13 0 -15 -6 -9 -27 3
-16 9 -43 12 -60 5 -30 3 -33 -22 -33 -22 0 -25 3 -20 20 3 11 3 29 0 40 -7
23 -35 27 -35 6 0 -8 -3 -21 -6 -30 -3 -9 -1 -16 4 -16 6 0 13 8 15 18 3 10 5
6 6 -11 0 -15 8 -30 16 -33 8 -4 15 -11 15 -16 0 -6 -6 -5 -15 2 -12 10 -18
10 -30 0 -10 -9 -15 -9 -15 -1 0 6 5 11 10 11 6 0 10 5 10 10 0 6 -11 8 -25 4
-19 -5 -25 -2 -25 11 0 24 -25 45 -54 45 -16 0 -26 6 -26 15 0 8 9 15 20 15
11 0 20 7 20 15 0 8 -9 15 -20 15 -11 0 -20 5 -20 10 0 6 9 10 20 10 11 0 20
-4 20 -10 0 -5 18 -10 40 -10 33 0 40 4 40 19 0 10 -9 21 -21 24 -11 3 -23 15
-26 26 -3 12 -17 22 -35 26 -18 4 -32 15 -36 27 -4 15 -7 17 -13 6 -6 -8 -9 3
-9 30 l0 43 63 -1 c82 -2 85 -2 67 11 -11 8 -12 12 -2 16 6 2 12 16 12 29 0
17 -6 24 -20 24 -13 0 -20 7 -20 20 0 13 -7 20 -20 20 -13 0 -20 7 -20 19 0
14 -9 20 -34 23 l-34 4 -4 -771z m102 450 c0 -8 -4 -15 -10 -15 -5 0 -10 7
-10 15 0 8 5 15 10 15 6 0 10 -7 10 -15z m244 -180 c-5 -11 0 -14 16 -13 13 2
25 -3 27 -12 4 -13 3 -13 -6 0 -9 12 -13 12 -19 2 -8 -12 -42 -7 -42 7 0 7 21
31 27 31 1 0 0 -7 -3 -15z m-119 -115 c4 -6 -6 -10 -22 -9 -25 0 -26 1 -8 9
11 5 21 9 22 9 1 1 5 -3 8 -9z m-24 -43 c-10 -9 -11 -8 -5 6 3 10 9 15 12 12
3 -3 0 -11 -7 -18z m219 -47 c0 -5 -9 -10 -20 -10 -11 0 -20 5 -20 10 0 6 9
10 20 10 11 0 20 -4 20 -10z m210 -80 c12 -8 9 -10 -12 -10 -16 0 -28 5 -28
10 0 13 20 13 40 0z m80 -20 c8 -5 11 -12 8 -16 -4 -3 -14 1 -23 10 -18 17 -9
21 15 6z m-70 -20 c0 -5 -4 -10 -10 -10 -5 0 -10 5 -10 10 0 6 5 10 10 10 6 0
10 -4 10 -10z m40 0 c0 -5 -5 -10 -11 -10 -5 0 -7 5 -4 10 3 6 8 10 11 10 2 0
4 -4 4 -10z m-20 -130 c0 -5 -4 -10 -10 -10 -5 0 -10 5 -10 10 0 6 5 10 10 10
6 0 10 -4 10 -10z m297 -66 c-3 -3 -12 -4 -19 -1 -8 3 -5 6 6 6 11 1 17 -2 13
-5z m57 -248 c-3 -15 -8 -25 -11 -23 -2 3 -1 17 3 31 3 15 8 25 11 23 2 -3 1
-17 -3 -31z m-24 -50 c-6 -8 -18 -12 -27 -9 -12 5 -12 7 -1 14 7 5 19 9 27 9
11 0 11 -3 1 -14z m70 -11 c0 -8 -4 -15 -10 -15 -5 0 -10 7 -10 15 0 8 5 15
10 15 6 0 10 -7 10 -15z m-40 -27 c0 -5 -4 -8 -10 -8 -5 0 -10 10 -10 23 0 18
2 19 10 7 5 -8 10 -18 10 -22z m80 -7 c0 -5 -6 -12 -12 -15 -10 -5 -10 -7 0
-12 14 -7 16 -24 3 -24 -13 0 -21 27 -15 45 7 16 24 21 24 6z m-100 -21 c0 -5
-4 -10 -10 -10 -5 0 -10 5 -10 10 0 6 5 10 10 10 6 0 10 -4 10 -10z m65 -30
c3 -5 1 -10 -4 -10 -6 0 -11 5 -11 10 0 6 2 10 4 10 3 0 8 -4 11 -10z m-45
-100 c0 -5 -4 -10 -10 -10 -5 0 -10 5 -10 10 0 6 5 10 10 10 6 0 10 -4 10 -10z
m480 -95 c0 -8 -4 -15 -10 -15 -5 0 -10 7 -10 15 0 8 5 15 10 15 6 0 10 -7 10
-15z m-20 -45 c0 -5 -2 -10 -4 -10 -3 0 -8 5 -11 10 -3 6 -1 10 4 10 6 0 11
-4 11 -10z"/>
<path d="M10017 1637 c-3 -8 1 -14 8 -14 7 0 11 6 8 14 -3 7 -6 13 -8 13 -2 0
-5 -6 -8 -13z"/>
<path d="M10190 1630 c0 -7 -7 -9 -16 -6 -8 3 -12 2 -9 -4 5 -8 -20 -15 -46
-12 -3 1 -6 -6 -6 -14 0 -11 7 -13 28 -9 22 5 30 2 39 -15 9 -17 14 -19 26 -9
11 9 14 8 14 -2 1 -10 3 -9 10 3 6 9 7 24 4 33 -6 16 -8 16 -16 1 -10 -17 -38
-22 -38 -7 0 5 7 16 15 25 9 9 11 17 5 21 -5 3 -10 1 -10 -5z"/>
<path d="M10050 1595 c-11 -13 -10 -14 4 -9 9 3 16 10 16 15 0 13 -6 11 -20
-6z"/>
<path d="M10016 1587 c3 -10 9 -15 12 -12 3 3 0 11 -7 18 -10 9 -11 8 -5 -6z"/>
<path d="M10063 1573 c-7 -3 -13 -16 -13 -29 0 -17 6 -24 20 -24 13 0 20 7 20
20 0 27 18 25 22 -2 2 -16 10 -23 26 -24 12 -1 22 3 22 7 0 5 -7 9 -15 9 -19
0 -19 14 -2 32 11 11 7 13 -27 14 -23 1 -47 -1 -53 -3z"/>
<path d="M10105 1480 c-7 -22 -20 -26 -30 -10 -12 20 -32 10 -32 -16 0 -18 3
-22 10 -15 13 13 27 14 27 3 0 -5 -11 -15 -25 -22 -13 -7 -22 -17 -19 -22 3
-4 -4 -8 -15 -8 -12 0 -21 -4 -21 -10 0 -5 11 -10 25 -10 31 0 33 -16 4 -25
-13 -4 -25 -2 -29 6 -6 10 -15 9 -43 -4 -30 -15 -35 -23 -41 -63 -3 -28 -2
-52 4 -60 8 -8 8 -14 0 -19 -5 -3 -10 1 -10 9 0 9 -5 16 -10 16 -6 0 -9 10 -7
23 2 12 2 16 0 10 -3 -7 -13 -13 -24 -13 -10 0 -19 -4 -19 -10 0 -5 10 -10 21
-10 17 0 20 -4 15 -22 -3 -13 -6 -38 -6 -55 0 -23 -5 -33 -15 -33 -8 0 -15 -6
-15 -12 -1 -8 -6 -6 -14 5 -16 21 -26 22 -26 3 0 -19 30 -42 52 -38 12 2 18
-3 18 -17 0 -10 5 -21 11 -23 6 -2 9 -13 6 -23 -5 -19 -5 -19 -12 3 -4 12 -12
22 -19 22 -6 0 -21 3 -33 6 -17 5 -23 2 -23 -10 0 -9 6 -16 14 -16 7 0 19 -7
26 -15 10 -12 8 -20 -9 -41 -12 -15 -21 -21 -21 -14 0 9 -3 10 -13 1 -9 -7
-17 -7 -24 0 -7 7 -21 7 -44 1 l-34 -10 33 -1 c25 -1 35 -6 39 -21 3 -11 9
-17 14 -14 12 7 11 2 -7 -35 -11 -23 -22 -32 -38 -30 -11 0 -25 0 -31 -1 -5
-2 -17 -4 -25 -4 -9 -1 -14 -10 -13 -24 3 -22 -12 -31 -19 -11 -4 13 -58 1
-58 -13 0 -13 -26 -38 -39 -38 -12 0 -15 -16 -3 -23 4 -2 1 -2 -6 -1 -7 2 -17
-8 -22 -21 -5 -14 -17 -25 -27 -25 -10 -1 -31 -19 -48 -40 -16 -21 -36 -39
-42 -40 -7 0 -13 -9 -13 -20 0 -16 -7 -20 -33 -20 -29 0 -33 -4 -45 -40 -6
-22 -12 -49 -12 -60 0 -11 -4 -20 -10 -20 -5 0 -10 9 -10 21 0 15 -5 19 -15
15 -8 -3 -15 -1 -15 5 0 6 -7 9 -15 5 -9 -3 -15 0 -15 9 0 8 -4 15 -10 15 -5
0 -10 -8 -10 -17 0 -15 -2 -16 -10 -3 -7 12 -11 8 -16 -17 -4 -22 -10 -30 -21
-26 -12 5 -12 7 -1 14 10 7 10 9 1 9 -7 0 -13 6 -13 14 0 8 6 17 13 19 6 3 8
6 2 6 -5 0 -16 -3 -24 -8 -12 -8 -12 -12 -2 -25 10 -12 10 -16 2 -16 -8 0 -7
-6 3 -16 9 -8 15 -30 15 -47 -1 -18 -3 -25 -6 -15 -3 12 -19 17 -66 20 -34 2
-65 -1 -68 -6 -4 -5 -11 -6 -17 -2 -5 3 -15 -1 -22 -9 -11 -13 -10 -18 6 -30
10 -8 14 -15 7 -15 -7 0 -10 -8 -8 -18 3 -9 -1 -3 -9 13 -12 25 -16 27 -21 13
-4 -9 -4 -22 0 -29 5 -8 1 -9 -14 -4 -17 5 -21 2 -21 -14 0 -14 -6 -21 -20
-21 -16 0 -20 -7 -20 -37 0 -45 -26 -62 -84 -57 -22 1 -34 -2 -30 -8 3 -5 15
-7 26 -5 11 3 23 -1 30 -12 7 -12 19 -16 39 -13 18 3 29 0 29 -8 0 -8 -15 -11
-42 -9 -38 2 -56 0 -120 -17 -9 -3 -19 -11 -22 -19 -3 -9 0 -12 10 -8 22 8 17
-10 -7 -25 -12 -8 -18 -9 -15 -3 4 7 1 8 -8 5 -9 -3 -14 -9 -12 -13 2 -3 -10
-7 -27 -8 -32 -2 -32 -2 -8 11 17 10 20 15 10 18 -20 7 -59 -13 -59 -30 0 -10
-4 -12 -12 -4 -17 14 -108 20 -105 7 1 -5 17 -10 35 -10 20 0 39 -7 46 -17 12
-17 65 -18 850 -18 l836 0 0 685 c0 640 -1 685 -17 695 -17 11 -17 11 0 6 14
-4 17 1 17 34 0 22 -5 40 -11 40 -16 0 -39 -26 -40 -47 0 -11 -4 -6 -9 11 -10
34 10 57 42 48 11 -3 18 1 18 10 0 12 -15 15 -64 16 -56 1 -66 -1 -71 -18z
m75 7 c0 -2 -9 -14 -20 -27 -13 -15 -20 -18 -20 -9 0 8 -7 1 -15 -14 -8 -16
-14 -34 -12 -40 1 -7 -10 -13 -25 -15 -16 -2 -28 1 -28 7 0 6 5 11 10 11 6 0
15 11 20 25 14 36 42 63 68 64 12 1 22 -1 22 -2z m-19 -100 c-13 -13 -26 -3
-16 12 3 6 11 8 17 5 6 -4 6 -10 -1 -17z m-21 -28 c0 -5 -4 -9 -10 -9 -5 0
-10 7 -10 16 0 8 5 12 10 9 6 -3 10 -10 10 -16z m-53 -25 c-3 -3 -12 -4 -19
-1 -8 3 -5 6 6 6 11 1 17 -2 13 -5z m-127 -40 c0 -8 -4 -14 -10 -14 -5 0 -10
9 -10 21 0 11 5 17 10 14 6 -3 10 -13 10 -21z m70 5 c0 -14 -17 -10 -23 5 -4
10 -1 13 9 9 7 -3 14 -9 14 -14z m-104 -215 c4 -16 11 -23 20 -20 12 5 12 2 2
-17 -12 -22 -12 -21 -21 11 -8 26 -15 32 -38 32 -16 0 -29 5 -29 10 0 6 13 10
30 10 23 0 31 -5 36 -26z m61 -106 c-3 -8 -6 -5 -6 6 -1 11 2 17 5 13 3 -3 4
-12 1 -19z m-106 -11 c-1 -12 -15 -9 -19 4 -3 6 1 10 8 8 6 -3 11 -8 11 -12z
m79 5 c0 -5 -13 -7 -30 -4 -16 2 -30 6 -30 8 0 2 14 4 30 4 17 0 30 -4 30 -8z
m30 -32 c0 -5 -4 -10 -10 -10 -5 0 -10 5 -10 10 0 6 5 10 10 10 6 0 10 -4 10
-10z m-140 -40 c0 -5 -4 -10 -10 -10 -5 0 -10 5 -10 10 0 6 5 10 10 10 6 0 10
-4 10 -10z m-141 -80 c6 8 13 11 17 7 4 -4 -1 -14 -12 -21 -19 -14 -34 -6 -34
19 0 6 5 3 10 -5 9 -13 11 -13 19 0z m-89 -107 c0 -27 -4 -43 -8 -37 -4 6 -17
14 -29 18 -18 6 -22 4 -17 -8 3 -9 1 -16 -5 -16 -6 0 -11 9 -11 21 0 18 4 20
30 14 19 -4 30 -3 30 4 0 6 -7 11 -15 11 -15 0 -21 21 -8 33 20 21 33 4 33
-40z m87 21 c-3 -3 -12 -4 -19 -1 -8 3 -5 6 6 6 11 1 17 -2 13 -5z m-430 -310
c-3 -4 -19 -3 -34 1 l-28 8 25 7 c25 7 50 -4 37 -16z m163 -94 c0 -5 -5 -10
-11 -10 -5 0 -7 5 -4 10 3 6 8 10 11 10 2 0 4 -4 4 -10z m-135 -110 c-3 -5
-14 -10 -23 -9 -14 0 -13 2 3 9 27 11 27 11 20 0z m-315 -60 c0 -5 -4 -10 -10
-10 -5 0 -10 5 -10 10 0 6 5 10 10 10 6 0 10 -4 10 -10z m-134 -50 c13 0 24
-4 24 -10 0 -5 -18 -10 -40 -10 -30 0 -40 4 -40 16 0 11 5 14 16 10 9 -3 27
-6 40 -6z"/>
<path d="M176 1434 c-9 -22 5 -36 24 -24 13 8 13 11 -1 25 -15 15 -17 15 -23
-1z"/>
<path d="M270 1431 c0 -6 4 -13 10 -16 6 -3 7 1 4 9 -7 18 -14 21 -14 7z"/>
<path d="M9987 1424 c6 -15 23 -19 23 -5 0 5 -7 11 -14 14 -10 4 -13 1 -9 -9z"/>
<path d="M248 1383 c12 -2 30 -2 40 0 9 3 -1 5 -23 4 -22 0 -30 -2 -17 -4z"/>
<path d="M235 1361 c-6 -11 9 -23 19 -14 9 9 7 23 -3 23 -6 0 -12 -4 -16 -9z"/>
<path d="M405 1350 c-3 -5 -2 -17 3 -26 8 -14 10 -14 21 0 13 15 8 36 -9 36
-5 0 -12 -4 -15 -10z m25 -10 c0 -5 -4 -10 -10 -10 -5 0 -10 5 -10 10 0 6 5
10 10 10 6 0 10 -4 10 -10z"/>
<path d="M330 1320 c0 -5 5 -10 10 -10 6 0 10 5 10 10 0 6 -4 10 -10 10 -5 0
-10 -4 -10 -10z"/>
<path d="M9790 1263 c0 -13 5 -23 10 -23 13 0 13 11 0 30 -8 12 -10 11 -10 -7z"/>
<path d="M9660 1230 c0 -5 5 -10 10 -10 6 0 10 5 10 10 0 6 -4 10 -10 10 -5 0
-10 -4 -10 -10z"/>
<path d="M475 1200 c-3 -5 1 -10 9 -10 9 0 16 -4 16 -10 0 -5 -8 -10 -17 -10
-14 0 -14 -3 -5 -12 10 -10 15 -10 21 1 6 9 16 11 27 7 13 -5 11 1 -8 19 -30
28 -34 29 -43 15z"/>
<path d="M9736 1104 c-4 -14 -5 -28 -3 -31 3 -2 8 8 11 23 4 14 5 28 3 31 -3
2 -8 -8 -11 -23z"/>
<path d="M741 1093 c-1 -6 -4 -20 -7 -30 -5 -17 -5 -17 6 0 6 10 9 23 6 30 -3
9 -5 9 -5 0z"/>
<path d="M550 1080 c0 -5 5 -10 10 -10 6 0 10 5 10 10 0 6 -4 10 -10 10 -5 0
-10 -4 -10 -10z"/>
<path d="M9793 1083 c-7 -3 -13 -14 -13 -26 0 -21 0 -21 16 1 17 25 16 32 -3
25z"/>
<path d="M9750 1070 c0 -5 5 -10 10 -10 6 0 10 5 10 10 0 6 -4 10 -10 10 -5 0
-10 -4 -10 -10z"/>
<path d="M640 1020 c0 -12 5 -17 14 -14 8 3 17 1 21 -5 3 -6 17 -11 31 -11 17
0 24 -5 24 -19 0 -26 16 -35 24 -15 11 29 6 44 -14 44 -13 0 -20 7 -20 20 0
17 -7 20 -40 20 -33 0 -40 -3 -40 -20z"/>
<path d="M9750 1029 c0 -5 5 -7 10 -4 6 3 10 2 10 -4 0 -5 -6 -12 -12 -15 -7
-3 -3 -3 10 0 12 3 22 1 22 -5 0 -6 -6 -11 -12 -11 -9 0 -8 -4 2 -10 8 -5 20
-10 25 -10 6 0 4 4 -4 9 -9 6 -10 10 -2 16 8 5 5 13 -10 26 -25 21 -39 24 -39
8z"/>
<path d="M670 920 c0 -5 5 -10 10 -10 6 0 10 5 10 10 0 6 -4 10 -10 10 -5 0
-10 -4 -10 -10z"/>
<path d="M810 920 c0 -5 5 -10 10 -10 6 0 10 5 10 10 0 6 -4 10 -10 10 -5 0
-10 -4 -10 -10z"/>
<path d="M9716 891 c-7 -11 22 -23 35 -15 5 3 9 9 9 15 0 12 -37 12 -44 0z"/>
<path d="M770 881 c0 -5 11 -8 25 -8 14 0 25 3 25 8 0 5 -11 9 -25 9 -14 0
-25 -4 -25 -9z"/>
<path d="M9630 840 c0 -5 7 -10 15 -10 8 0 15 5 15 10 0 6 -7 10 -15 10 -8 0
-15 -4 -15 -10z"/>
<path d="M9550 830 c0 -5 5 -10 11 -10 5 0 7 5 4 10 -3 6 -8 10 -11 10 -2 0
-4 -4 -4 -10z"/>
<path d="M971 814 c0 -11 3 -14 6 -6 3 7 2 16 -1 19 -3 4 -6 -2 -5 -13z"/>
<path d="M9450 759 c0 -5 5 -7 10 -4 6 3 10 8 10 11 0 2 -4 4 -10 4 -5 0 -10
-5 -10 -11z"/>
<path d="M9528 763 c7 -3 16 -2 19 1 4 3 -2 6 -13 5 -11 0 -14 -3 -6 -6z"/>
<path d="M9370 633 c0 -4 5 -15 10 -23 8 -13 10 -13 10 2 0 9 -4 20 -10 23 -5
3 -10 3 -10 -2z"/>
<path d="M9347 604 c6 -15 23 -19 23 -5 0 5 -7 11 -14 14 -10 4 -13 1 -9 -9z"/>
<path d="M9100 455 c-7 -9 -10 -18 -7 -21 3 -3 10 4 17 15 13 25 8 27 -10 6z"/>
<path d="M9000 430 c-8 -5 -11 -12 -7 -16 4 -4 13 -2 19 4 15 15 7 24 -12 12z"/>
<path d="M8910 396 c-13 -15 -20 -32 -17 -40 7 -18 27 -22 27 -6 0 6 8 10 18
10 14 0 19 8 19 30 0 36 -16 38 -47 6z"/>
<path d="M1170 380 c0 -5 5 -10 10 -10 6 0 10 5 10 10 0 6 -4 10 -10 10 -5 0
-10 -4 -10 -10z"/>
<path d="M1140 335 c0 -19 2 -35 4 -35 2 0 6 16 8 35 2 19 0 35 -4 35 -4 0 -8
-16 -8 -35z"/>
<path d="M8766 335 c-9 -37 13 -65 49 -64 17 1 22 3 13 6 -10 2 -18 9 -18 14
0 5 -7 9 -15 9 -17 0 -20 16 -5 25 15 9 12 35 -4 35 -8 0 -17 -11 -20 -25z"/>
<path d="M8836 331 c-8 -12 13 -18 42 -13 18 4 20 7 10 13 -17 11 -45 11 -52
0z"/>
<path d="M8670 300 c0 -5 5 -10 11 -10 5 0 7 5 4 10 -3 6 -8 10 -11 10 -2 0
-4 -4 -4 -10z"/>
<path d="M1160 260 c0 -13 7 -20 20 -20 24 0 27 25 4 34 -23 9 -24 8 -24 -14z"/>
<path d="M1395 239 c-11 -17 -2 -18 19 -3 17 12 17 14 4 14 -9 0 -20 -5 -23
-11z"/>
<path d="M1475 230 c-4 -6 3 -10 14 -10 25 0 27 6 6 13 -8 4 -17 2 -20 -3z"/>
<path d="M1497 180 c4 -23 2 -30 -11 -30 -9 0 -16 -4 -16 -10 0 -15 19 -12 36
4 18 19 18 52 -1 59 -11 5 -13 0 -8 -23z"/>
<path d="M1208 153 c6 -2 18 -2 25 0 6 3 1 5 -13 5 -14 0 -19 -2 -12 -5z"/>
<path d="M1690 80 c0 -5 5 -10 10 -10 6 0 10 5 10 10 0 6 -4 10 -10 10 -5 0
-10 -4 -10 -10z"/>
<path d="M1629 63 c0 -10 -2 -28 -3 -41 -2 -12 2 -21 8 -19 14 5 20 77 6 77
-5 0 -10 -8 -11 -17z"/>
<path d="M1785 70 c3 -5 8 -10 11 -10 2 0 4 5 4 10 0 6 -5 10 -11 10 -5 0 -7
-4 -4 -10z"/>
<path d="M1760 44 c0 -8 5 -12 10 -9 6 4 8 11 5 16 -9 14 -15 11 -15 -7z"/>
<path d="M1672 20 c0 -14 2 -19 5 -12 2 6 2 18 0 25 -3 6 -5 1 -5 -13z"/>
<path d="M1722 20 c0 -14 2 -19 5 -12 2 6 2 18 0 25 -3 6 -5 1 -5 -13z"/>
<path d="M1808 23 c7 -3 16 -2 19 1 4 3 -2 6 -13 5 -11 0 -14 -3 -6 -6z"/>
</g>
</svg>
